G04 #@! TF.GenerationSoftware,KiCad,Pcbnew,8.0.4*
G04 #@! TF.CreationDate,2024-12-08T01:13:34+02:00*
G04 #@! TF.ProjectId,usb2ps2,75736232-7073-4322-9e6b-696361645f70,1.2*
G04 #@! TF.SameCoordinates,Original*
G04 #@! TF.FileFunction,Paste,Top*
G04 #@! TF.FilePolarity,Positive*
%FSLAX46Y46*%
G04 Gerber Fmt 4.6, Leading zero omitted, Abs format (unit mm)*
G04 Created by KiCad (PCBNEW 8.0.4) date 2024-12-08 01:13:34*
%MOMM*%
%LPD*%
G01*
G04 APERTURE LIST*
G04 Aperture macros list*
%AMRoundRect*
0 Rectangle with rounded corners*
0 $1 Rounding radius*
0 $2 $3 $4 $5 $6 $7 $8 $9 X,Y pos of 4 corners*
0 Add a 4 corners polygon primitive as box body*
4,1,4,$2,$3,$4,$5,$6,$7,$8,$9,$2,$3,0*
0 Add four circle primitives for the rounded corners*
1,1,$1+$1,$2,$3*
1,1,$1+$1,$4,$5*
1,1,$1+$1,$6,$7*
1,1,$1+$1,$8,$9*
0 Add four rect primitives between the rounded corners*
20,1,$1+$1,$2,$3,$4,$5,0*
20,1,$1+$1,$4,$5,$6,$7,0*
20,1,$1+$1,$6,$7,$8,$9,0*
20,1,$1+$1,$8,$9,$2,$3,0*%
G04 Aperture macros list end*
%ADD10RoundRect,0.250000X0.450000X-0.350000X0.450000X0.350000X-0.450000X0.350000X-0.450000X-0.350000X0*%
%ADD11RoundRect,0.250000X-0.450000X0.350000X-0.450000X-0.350000X0.450000X-0.350000X0.450000X0.350000X0*%
%ADD12RoundRect,0.250000X-0.350000X-0.450000X0.350000X-0.450000X0.350000X0.450000X-0.350000X0.450000X0*%
%ADD13O,2.500000X1.500000*%
%ADD14O,1.500000X2.500000*%
%ADD15RoundRect,0.250000X0.450000X-0.325000X0.450000X0.325000X-0.450000X0.325000X-0.450000X-0.325000X0*%
G04 APERTURE END LIST*
D10*
X122250000Y-89750000D03*
X122250000Y-87750000D03*
D11*
X122000000Y-81500000D03*
X122000000Y-83500000D03*
D10*
X129000000Y-83500000D03*
X129000000Y-81500000D03*
D12*
X110750000Y-79750000D03*
X112750000Y-79750000D03*
X106000000Y-79750000D03*
X108000000Y-79750000D03*
D13*
X133420000Y-79840000D03*
X133420000Y-82380000D03*
X133420000Y-84920000D03*
X133420000Y-87460000D03*
X133420000Y-90000000D03*
X133420000Y-92540000D03*
X133420000Y-95080000D03*
X133420000Y-97620000D03*
X133420000Y-100160000D03*
D14*
X130380000Y-100660000D03*
X127840000Y-100660000D03*
X125300000Y-100660000D03*
X122760000Y-100660000D03*
X120220000Y-100660000D03*
D13*
X117180000Y-100160000D03*
X117180000Y-97620000D03*
X117180000Y-95080000D03*
X117180000Y-92540000D03*
X117180000Y-90000000D03*
X117180000Y-87460000D03*
X117180000Y-84920000D03*
X117180000Y-82380000D03*
X117180000Y-79840000D03*
D11*
X124300000Y-87750000D03*
X124300000Y-89750000D03*
X126750000Y-89750000D03*
X126750000Y-87750000D03*
D10*
X129000000Y-89750000D03*
X129000000Y-87750000D03*
X124250000Y-83500000D03*
X124250000Y-81500000D03*
D11*
X126750000Y-81500000D03*
X126750000Y-83500000D03*
D15*
X121800000Y-95125000D03*
X121800000Y-93075000D03*
X129000000Y-95100000D03*
X129000000Y-93050000D03*
X124350000Y-95100000D03*
X124350000Y-93050000D03*
X126750000Y-95100000D03*
X126750000Y-93050000D03*
M02*
