G04 #@! TF.GenerationSoftware,KiCad,Pcbnew,8.0.4*
G04 #@! TF.CreationDate,2024-12-08T01:13:34+02:00*
G04 #@! TF.ProjectId,usb2ps2,75736232-7073-4322-9e6b-696361645f70,1.2*
G04 #@! TF.SameCoordinates,Original*
G04 #@! TF.FileFunction,Soldermask,Bot*
G04 #@! TF.FilePolarity,Negative*
%FSLAX46Y46*%
G04 Gerber Fmt 4.6, Leading zero omitted, Abs format (unit mm)*
G04 Created by KiCad (PCBNEW 8.0.4) date 2024-12-08 01:13:34*
%MOMM*%
%LPD*%
G01*
G04 APERTURE LIST*
%ADD10C,0.100000*%
%ADD11C,1.700000*%
%ADD12O,1.700000X1.700000*%
%ADD13R,1.700000X1.700000*%
%ADD14R,1.500000X1.500000*%
%ADD15C,1.500000*%
%ADD16C,3.500000*%
%ADD17O,1.500000X1.500000*%
%ADD18C,2.100000*%
%ADD19R,1.600000X1.600000*%
%ADD20C,1.600000*%
%ADD21O,3.500000X2.000000*%
%ADD22O,2.000000X4.000000*%
G04 APERTURE END LIST*
D10*
G36*
X148086274Y-93640411D02*
G01*
X148091941Y-93678513D01*
X148225981Y-93678513D01*
X148223832Y-93639239D01*
X148226718Y-93598865D01*
X148238739Y-93559703D01*
X148248256Y-93545254D01*
X148282313Y-93522538D01*
X148322534Y-93516169D01*
X148325828Y-93516140D01*
X148624000Y-93516140D01*
X148624000Y-93371549D01*
X148086274Y-93371549D01*
X148086274Y-93507152D01*
X148152318Y-93507152D01*
X148152318Y-93513796D01*
X148120171Y-93537891D01*
X148101515Y-93565380D01*
X148089623Y-93602710D01*
X148086274Y-93640411D01*
G37*
G36*
X148073769Y-94044487D02*
G01*
X148078597Y-94091883D01*
X148093080Y-94131246D01*
X148117218Y-94162576D01*
X148151011Y-94185873D01*
X148194460Y-94201136D01*
X148236170Y-94207563D01*
X148271508Y-94209009D01*
X148624000Y-94209009D01*
X148624000Y-94064612D01*
X148294956Y-94064612D01*
X148254530Y-94059033D01*
X148221209Y-94034234D01*
X148211327Y-93994075D01*
X148219488Y-93954639D01*
X148240245Y-93927445D01*
X148276112Y-93907778D01*
X148316644Y-93902240D01*
X148624000Y-93902240D01*
X148624000Y-93757648D01*
X147873685Y-93757648D01*
X147873685Y-93902240D01*
X148143330Y-93902240D01*
X148143330Y-93908883D01*
X148112782Y-93933750D01*
X148092332Y-93963203D01*
X148078410Y-94001207D01*
X148073787Y-94041627D01*
X148073769Y-94044487D01*
G37*
G36*
X148486442Y-94660174D02*
G01*
X148486442Y-94819225D01*
X148624000Y-94819225D01*
X148624000Y-94333084D01*
X148486442Y-94333084D01*
X148486442Y-94515582D01*
X148072011Y-94515582D01*
X148072011Y-94508939D01*
X148219729Y-94333084D01*
X148045046Y-94333084D01*
X147873685Y-94530237D01*
X147873685Y-94660174D01*
X148486442Y-94660174D01*
G37*
G36*
X148624000Y-94901877D02*
G01*
X148452053Y-94901877D01*
X148452053Y-95074410D01*
X148624000Y-95074410D01*
X148624000Y-94901877D01*
G37*
G36*
X148402087Y-95164052D02*
G01*
X148445189Y-95169781D01*
X148484445Y-95179329D01*
X148525382Y-95195296D01*
X148561083Y-95216461D01*
X148565723Y-95219900D01*
X148597542Y-95250525D01*
X148619932Y-95286694D01*
X148632896Y-95328408D01*
X148636505Y-95369455D01*
X148636323Y-95378998D01*
X148630659Y-95420127D01*
X148615793Y-95457969D01*
X148614467Y-95460260D01*
X148588120Y-95492464D01*
X148554635Y-95515024D01*
X148554635Y-95522840D01*
X148624000Y-95522840D01*
X148624000Y-95658443D01*
X147873685Y-95658443D01*
X147873685Y-95513852D01*
X148146651Y-95513852D01*
X148146651Y-95507208D01*
X148118235Y-95484279D01*
X148093504Y-95451130D01*
X148092290Y-95448956D01*
X148078551Y-95412051D01*
X148211327Y-95412051D01*
X148211650Y-95421462D01*
X148221694Y-95459428D01*
X148248061Y-95489232D01*
X148274302Y-95502833D01*
X148314455Y-95512505D01*
X148355137Y-95515024D01*
X148388207Y-95513412D01*
X148426820Y-95505931D01*
X148462213Y-95489232D01*
X148468778Y-95484171D01*
X148491916Y-95452117D01*
X148498947Y-95412051D01*
X148493891Y-95376990D01*
X148471421Y-95341526D01*
X148437013Y-95321074D01*
X148396567Y-95311402D01*
X148355137Y-95308883D01*
X148321431Y-95310495D01*
X148279300Y-95318958D01*
X148242926Y-95338000D01*
X148218208Y-95371852D01*
X148211327Y-95412051D01*
X148078551Y-95412051D01*
X148078105Y-95410854D01*
X148073769Y-95369455D01*
X148074065Y-95357294D01*
X148079751Y-95317460D01*
X148095111Y-95277132D01*
X148119923Y-95242349D01*
X148149387Y-95216461D01*
X148154154Y-95213120D01*
X148190530Y-95192697D01*
X148232159Y-95177472D01*
X148272024Y-95168560D01*
X148315750Y-95163468D01*
X148355137Y-95162142D01*
X148402087Y-95164052D01*
G37*
G36*
X148363360Y-95754446D02*
G01*
X148402776Y-95756704D01*
X148446334Y-95763669D01*
X148485812Y-95775278D01*
X148526713Y-95794692D01*
X148562060Y-95820425D01*
X148583506Y-95842132D01*
X148607425Y-95876113D01*
X148624218Y-95914282D01*
X148633888Y-95956639D01*
X148636505Y-95996280D01*
X148633366Y-96039352D01*
X148623951Y-96079078D01*
X148608258Y-96115458D01*
X148586288Y-96148492D01*
X148558799Y-96176922D01*
X148526742Y-96199490D01*
X148490118Y-96216196D01*
X148448926Y-96227041D01*
X148448926Y-96081277D01*
X148470810Y-96068417D01*
X148493036Y-96035591D01*
X148498947Y-95996280D01*
X148492722Y-95958238D01*
X148470615Y-95924570D01*
X148451510Y-95911103D01*
X148412726Y-95897653D01*
X148373895Y-95892135D01*
X148373895Y-96230362D01*
X148366641Y-96231303D01*
X148327000Y-96232512D01*
X148312913Y-96232261D01*
X148272632Y-96228500D01*
X148231355Y-96219028D01*
X148193741Y-96203984D01*
X148160395Y-96183731D01*
X148129620Y-96155855D01*
X148105032Y-96122114D01*
X148103109Y-96118776D01*
X148085981Y-96079973D01*
X148076822Y-96041371D01*
X148073769Y-95999602D01*
X148195695Y-95999602D01*
X148195988Y-96009687D01*
X148204561Y-96048363D01*
X148231159Y-96080731D01*
X148270727Y-96095931D01*
X148270727Y-95896629D01*
X148243332Y-95906328D01*
X148212695Y-95932386D01*
X148200493Y-95960001D01*
X148195695Y-95999602D01*
X148073769Y-95999602D01*
X148074932Y-95971789D01*
X148082566Y-95926789D01*
X148097324Y-95886464D01*
X148119207Y-95850814D01*
X148148214Y-95819839D01*
X148157747Y-95811913D01*
X148194680Y-95788197D01*
X148230758Y-95772856D01*
X148270916Y-95762117D01*
X148315155Y-95755980D01*
X148355137Y-95754382D01*
X148363360Y-95754446D01*
G37*
G36*
X148086274Y-96621151D02*
G01*
X148086274Y-96775708D01*
X148624000Y-96597704D01*
X148624000Y-96444319D01*
X148086274Y-96266120D01*
X148086274Y-96420676D01*
X148423916Y-96517006D01*
X148423916Y-96523845D01*
X148086274Y-96621151D01*
G37*
D11*
X144250000Y-79000000D03*
D12*
X141710000Y-79000000D03*
X139170000Y-79000000D03*
X136630000Y-79000000D03*
D11*
X107670000Y-100500000D03*
D12*
X110210000Y-100500000D03*
D11*
X138500000Y-100500000D03*
D12*
X141040000Y-100500000D03*
D13*
X143580000Y-100500000D03*
D14*
X109630000Y-86250000D03*
D15*
X109630000Y-88750000D03*
X109630000Y-90750000D03*
X109630000Y-93250000D03*
X112250000Y-86250000D03*
X112250000Y-88750000D03*
X112250000Y-90750000D03*
X112250000Y-93250000D03*
D16*
X106920000Y-83180000D03*
X106920000Y-96320000D03*
X112600000Y-83180000D03*
X112600000Y-96320000D03*
D17*
X132920000Y-79840000D03*
X132920000Y-82380000D03*
X132920000Y-84920000D03*
X132920000Y-87460000D03*
X132920000Y-90000000D03*
X132920000Y-92540000D03*
X132920000Y-95080000D03*
X132920000Y-97620000D03*
X132920000Y-100160000D03*
X130380000Y-100160000D03*
X127840000Y-100160000D03*
X125300000Y-100160000D03*
X122760000Y-100160000D03*
X120220000Y-100160000D03*
X117680000Y-100160000D03*
X117680000Y-97620000D03*
X117680000Y-95080000D03*
X117680000Y-92540000D03*
X117680000Y-90000000D03*
X117680000Y-87460000D03*
X117680000Y-84920000D03*
X117680000Y-82380000D03*
X117680000Y-79840000D03*
D18*
X146900000Y-79400000D03*
X146900000Y-100650000D03*
D19*
X140750000Y-88000000D03*
D20*
X140750000Y-90600000D03*
D21*
X143600000Y-96150000D03*
D22*
X144400000Y-89300000D03*
D20*
X140750000Y-85900000D03*
D21*
X143600000Y-82450000D03*
D20*
X140750000Y-92700000D03*
X137950000Y-85900000D03*
X137950000Y-92700000D03*
D18*
X102250000Y-79400000D03*
X102250000Y-100650000D03*
M02*
