M48
; DRILL file {KiCad 8.0.4} date 2024-12-08T01:13:36+0200
; FORMAT={-:-/ absolute / inch / decimal}
; #@! TF.CreationDate,2024-12-08T01:13:36+02:00
; #@! TF.GenerationSoftware,Kicad,Pcbnew,8.0.4
; #@! TF.FileFunction,Plated,1,2,PTH
FMAT,2
INCH
; #@! TA.AperFunction,Plated,PTH,ViaDrill
T1C0.0138
; #@! TA.AperFunction,Plated,PTH,ViaDrill
T2C0.0197
; #@! TA.AperFunction,Plated,PTH,ComponentDrill
T3C0.0315
; #@! TA.AperFunction,Plated,PTH,ComponentDrill
T4C0.0362
; #@! TA.AperFunction,Plated,PTH,ComponentDrill
T5C0.0394
; #@! TA.AperFunction,Plated,PTH,ComponentDrill
T6C0.0906
%
G90
G05
T1
X4.5087Y-3.4594
X4.5469Y-3.374
X4.685Y-3.3106
X4.7146Y-3.376
X4.7244Y-3.4547
X4.7933Y-3.75
X4.813Y-3.5335
X4.8524Y-3.6122
X4.8917Y-3.2087
X4.8917Y-3.2874
X4.8917Y-3.4547
X4.9902Y-3.4547
X4.9902Y-3.5335
X4.9902Y-3.663
X5.0102Y-3.5972
X5.0787Y-3.2087
X5.0787Y-3.2874
X5.0787Y-3.4547
X5.1287Y-3.2339
X5.1287Y-3.3453
X5.1331Y-3.4512
X5.1598Y-3.1402
X5.1909Y-3.2114
X5.3346Y-3.376
X5.3346Y-3.4744
X5.3346Y-3.622
X5.4161Y-3.4685
X5.4276Y-3.2945
X5.4283Y-3.7701
X5.435Y-3.5866
X5.5398Y-3.3035
X5.7776Y-3.7205
T2
X4.9016Y-3.1102
T3
X5.4311Y-3.3819
X5.4311Y-3.6496
X5.5413Y-3.3819
X5.5413Y-3.4646
X5.5413Y-3.5669
X5.5413Y-3.6496
T4
X4.3161Y-3.3957
X4.3161Y-3.4941
X4.3161Y-3.5728
X4.3161Y-3.6713
X4.4193Y-3.3957
X4.4193Y-3.4941
X4.4193Y-3.5728
X4.4193Y-3.6713
T5
X4.239Y-3.9567
X4.339Y-3.9567
X4.6331Y-3.1433
X4.6331Y-3.2433
X4.6331Y-3.3433
X4.6331Y-3.4433
X4.6331Y-3.5433
X4.6331Y-3.6433
X4.6331Y-3.7433
X4.6331Y-3.8433
X4.6331Y-3.9433
X4.7331Y-3.9433
X4.8331Y-3.9433
X4.9331Y-3.9433
X5.0331Y-3.9433
X5.1331Y-3.9433
X5.2331Y-3.1433
X5.2331Y-3.2433
X5.2331Y-3.3433
X5.2331Y-3.4433
X5.2331Y-3.5433
X5.2331Y-3.6433
X5.2331Y-3.7433
X5.2331Y-3.8433
X5.2331Y-3.9433
X5.3791Y-3.1102
X5.4528Y-3.9567
X5.4791Y-3.1102
X5.5528Y-3.9567
X5.5791Y-3.1102
X5.6528Y-3.9567
X5.6791Y-3.1102
T6
X4.2094Y-3.2748
X4.2094Y-3.7921
X4.4331Y-3.2748
X4.4331Y-3.7921
T5
G00X5.624Y-3.2461
M15
G01X5.6831Y-3.2461
M16
G05
G00X5.624Y-3.7854
M15
G01X5.6831Y-3.7854
M16
G05
G00X5.685Y-3.5551
M15
G01X5.685Y-3.4764
M16
G05
M30
