G04 #@! TF.GenerationSoftware,KiCad,Pcbnew,8.0.4*
G04 #@! TF.CreationDate,2024-12-08T01:13:34+02:00*
G04 #@! TF.ProjectId,usb2ps2,75736232-7073-4322-9e6b-696361645f70,1.2*
G04 #@! TF.SameCoordinates,Original*
G04 #@! TF.FileFunction,Legend,Top*
G04 #@! TF.FilePolarity,Positive*
%FSLAX46Y46*%
G04 Gerber Fmt 4.6, Leading zero omitted, Abs format (unit mm)*
G04 Created by KiCad (PCBNEW 8.0.4) date 2024-12-08 01:13:34*
%MOMM*%
%LPD*%
G01*
G04 APERTURE LIST*
%ADD10C,0.150000*%
%ADD11C,0.130000*%
%ADD12C,0.120000*%
%ADD13C,0.100000*%
G04 APERTURE END LIST*
D10*
X136039580Y-82700476D02*
X136087200Y-82748095D01*
X136087200Y-82748095D02*
X136134819Y-82890952D01*
X136134819Y-82890952D02*
X136134819Y-82986190D01*
X136134819Y-82986190D02*
X136087200Y-83129047D01*
X136087200Y-83129047D02*
X135991961Y-83224285D01*
X135991961Y-83224285D02*
X135896723Y-83271904D01*
X135896723Y-83271904D02*
X135706247Y-83319523D01*
X135706247Y-83319523D02*
X135563390Y-83319523D01*
X135563390Y-83319523D02*
X135372914Y-83271904D01*
X135372914Y-83271904D02*
X135277676Y-83224285D01*
X135277676Y-83224285D02*
X135182438Y-83129047D01*
X135182438Y-83129047D02*
X135134819Y-82986190D01*
X135134819Y-82986190D02*
X135134819Y-82890952D01*
X135134819Y-82890952D02*
X135182438Y-82748095D01*
X135182438Y-82748095D02*
X135230057Y-82700476D01*
X136134819Y-82271904D02*
X135134819Y-82271904D01*
X135134819Y-82271904D02*
X136134819Y-81700476D01*
X136134819Y-81700476D02*
X135134819Y-81700476D01*
X135134819Y-81319523D02*
X135134819Y-80700476D01*
X135134819Y-80700476D02*
X135515771Y-81033809D01*
X135515771Y-81033809D02*
X135515771Y-80890952D01*
X135515771Y-80890952D02*
X135563390Y-80795714D01*
X135563390Y-80795714D02*
X135611009Y-80748095D01*
X135611009Y-80748095D02*
X135706247Y-80700476D01*
X135706247Y-80700476D02*
X135944342Y-80700476D01*
X135944342Y-80700476D02*
X136039580Y-80748095D01*
X136039580Y-80748095D02*
X136087200Y-80795714D01*
X136087200Y-80795714D02*
X136134819Y-80890952D01*
X136134819Y-80890952D02*
X136134819Y-81176666D01*
X136134819Y-81176666D02*
X136087200Y-81271904D01*
X136087200Y-81271904D02*
X136039580Y-81319523D01*
X105699580Y-101190476D02*
X105747200Y-101238095D01*
X105747200Y-101238095D02*
X105794819Y-101380952D01*
X105794819Y-101380952D02*
X105794819Y-101476190D01*
X105794819Y-101476190D02*
X105747200Y-101619047D01*
X105747200Y-101619047D02*
X105651961Y-101714285D01*
X105651961Y-101714285D02*
X105556723Y-101761904D01*
X105556723Y-101761904D02*
X105366247Y-101809523D01*
X105366247Y-101809523D02*
X105223390Y-101809523D01*
X105223390Y-101809523D02*
X105032914Y-101761904D01*
X105032914Y-101761904D02*
X104937676Y-101714285D01*
X104937676Y-101714285D02*
X104842438Y-101619047D01*
X104842438Y-101619047D02*
X104794819Y-101476190D01*
X104794819Y-101476190D02*
X104794819Y-101380952D01*
X104794819Y-101380952D02*
X104842438Y-101238095D01*
X104842438Y-101238095D02*
X104890057Y-101190476D01*
X105794819Y-100761904D02*
X104794819Y-100761904D01*
X104794819Y-100761904D02*
X105794819Y-100190476D01*
X105794819Y-100190476D02*
X104794819Y-100190476D01*
X105794819Y-99190476D02*
X105794819Y-99761904D01*
X105794819Y-99476190D02*
X104794819Y-99476190D01*
X104794819Y-99476190D02*
X104937676Y-99571428D01*
X104937676Y-99571428D02*
X105032914Y-99666666D01*
X105032914Y-99666666D02*
X105080533Y-99761904D01*
X136529580Y-101190476D02*
X136577200Y-101238095D01*
X136577200Y-101238095D02*
X136624819Y-101380952D01*
X136624819Y-101380952D02*
X136624819Y-101476190D01*
X136624819Y-101476190D02*
X136577200Y-101619047D01*
X136577200Y-101619047D02*
X136481961Y-101714285D01*
X136481961Y-101714285D02*
X136386723Y-101761904D01*
X136386723Y-101761904D02*
X136196247Y-101809523D01*
X136196247Y-101809523D02*
X136053390Y-101809523D01*
X136053390Y-101809523D02*
X135862914Y-101761904D01*
X135862914Y-101761904D02*
X135767676Y-101714285D01*
X135767676Y-101714285D02*
X135672438Y-101619047D01*
X135672438Y-101619047D02*
X135624819Y-101476190D01*
X135624819Y-101476190D02*
X135624819Y-101380952D01*
X135624819Y-101380952D02*
X135672438Y-101238095D01*
X135672438Y-101238095D02*
X135720057Y-101190476D01*
X136624819Y-100761904D02*
X135624819Y-100761904D01*
X135624819Y-100761904D02*
X136624819Y-100190476D01*
X136624819Y-100190476D02*
X135624819Y-100190476D01*
X135720057Y-99761904D02*
X135672438Y-99714285D01*
X135672438Y-99714285D02*
X135624819Y-99619047D01*
X135624819Y-99619047D02*
X135624819Y-99380952D01*
X135624819Y-99380952D02*
X135672438Y-99285714D01*
X135672438Y-99285714D02*
X135720057Y-99238095D01*
X135720057Y-99238095D02*
X135815295Y-99190476D01*
X135815295Y-99190476D02*
X135910533Y-99190476D01*
X135910533Y-99190476D02*
X136053390Y-99238095D01*
X136053390Y-99238095D02*
X136624819Y-99809523D01*
X136624819Y-99809523D02*
X136624819Y-99190476D01*
X106374819Y-91148094D02*
X107184342Y-91148094D01*
X107184342Y-91148094D02*
X107279580Y-91100475D01*
X107279580Y-91100475D02*
X107327200Y-91052856D01*
X107327200Y-91052856D02*
X107374819Y-90957618D01*
X107374819Y-90957618D02*
X107374819Y-90767142D01*
X107374819Y-90767142D02*
X107327200Y-90671904D01*
X107327200Y-90671904D02*
X107279580Y-90624285D01*
X107279580Y-90624285D02*
X107184342Y-90576666D01*
X107184342Y-90576666D02*
X106374819Y-90576666D01*
X107327200Y-90148094D02*
X107374819Y-90005237D01*
X107374819Y-90005237D02*
X107374819Y-89767142D01*
X107374819Y-89767142D02*
X107327200Y-89671904D01*
X107327200Y-89671904D02*
X107279580Y-89624285D01*
X107279580Y-89624285D02*
X107184342Y-89576666D01*
X107184342Y-89576666D02*
X107089104Y-89576666D01*
X107089104Y-89576666D02*
X106993866Y-89624285D01*
X106993866Y-89624285D02*
X106946247Y-89671904D01*
X106946247Y-89671904D02*
X106898628Y-89767142D01*
X106898628Y-89767142D02*
X106851009Y-89957618D01*
X106851009Y-89957618D02*
X106803390Y-90052856D01*
X106803390Y-90052856D02*
X106755771Y-90100475D01*
X106755771Y-90100475D02*
X106660533Y-90148094D01*
X106660533Y-90148094D02*
X106565295Y-90148094D01*
X106565295Y-90148094D02*
X106470057Y-90100475D01*
X106470057Y-90100475D02*
X106422438Y-90052856D01*
X106422438Y-90052856D02*
X106374819Y-89957618D01*
X106374819Y-89957618D02*
X106374819Y-89719523D01*
X106374819Y-89719523D02*
X106422438Y-89576666D01*
X106851009Y-88814761D02*
X106898628Y-88671904D01*
X106898628Y-88671904D02*
X106946247Y-88624285D01*
X106946247Y-88624285D02*
X107041485Y-88576666D01*
X107041485Y-88576666D02*
X107184342Y-88576666D01*
X107184342Y-88576666D02*
X107279580Y-88624285D01*
X107279580Y-88624285D02*
X107327200Y-88671904D01*
X107327200Y-88671904D02*
X107374819Y-88767142D01*
X107374819Y-88767142D02*
X107374819Y-89148094D01*
X107374819Y-89148094D02*
X106374819Y-89148094D01*
X106374819Y-89148094D02*
X106374819Y-88814761D01*
X106374819Y-88814761D02*
X106422438Y-88719523D01*
X106422438Y-88719523D02*
X106470057Y-88671904D01*
X106470057Y-88671904D02*
X106565295Y-88624285D01*
X106565295Y-88624285D02*
X106660533Y-88624285D01*
X106660533Y-88624285D02*
X106755771Y-88671904D01*
X106755771Y-88671904D02*
X106803390Y-88719523D01*
X106803390Y-88719523D02*
X106851009Y-88814761D01*
X106851009Y-88814761D02*
X106851009Y-89148094D01*
X107374819Y-87624285D02*
X107374819Y-88195713D01*
X107374819Y-87909999D02*
X106374819Y-87909999D01*
X106374819Y-87909999D02*
X106517676Y-88005237D01*
X106517676Y-88005237D02*
X106612914Y-88100475D01*
X106612914Y-88100475D02*
X106660533Y-88195713D01*
D11*
X122613335Y-91383332D02*
X122232382Y-91649999D01*
X122613335Y-91840475D02*
X121813335Y-91840475D01*
X121813335Y-91840475D02*
X121813335Y-91535713D01*
X121813335Y-91535713D02*
X121851430Y-91459523D01*
X121851430Y-91459523D02*
X121889525Y-91421428D01*
X121889525Y-91421428D02*
X121965716Y-91383332D01*
X121965716Y-91383332D02*
X122080001Y-91383332D01*
X122080001Y-91383332D02*
X122156192Y-91421428D01*
X122156192Y-91421428D02*
X122194287Y-91459523D01*
X122194287Y-91459523D02*
X122232382Y-91535713D01*
X122232382Y-91535713D02*
X122232382Y-91840475D01*
X121813335Y-91116666D02*
X121813335Y-90621428D01*
X121813335Y-90621428D02*
X122118097Y-90888094D01*
X122118097Y-90888094D02*
X122118097Y-90773809D01*
X122118097Y-90773809D02*
X122156192Y-90697618D01*
X122156192Y-90697618D02*
X122194287Y-90659523D01*
X122194287Y-90659523D02*
X122270478Y-90621428D01*
X122270478Y-90621428D02*
X122460954Y-90621428D01*
X122460954Y-90621428D02*
X122537144Y-90659523D01*
X122537144Y-90659523D02*
X122575240Y-90697618D01*
X122575240Y-90697618D02*
X122613335Y-90773809D01*
X122613335Y-90773809D02*
X122613335Y-91002380D01*
X122613335Y-91002380D02*
X122575240Y-91078571D01*
X122575240Y-91078571D02*
X122537144Y-91116666D01*
X122363335Y-85133332D02*
X121982382Y-85399999D01*
X122363335Y-85590475D02*
X121563335Y-85590475D01*
X121563335Y-85590475D02*
X121563335Y-85285713D01*
X121563335Y-85285713D02*
X121601430Y-85209523D01*
X121601430Y-85209523D02*
X121639525Y-85171428D01*
X121639525Y-85171428D02*
X121715716Y-85133332D01*
X121715716Y-85133332D02*
X121830001Y-85133332D01*
X121830001Y-85133332D02*
X121906192Y-85171428D01*
X121906192Y-85171428D02*
X121944287Y-85209523D01*
X121944287Y-85209523D02*
X121982382Y-85285713D01*
X121982382Y-85285713D02*
X121982382Y-85590475D01*
X121639525Y-84828571D02*
X121601430Y-84790475D01*
X121601430Y-84790475D02*
X121563335Y-84714285D01*
X121563335Y-84714285D02*
X121563335Y-84523809D01*
X121563335Y-84523809D02*
X121601430Y-84447618D01*
X121601430Y-84447618D02*
X121639525Y-84409523D01*
X121639525Y-84409523D02*
X121715716Y-84371428D01*
X121715716Y-84371428D02*
X121791906Y-84371428D01*
X121791906Y-84371428D02*
X121906192Y-84409523D01*
X121906192Y-84409523D02*
X122363335Y-84866666D01*
X122363335Y-84866666D02*
X122363335Y-84371428D01*
X129363335Y-85133332D02*
X128982382Y-85399999D01*
X129363335Y-85590475D02*
X128563335Y-85590475D01*
X128563335Y-85590475D02*
X128563335Y-85285713D01*
X128563335Y-85285713D02*
X128601430Y-85209523D01*
X128601430Y-85209523D02*
X128639525Y-85171428D01*
X128639525Y-85171428D02*
X128715716Y-85133332D01*
X128715716Y-85133332D02*
X128830001Y-85133332D01*
X128830001Y-85133332D02*
X128906192Y-85171428D01*
X128906192Y-85171428D02*
X128944287Y-85209523D01*
X128944287Y-85209523D02*
X128982382Y-85285713D01*
X128982382Y-85285713D02*
X128982382Y-85590475D01*
X129363335Y-84371428D02*
X129363335Y-84828571D01*
X129363335Y-84599999D02*
X128563335Y-84599999D01*
X128563335Y-84599999D02*
X128677620Y-84676190D01*
X128677620Y-84676190D02*
X128753811Y-84752380D01*
X128753811Y-84752380D02*
X128791906Y-84828571D01*
X111616667Y-78387144D02*
X111578571Y-78425240D01*
X111578571Y-78425240D02*
X111464286Y-78463335D01*
X111464286Y-78463335D02*
X111388095Y-78463335D01*
X111388095Y-78463335D02*
X111273809Y-78425240D01*
X111273809Y-78425240D02*
X111197619Y-78349049D01*
X111197619Y-78349049D02*
X111159524Y-78272859D01*
X111159524Y-78272859D02*
X111121428Y-78120478D01*
X111121428Y-78120478D02*
X111121428Y-78006192D01*
X111121428Y-78006192D02*
X111159524Y-77853811D01*
X111159524Y-77853811D02*
X111197619Y-77777620D01*
X111197619Y-77777620D02*
X111273809Y-77701430D01*
X111273809Y-77701430D02*
X111388095Y-77663335D01*
X111388095Y-77663335D02*
X111464286Y-77663335D01*
X111464286Y-77663335D02*
X111578571Y-77701430D01*
X111578571Y-77701430D02*
X111616667Y-77739525D01*
X111921428Y-77739525D02*
X111959524Y-77701430D01*
X111959524Y-77701430D02*
X112035714Y-77663335D01*
X112035714Y-77663335D02*
X112226190Y-77663335D01*
X112226190Y-77663335D02*
X112302381Y-77701430D01*
X112302381Y-77701430D02*
X112340476Y-77739525D01*
X112340476Y-77739525D02*
X112378571Y-77815716D01*
X112378571Y-77815716D02*
X112378571Y-77891906D01*
X112378571Y-77891906D02*
X112340476Y-78006192D01*
X112340476Y-78006192D02*
X111883333Y-78463335D01*
X111883333Y-78463335D02*
X112378571Y-78463335D01*
X106866667Y-78387144D02*
X106828571Y-78425240D01*
X106828571Y-78425240D02*
X106714286Y-78463335D01*
X106714286Y-78463335D02*
X106638095Y-78463335D01*
X106638095Y-78463335D02*
X106523809Y-78425240D01*
X106523809Y-78425240D02*
X106447619Y-78349049D01*
X106447619Y-78349049D02*
X106409524Y-78272859D01*
X106409524Y-78272859D02*
X106371428Y-78120478D01*
X106371428Y-78120478D02*
X106371428Y-78006192D01*
X106371428Y-78006192D02*
X106409524Y-77853811D01*
X106409524Y-77853811D02*
X106447619Y-77777620D01*
X106447619Y-77777620D02*
X106523809Y-77701430D01*
X106523809Y-77701430D02*
X106638095Y-77663335D01*
X106638095Y-77663335D02*
X106714286Y-77663335D01*
X106714286Y-77663335D02*
X106828571Y-77701430D01*
X106828571Y-77701430D02*
X106866667Y-77739525D01*
X107628571Y-78463335D02*
X107171428Y-78463335D01*
X107400000Y-78463335D02*
X107400000Y-77663335D01*
X107400000Y-77663335D02*
X107323809Y-77777620D01*
X107323809Y-77777620D02*
X107247619Y-77853811D01*
X107247619Y-77853811D02*
X107171428Y-77891906D01*
X124713335Y-91283332D02*
X124332382Y-91549999D01*
X124713335Y-91740475D02*
X123913335Y-91740475D01*
X123913335Y-91740475D02*
X123913335Y-91435713D01*
X123913335Y-91435713D02*
X123951430Y-91359523D01*
X123951430Y-91359523D02*
X123989525Y-91321428D01*
X123989525Y-91321428D02*
X124065716Y-91283332D01*
X124065716Y-91283332D02*
X124180001Y-91283332D01*
X124180001Y-91283332D02*
X124256192Y-91321428D01*
X124256192Y-91321428D02*
X124294287Y-91359523D01*
X124294287Y-91359523D02*
X124332382Y-91435713D01*
X124332382Y-91435713D02*
X124332382Y-91740475D01*
X124256192Y-90826190D02*
X124218097Y-90902380D01*
X124218097Y-90902380D02*
X124180001Y-90940475D01*
X124180001Y-90940475D02*
X124103811Y-90978571D01*
X124103811Y-90978571D02*
X124065716Y-90978571D01*
X124065716Y-90978571D02*
X123989525Y-90940475D01*
X123989525Y-90940475D02*
X123951430Y-90902380D01*
X123951430Y-90902380D02*
X123913335Y-90826190D01*
X123913335Y-90826190D02*
X123913335Y-90673809D01*
X123913335Y-90673809D02*
X123951430Y-90597618D01*
X123951430Y-90597618D02*
X123989525Y-90559523D01*
X123989525Y-90559523D02*
X124065716Y-90521428D01*
X124065716Y-90521428D02*
X124103811Y-90521428D01*
X124103811Y-90521428D02*
X124180001Y-90559523D01*
X124180001Y-90559523D02*
X124218097Y-90597618D01*
X124218097Y-90597618D02*
X124256192Y-90673809D01*
X124256192Y-90673809D02*
X124256192Y-90826190D01*
X124256192Y-90826190D02*
X124294287Y-90902380D01*
X124294287Y-90902380D02*
X124332382Y-90940475D01*
X124332382Y-90940475D02*
X124408573Y-90978571D01*
X124408573Y-90978571D02*
X124560954Y-90978571D01*
X124560954Y-90978571D02*
X124637144Y-90940475D01*
X124637144Y-90940475D02*
X124675240Y-90902380D01*
X124675240Y-90902380D02*
X124713335Y-90826190D01*
X124713335Y-90826190D02*
X124713335Y-90673809D01*
X124713335Y-90673809D02*
X124675240Y-90597618D01*
X124675240Y-90597618D02*
X124637144Y-90559523D01*
X124637144Y-90559523D02*
X124560954Y-90521428D01*
X124560954Y-90521428D02*
X124408573Y-90521428D01*
X124408573Y-90521428D02*
X124332382Y-90559523D01*
X124332382Y-90559523D02*
X124294287Y-90597618D01*
X124294287Y-90597618D02*
X124256192Y-90673809D01*
X127063335Y-91333332D02*
X126682382Y-91599999D01*
X127063335Y-91790475D02*
X126263335Y-91790475D01*
X126263335Y-91790475D02*
X126263335Y-91485713D01*
X126263335Y-91485713D02*
X126301430Y-91409523D01*
X126301430Y-91409523D02*
X126339525Y-91371428D01*
X126339525Y-91371428D02*
X126415716Y-91333332D01*
X126415716Y-91333332D02*
X126530001Y-91333332D01*
X126530001Y-91333332D02*
X126606192Y-91371428D01*
X126606192Y-91371428D02*
X126644287Y-91409523D01*
X126644287Y-91409523D02*
X126682382Y-91485713D01*
X126682382Y-91485713D02*
X126682382Y-91790475D01*
X126263335Y-90647618D02*
X126263335Y-90799999D01*
X126263335Y-90799999D02*
X126301430Y-90876190D01*
X126301430Y-90876190D02*
X126339525Y-90914285D01*
X126339525Y-90914285D02*
X126453811Y-90990475D01*
X126453811Y-90990475D02*
X126606192Y-91028571D01*
X126606192Y-91028571D02*
X126910954Y-91028571D01*
X126910954Y-91028571D02*
X126987144Y-90990475D01*
X126987144Y-90990475D02*
X127025240Y-90952380D01*
X127025240Y-90952380D02*
X127063335Y-90876190D01*
X127063335Y-90876190D02*
X127063335Y-90723809D01*
X127063335Y-90723809D02*
X127025240Y-90647618D01*
X127025240Y-90647618D02*
X126987144Y-90609523D01*
X126987144Y-90609523D02*
X126910954Y-90571428D01*
X126910954Y-90571428D02*
X126720478Y-90571428D01*
X126720478Y-90571428D02*
X126644287Y-90609523D01*
X126644287Y-90609523D02*
X126606192Y-90647618D01*
X126606192Y-90647618D02*
X126568097Y-90723809D01*
X126568097Y-90723809D02*
X126568097Y-90876190D01*
X126568097Y-90876190D02*
X126606192Y-90952380D01*
X126606192Y-90952380D02*
X126644287Y-90990475D01*
X126644287Y-90990475D02*
X126720478Y-91028571D01*
D10*
X138494819Y-90504285D02*
X137494819Y-90504285D01*
X137494819Y-90504285D02*
X137494819Y-90123333D01*
X137494819Y-90123333D02*
X137542438Y-90028095D01*
X137542438Y-90028095D02*
X137590057Y-89980476D01*
X137590057Y-89980476D02*
X137685295Y-89932857D01*
X137685295Y-89932857D02*
X137828152Y-89932857D01*
X137828152Y-89932857D02*
X137923390Y-89980476D01*
X137923390Y-89980476D02*
X137971009Y-90028095D01*
X137971009Y-90028095D02*
X138018628Y-90123333D01*
X138018628Y-90123333D02*
X138018628Y-90504285D01*
X138447200Y-89551904D02*
X138494819Y-89409047D01*
X138494819Y-89409047D02*
X138494819Y-89170952D01*
X138494819Y-89170952D02*
X138447200Y-89075714D01*
X138447200Y-89075714D02*
X138399580Y-89028095D01*
X138399580Y-89028095D02*
X138304342Y-88980476D01*
X138304342Y-88980476D02*
X138209104Y-88980476D01*
X138209104Y-88980476D02*
X138113866Y-89028095D01*
X138113866Y-89028095D02*
X138066247Y-89075714D01*
X138066247Y-89075714D02*
X138018628Y-89170952D01*
X138018628Y-89170952D02*
X137971009Y-89361428D01*
X137971009Y-89361428D02*
X137923390Y-89456666D01*
X137923390Y-89456666D02*
X137875771Y-89504285D01*
X137875771Y-89504285D02*
X137780533Y-89551904D01*
X137780533Y-89551904D02*
X137685295Y-89551904D01*
X137685295Y-89551904D02*
X137590057Y-89504285D01*
X137590057Y-89504285D02*
X137542438Y-89456666D01*
X137542438Y-89456666D02*
X137494819Y-89361428D01*
X137494819Y-89361428D02*
X137494819Y-89123333D01*
X137494819Y-89123333D02*
X137542438Y-88980476D01*
X138494819Y-88028095D02*
X138494819Y-88599523D01*
X138494819Y-88313809D02*
X137494819Y-88313809D01*
X137494819Y-88313809D02*
X137637676Y-88409047D01*
X137637676Y-88409047D02*
X137732914Y-88504285D01*
X137732914Y-88504285D02*
X137780533Y-88599523D01*
D11*
X129363335Y-91383332D02*
X128982382Y-91649999D01*
X129363335Y-91840475D02*
X128563335Y-91840475D01*
X128563335Y-91840475D02*
X128563335Y-91535713D01*
X128563335Y-91535713D02*
X128601430Y-91459523D01*
X128601430Y-91459523D02*
X128639525Y-91421428D01*
X128639525Y-91421428D02*
X128715716Y-91383332D01*
X128715716Y-91383332D02*
X128830001Y-91383332D01*
X128830001Y-91383332D02*
X128906192Y-91421428D01*
X128906192Y-91421428D02*
X128944287Y-91459523D01*
X128944287Y-91459523D02*
X128982382Y-91535713D01*
X128982382Y-91535713D02*
X128982382Y-91840475D01*
X128563335Y-90659523D02*
X128563335Y-91040475D01*
X128563335Y-91040475D02*
X128944287Y-91078571D01*
X128944287Y-91078571D02*
X128906192Y-91040475D01*
X128906192Y-91040475D02*
X128868097Y-90964285D01*
X128868097Y-90964285D02*
X128868097Y-90773809D01*
X128868097Y-90773809D02*
X128906192Y-90697618D01*
X128906192Y-90697618D02*
X128944287Y-90659523D01*
X128944287Y-90659523D02*
X129020478Y-90621428D01*
X129020478Y-90621428D02*
X129210954Y-90621428D01*
X129210954Y-90621428D02*
X129287144Y-90659523D01*
X129287144Y-90659523D02*
X129325240Y-90697618D01*
X129325240Y-90697618D02*
X129363335Y-90773809D01*
X129363335Y-90773809D02*
X129363335Y-90964285D01*
X129363335Y-90964285D02*
X129325240Y-91040475D01*
X129325240Y-91040475D02*
X129287144Y-91078571D01*
X124713335Y-85083332D02*
X124332382Y-85349999D01*
X124713335Y-85540475D02*
X123913335Y-85540475D01*
X123913335Y-85540475D02*
X123913335Y-85235713D01*
X123913335Y-85235713D02*
X123951430Y-85159523D01*
X123951430Y-85159523D02*
X123989525Y-85121428D01*
X123989525Y-85121428D02*
X124065716Y-85083332D01*
X124065716Y-85083332D02*
X124180001Y-85083332D01*
X124180001Y-85083332D02*
X124256192Y-85121428D01*
X124256192Y-85121428D02*
X124294287Y-85159523D01*
X124294287Y-85159523D02*
X124332382Y-85235713D01*
X124332382Y-85235713D02*
X124332382Y-85540475D01*
X123913335Y-84816666D02*
X123913335Y-84283332D01*
X123913335Y-84283332D02*
X124713335Y-84626190D01*
X127113335Y-85233332D02*
X126732382Y-85499999D01*
X127113335Y-85690475D02*
X126313335Y-85690475D01*
X126313335Y-85690475D02*
X126313335Y-85385713D01*
X126313335Y-85385713D02*
X126351430Y-85309523D01*
X126351430Y-85309523D02*
X126389525Y-85271428D01*
X126389525Y-85271428D02*
X126465716Y-85233332D01*
X126465716Y-85233332D02*
X126580001Y-85233332D01*
X126580001Y-85233332D02*
X126656192Y-85271428D01*
X126656192Y-85271428D02*
X126694287Y-85309523D01*
X126694287Y-85309523D02*
X126732382Y-85385713D01*
X126732382Y-85385713D02*
X126732382Y-85690475D01*
X126580001Y-84547618D02*
X127113335Y-84547618D01*
X126275240Y-84738094D02*
X126846668Y-84928571D01*
X126846668Y-84928571D02*
X126846668Y-84433332D01*
X122163335Y-97390475D02*
X121363335Y-97390475D01*
X121363335Y-97390475D02*
X121363335Y-97199999D01*
X121363335Y-97199999D02*
X121401430Y-97085713D01*
X121401430Y-97085713D02*
X121477620Y-97009523D01*
X121477620Y-97009523D02*
X121553811Y-96971428D01*
X121553811Y-96971428D02*
X121706192Y-96933332D01*
X121706192Y-96933332D02*
X121820478Y-96933332D01*
X121820478Y-96933332D02*
X121972859Y-96971428D01*
X121972859Y-96971428D02*
X122049049Y-97009523D01*
X122049049Y-97009523D02*
X122125240Y-97085713D01*
X122125240Y-97085713D02*
X122163335Y-97199999D01*
X122163335Y-97199999D02*
X122163335Y-97390475D01*
X121363335Y-96666666D02*
X121363335Y-96171428D01*
X121363335Y-96171428D02*
X121668097Y-96438094D01*
X121668097Y-96438094D02*
X121668097Y-96323809D01*
X121668097Y-96323809D02*
X121706192Y-96247618D01*
X121706192Y-96247618D02*
X121744287Y-96209523D01*
X121744287Y-96209523D02*
X121820478Y-96171428D01*
X121820478Y-96171428D02*
X122010954Y-96171428D01*
X122010954Y-96171428D02*
X122087144Y-96209523D01*
X122087144Y-96209523D02*
X122125240Y-96247618D01*
X122125240Y-96247618D02*
X122163335Y-96323809D01*
X122163335Y-96323809D02*
X122163335Y-96552380D01*
X122163335Y-96552380D02*
X122125240Y-96628571D01*
X122125240Y-96628571D02*
X122087144Y-96666666D01*
X129363335Y-97365475D02*
X128563335Y-97365475D01*
X128563335Y-97365475D02*
X128563335Y-97174999D01*
X128563335Y-97174999D02*
X128601430Y-97060713D01*
X128601430Y-97060713D02*
X128677620Y-96984523D01*
X128677620Y-96984523D02*
X128753811Y-96946428D01*
X128753811Y-96946428D02*
X128906192Y-96908332D01*
X128906192Y-96908332D02*
X129020478Y-96908332D01*
X129020478Y-96908332D02*
X129172859Y-96946428D01*
X129172859Y-96946428D02*
X129249049Y-96984523D01*
X129249049Y-96984523D02*
X129325240Y-97060713D01*
X129325240Y-97060713D02*
X129363335Y-97174999D01*
X129363335Y-97174999D02*
X129363335Y-97365475D01*
X128639525Y-96603571D02*
X128601430Y-96565475D01*
X128601430Y-96565475D02*
X128563335Y-96489285D01*
X128563335Y-96489285D02*
X128563335Y-96298809D01*
X128563335Y-96298809D02*
X128601430Y-96222618D01*
X128601430Y-96222618D02*
X128639525Y-96184523D01*
X128639525Y-96184523D02*
X128715716Y-96146428D01*
X128715716Y-96146428D02*
X128791906Y-96146428D01*
X128791906Y-96146428D02*
X128906192Y-96184523D01*
X128906192Y-96184523D02*
X129363335Y-96641666D01*
X129363335Y-96641666D02*
X129363335Y-96146428D01*
X124713335Y-97365475D02*
X123913335Y-97365475D01*
X123913335Y-97365475D02*
X123913335Y-97174999D01*
X123913335Y-97174999D02*
X123951430Y-97060713D01*
X123951430Y-97060713D02*
X124027620Y-96984523D01*
X124027620Y-96984523D02*
X124103811Y-96946428D01*
X124103811Y-96946428D02*
X124256192Y-96908332D01*
X124256192Y-96908332D02*
X124370478Y-96908332D01*
X124370478Y-96908332D02*
X124522859Y-96946428D01*
X124522859Y-96946428D02*
X124599049Y-96984523D01*
X124599049Y-96984523D02*
X124675240Y-97060713D01*
X124675240Y-97060713D02*
X124713335Y-97174999D01*
X124713335Y-97174999D02*
X124713335Y-97365475D01*
X124713335Y-96146428D02*
X124713335Y-96603571D01*
X124713335Y-96374999D02*
X123913335Y-96374999D01*
X123913335Y-96374999D02*
X124027620Y-96451190D01*
X124027620Y-96451190D02*
X124103811Y-96527380D01*
X124103811Y-96527380D02*
X124141906Y-96603571D01*
X127103335Y-97330475D02*
X126303335Y-97330475D01*
X126303335Y-97330475D02*
X126303335Y-97139999D01*
X126303335Y-97139999D02*
X126341430Y-97025713D01*
X126341430Y-97025713D02*
X126417620Y-96949523D01*
X126417620Y-96949523D02*
X126493811Y-96911428D01*
X126493811Y-96911428D02*
X126646192Y-96873332D01*
X126646192Y-96873332D02*
X126760478Y-96873332D01*
X126760478Y-96873332D02*
X126912859Y-96911428D01*
X126912859Y-96911428D02*
X126989049Y-96949523D01*
X126989049Y-96949523D02*
X127065240Y-97025713D01*
X127065240Y-97025713D02*
X127103335Y-97139999D01*
X127103335Y-97139999D02*
X127103335Y-97330475D01*
X126570001Y-96187618D02*
X127103335Y-96187618D01*
X126265240Y-96378094D02*
X126836668Y-96568571D01*
X126836668Y-96568571D02*
X126836668Y-96073332D01*
D12*
X145580000Y-77670000D02*
X135300000Y-77670000D01*
X145580000Y-77670000D02*
X145580000Y-80340917D01*
X135300000Y-77670000D02*
X135300000Y-80330000D01*
X145580000Y-80340917D02*
X135299995Y-80340000D01*
X106340000Y-101830000D02*
X106340000Y-99169831D01*
X108940000Y-101830000D02*
X106340000Y-101830000D01*
X108940000Y-101830000D02*
X111540000Y-101830000D01*
X111540000Y-101830000D02*
X111540000Y-99170000D01*
X106340000Y-99169831D02*
X111540000Y-99170000D01*
X137250000Y-101830000D02*
X144910000Y-101830000D01*
X137250000Y-101830000D02*
X137250000Y-99170000D01*
X144910000Y-101830000D02*
X144910000Y-99170000D01*
X137250000Y-99170000D02*
X144910000Y-99170000D01*
X98050000Y-96380000D02*
X104900000Y-96380000D01*
X104900000Y-83120000D02*
X98050000Y-83120000D01*
X113700000Y-94650000D02*
X113700000Y-84850000D01*
X121515000Y-88977064D02*
X121515000Y-88522936D01*
X122985000Y-88977064D02*
X122985000Y-88522936D01*
X122735000Y-82272936D02*
X122735000Y-82727064D01*
X121265000Y-82272936D02*
X121265000Y-82727064D01*
X128265000Y-82727064D02*
X128265000Y-82272936D01*
X129735000Y-82727064D02*
X129735000Y-82272936D01*
X111522936Y-79015000D02*
X111977064Y-79015000D01*
X111522936Y-80485000D02*
X111977064Y-80485000D01*
X106772936Y-79015000D02*
X107227064Y-79015000D01*
X106772936Y-80485000D02*
X107227064Y-80485000D01*
D13*
X116300000Y-78750000D02*
X116300000Y-79000000D01*
X116300000Y-80950000D02*
X116300000Y-81200000D01*
X116300000Y-83475000D02*
X116300000Y-83725000D01*
X116300000Y-86050000D02*
X116300000Y-86300000D01*
X116300000Y-88525000D02*
X116300000Y-88775000D01*
X116300000Y-91050000D02*
X116300000Y-91300000D01*
X116300000Y-93625000D02*
X116300000Y-93875000D01*
X116300000Y-96275000D02*
X116300000Y-96525000D01*
X116300000Y-98850000D02*
X116300000Y-99100000D01*
X116300000Y-101250000D02*
X116300000Y-101000000D01*
X116800000Y-78250000D02*
X133800000Y-78250000D01*
X116800000Y-101750000D02*
X119300000Y-101750000D01*
X133800000Y-101750000D02*
X131300000Y-101750000D01*
X134300000Y-78750000D02*
X134300000Y-79000000D01*
X134300000Y-80925000D02*
X134300000Y-81175000D01*
X134300000Y-83450000D02*
X134300000Y-83700000D01*
X134300000Y-86025000D02*
X134300000Y-86275000D01*
X134300000Y-88500000D02*
X134300000Y-88750000D01*
X134300000Y-91025000D02*
X134300000Y-91275000D01*
X134300000Y-93600000D02*
X134300000Y-93850000D01*
X134300000Y-96250000D02*
X134300000Y-96500000D01*
X134300000Y-98825000D02*
X134300000Y-99075000D01*
X134300000Y-101250000D02*
X134300000Y-101000000D01*
X116300000Y-78750000D02*
G75*
G02*
X116800000Y-78250000I500001J-1D01*
G01*
X116800000Y-101750000D02*
G75*
G02*
X116300000Y-101250000I1J500001D01*
G01*
X133800000Y-78250000D02*
G75*
G02*
X134300000Y-78750000I0J-500000D01*
G01*
X134300000Y-101250000D02*
G75*
G02*
X133800000Y-101750000I-500000J0D01*
G01*
D12*
X123565000Y-88522936D02*
X123565000Y-88977064D01*
X125035000Y-88522936D02*
X125035000Y-88977064D01*
X126015000Y-88522936D02*
X126015000Y-88977064D01*
X127485000Y-88522936D02*
X127485000Y-88977064D01*
X136350000Y-81200000D02*
X149350000Y-81200000D01*
X136350000Y-97400000D02*
X136350000Y-81200000D01*
X136350000Y-97400000D02*
X149350000Y-97400000D01*
X149350000Y-97400000D02*
X149350000Y-81200000D01*
X129735000Y-88977064D02*
X129735000Y-88522936D01*
X128265000Y-88977064D02*
X128265000Y-88522936D01*
X123515000Y-82727064D02*
X123515000Y-82272936D01*
X124985000Y-82727064D02*
X124985000Y-82272936D01*
X126015000Y-82272936D02*
X126015000Y-82727064D01*
X127485000Y-82272936D02*
X127485000Y-82727064D01*
X120840000Y-95960000D02*
X122760000Y-95960000D01*
X122760000Y-95960000D02*
X122760000Y-93100000D01*
X120840000Y-93100000D02*
X120840000Y-95960000D01*
X128040000Y-95935000D02*
X129960000Y-95935000D01*
X129960000Y-95935000D02*
X129960000Y-93075000D01*
X128040000Y-93075000D02*
X128040000Y-95935000D01*
X123390000Y-95935000D02*
X125310000Y-95935000D01*
X125310000Y-95935000D02*
X125310000Y-93075000D01*
X123390000Y-93075000D02*
X123390000Y-95935000D01*
X125790000Y-93075000D02*
X125790000Y-95935000D01*
X127710000Y-95935000D02*
X127710000Y-93075000D01*
X125790000Y-95935000D02*
X127710000Y-95935000D01*
M02*
