G04 #@! TF.GenerationSoftware,KiCad,Pcbnew,8.0.4*
G04 #@! TF.CreationDate,2024-12-08T01:13:34+02:00*
G04 #@! TF.ProjectId,usb2ps2,75736232-7073-4322-9e6b-696361645f70,1.2*
G04 #@! TF.SameCoordinates,Original*
G04 #@! TF.FileFunction,Copper,L1,Top*
G04 #@! TF.FilePolarity,Positive*
%FSLAX46Y46*%
G04 Gerber Fmt 4.6, Leading zero omitted, Abs format (unit mm)*
G04 Created by KiCad (PCBNEW 8.0.4) date 2024-12-08 01:13:34*
%MOMM*%
%LPD*%
G01*
G04 APERTURE LIST*
G04 Aperture macros list*
%AMRoundRect*
0 Rectangle with rounded corners*
0 $1 Rounding radius*
0 $2 $3 $4 $5 $6 $7 $8 $9 X,Y pos of 4 corners*
0 Add a 4 corners polygon primitive as box body*
4,1,4,$2,$3,$4,$5,$6,$7,$8,$9,$2,$3,0*
0 Add four circle primitives for the rounded corners*
1,1,$1+$1,$2,$3*
1,1,$1+$1,$4,$5*
1,1,$1+$1,$6,$7*
1,1,$1+$1,$8,$9*
0 Add four rect primitives between the rounded corners*
20,1,$1+$1,$2,$3,$4,$5,0*
20,1,$1+$1,$4,$5,$6,$7,0*
20,1,$1+$1,$6,$7,$8,$9,0*
20,1,$1+$1,$8,$9,$2,$3,0*%
G04 Aperture macros list end*
G04 #@! TA.AperFunction,ComponentPad*
%ADD10C,1.700000*%
G04 #@! TD*
G04 #@! TA.AperFunction,ComponentPad*
%ADD11O,1.700000X1.700000*%
G04 #@! TD*
G04 #@! TA.AperFunction,ComponentPad*
%ADD12R,1.700000X1.700000*%
G04 #@! TD*
G04 #@! TA.AperFunction,ComponentPad*
%ADD13R,1.500000X1.500000*%
G04 #@! TD*
G04 #@! TA.AperFunction,ComponentPad*
%ADD14C,1.500000*%
G04 #@! TD*
G04 #@! TA.AperFunction,ComponentPad*
%ADD15C,3.500000*%
G04 #@! TD*
G04 #@! TA.AperFunction,SMDPad,CuDef*
%ADD16RoundRect,0.250000X0.450000X-0.350000X0.450000X0.350000X-0.450000X0.350000X-0.450000X-0.350000X0*%
G04 #@! TD*
G04 #@! TA.AperFunction,SMDPad,CuDef*
%ADD17RoundRect,0.250000X-0.450000X0.350000X-0.450000X-0.350000X0.450000X-0.350000X0.450000X0.350000X0*%
G04 #@! TD*
G04 #@! TA.AperFunction,SMDPad,CuDef*
%ADD18RoundRect,0.250000X-0.350000X-0.450000X0.350000X-0.450000X0.350000X0.450000X-0.350000X0.450000X0*%
G04 #@! TD*
G04 #@! TA.AperFunction,ComponentPad*
%ADD19O,1.500000X1.500000*%
G04 #@! TD*
G04 #@! TA.AperFunction,SMDPad,CuDef*
%ADD20O,2.500000X1.500000*%
G04 #@! TD*
G04 #@! TA.AperFunction,SMDPad,CuDef*
%ADD21O,1.500000X2.500000*%
G04 #@! TD*
G04 #@! TA.AperFunction,ComponentPad*
%ADD22R,1.600000X1.600000*%
G04 #@! TD*
G04 #@! TA.AperFunction,ComponentPad*
%ADD23C,1.600000*%
G04 #@! TD*
G04 #@! TA.AperFunction,ComponentPad*
%ADD24O,3.500000X2.000000*%
G04 #@! TD*
G04 #@! TA.AperFunction,ComponentPad*
%ADD25O,2.000000X4.000000*%
G04 #@! TD*
G04 #@! TA.AperFunction,SMDPad,CuDef*
%ADD26RoundRect,0.250000X0.450000X-0.325000X0.450000X0.325000X-0.450000X0.325000X-0.450000X-0.325000X0*%
G04 #@! TD*
G04 #@! TA.AperFunction,ViaPad*
%ADD27C,0.600000*%
G04 #@! TD*
G04 #@! TA.AperFunction,ViaPad*
%ADD28C,0.800000*%
G04 #@! TD*
G04 #@! TA.AperFunction,Conductor*
%ADD29C,0.200000*%
G04 #@! TD*
G04 #@! TA.AperFunction,Conductor*
%ADD30C,0.800000*%
G04 #@! TD*
G04 APERTURE END LIST*
D10*
X144250000Y-79000000D03*
D11*
X141710000Y-79000000D03*
X139170000Y-79000000D03*
X136630000Y-79000000D03*
D10*
X107670000Y-100500000D03*
D11*
X110210000Y-100500000D03*
D10*
X138500000Y-100500000D03*
D11*
X141040000Y-100500000D03*
D12*
X143580000Y-100500000D03*
D13*
X109630000Y-86250000D03*
D14*
X109630000Y-88750000D03*
X109630000Y-90750000D03*
X109630000Y-93250000D03*
X112250000Y-86250000D03*
X112250000Y-88750000D03*
X112250000Y-90750000D03*
X112250000Y-93250000D03*
D15*
X106920000Y-83180000D03*
X106920000Y-96320000D03*
X112600000Y-83180000D03*
X112600000Y-96320000D03*
D16*
X122250000Y-89750000D03*
X122250000Y-87750000D03*
D17*
X122000000Y-81500000D03*
X122000000Y-83500000D03*
D16*
X129000000Y-83500000D03*
X129000000Y-81500000D03*
D18*
X110750000Y-79750000D03*
X112750000Y-79750000D03*
X106000000Y-79750000D03*
X108000000Y-79750000D03*
D19*
X132920000Y-79840000D03*
D20*
X133420000Y-79840000D03*
D19*
X132920000Y-82380000D03*
D20*
X133420000Y-82380000D03*
D19*
X132920000Y-84920000D03*
D20*
X133420000Y-84920000D03*
D19*
X132920000Y-87460000D03*
D20*
X133420000Y-87460000D03*
D19*
X132920000Y-90000000D03*
D20*
X133420000Y-90000000D03*
D19*
X132920000Y-92540000D03*
D20*
X133420000Y-92540000D03*
D19*
X132920000Y-95080000D03*
D20*
X133420000Y-95080000D03*
D19*
X132920000Y-97620000D03*
D20*
X133420000Y-97620000D03*
D19*
X132920000Y-100160000D03*
D20*
X133420000Y-100160000D03*
D19*
X130380000Y-100160000D03*
D21*
X130380000Y-100660000D03*
D19*
X127840000Y-100160000D03*
D21*
X127840000Y-100660000D03*
D19*
X125300000Y-100160000D03*
D21*
X125300000Y-100660000D03*
D19*
X122760000Y-100160000D03*
D21*
X122760000Y-100660000D03*
D19*
X120220000Y-100160000D03*
D21*
X120220000Y-100660000D03*
D20*
X117180000Y-100160000D03*
D19*
X117680000Y-100160000D03*
D20*
X117180000Y-97620000D03*
D19*
X117680000Y-97620000D03*
D20*
X117180000Y-95080000D03*
D19*
X117680000Y-95080000D03*
D20*
X117180000Y-92540000D03*
D19*
X117680000Y-92540000D03*
D20*
X117180000Y-90000000D03*
D19*
X117680000Y-90000000D03*
D20*
X117180000Y-87460000D03*
D19*
X117680000Y-87460000D03*
D20*
X117180000Y-84920000D03*
D19*
X117680000Y-84920000D03*
D20*
X117180000Y-82380000D03*
D19*
X117680000Y-82380000D03*
D20*
X117180000Y-79840000D03*
D19*
X117680000Y-79840000D03*
D17*
X124300000Y-87750000D03*
X124300000Y-89750000D03*
X126750000Y-89750000D03*
X126750000Y-87750000D03*
D22*
X140750000Y-88000000D03*
D23*
X140750000Y-90600000D03*
D24*
X143600000Y-96150000D03*
D25*
X144400000Y-89300000D03*
D23*
X140750000Y-85900000D03*
D24*
X143600000Y-82450000D03*
D23*
X140750000Y-92700000D03*
X137950000Y-85900000D03*
X137950000Y-92700000D03*
D16*
X129000000Y-89750000D03*
X129000000Y-87750000D03*
X124250000Y-83500000D03*
X124250000Y-81500000D03*
D17*
X126750000Y-81500000D03*
X126750000Y-83500000D03*
D26*
X121800000Y-95125000D03*
X121800000Y-93075000D03*
X129000000Y-95100000D03*
X129000000Y-93050000D03*
X124350000Y-95100000D03*
X124350000Y-93050000D03*
X126750000Y-95100000D03*
X126750000Y-93050000D03*
D27*
X140710000Y-83910000D03*
X127260000Y-91370000D03*
X126750000Y-93040000D03*
X137570000Y-88100000D03*
X131850000Y-81570000D03*
X119000000Y-84090000D03*
X115490000Y-85700000D03*
X114520000Y-87870000D03*
X130380000Y-87660000D03*
X130270000Y-82140000D03*
X130270000Y-84970000D03*
X137880000Y-95760000D03*
X138050000Y-91100000D03*
X137860000Y-83680000D03*
X135500000Y-85750000D03*
X135500000Y-88250000D03*
X135500000Y-92000000D03*
X123250000Y-91750000D03*
X120000000Y-87750000D03*
X119750000Y-85750000D03*
X124250000Y-81500000D03*
X122250000Y-89750000D03*
X129000000Y-87750000D03*
X126750000Y-89750000D03*
X146750000Y-94500000D03*
D28*
X124500000Y-79000000D03*
D27*
X129000000Y-81500000D03*
X121750000Y-95250000D03*
X126750000Y-87750000D03*
X124250000Y-87750000D03*
X124250000Y-83500000D03*
X129000000Y-83500000D03*
X131060000Y-79760000D03*
D29*
X138500000Y-100500000D02*
X139600000Y-101600000D01*
X136690000Y-85090000D02*
X134920000Y-83320000D01*
X142140000Y-98640000D02*
X139350000Y-95850000D01*
X139350000Y-95850000D02*
X139350000Y-85815075D01*
X139350000Y-85815075D02*
X138384925Y-84850000D01*
X141495635Y-101600000D02*
X142140000Y-100955635D01*
X142140000Y-100955635D02*
X142140000Y-98640000D01*
X138384925Y-84850000D02*
X137515075Y-84850000D01*
X137515075Y-84850000D02*
X137275075Y-85090000D01*
X137275075Y-85090000D02*
X136690000Y-85090000D01*
X139600000Y-101600000D02*
X141495635Y-101600000D01*
X134920000Y-83320000D02*
X134920000Y-81340000D01*
X134920000Y-81340000D02*
X133420000Y-79840000D01*
X141710000Y-79000000D02*
X139700000Y-81010000D01*
X139700000Y-88934925D02*
X140315075Y-89550000D01*
X140315075Y-89550000D02*
X141184925Y-89550000D01*
X141184925Y-89550000D02*
X145600000Y-93965075D01*
X144894975Y-102600000D02*
X138314214Y-102600000D01*
X145600000Y-97855024D02*
X145100000Y-98355024D01*
X139700000Y-81010000D02*
X139700000Y-88934925D01*
X138314214Y-102600000D02*
X134334214Y-98620000D01*
X145600000Y-93965075D02*
X145600000Y-97855024D01*
X127700000Y-93589034D02*
X127700000Y-92510966D01*
X145100000Y-102394975D02*
X144894975Y-102600000D01*
X145100000Y-98355024D02*
X145100000Y-102394975D01*
X134334214Y-98620000D02*
X131945000Y-98620000D01*
X131945000Y-98620000D02*
X127200000Y-93875000D01*
X127200000Y-93875000D02*
X127414034Y-93875000D01*
X127414034Y-93875000D02*
X127700000Y-93589034D01*
X127700000Y-92510966D02*
X127414034Y-92225000D01*
X127414034Y-92225000D02*
X125550000Y-92225000D01*
X125550000Y-92225000D02*
X124300000Y-90975000D01*
X124300000Y-90975000D02*
X124300000Y-89750000D01*
X122850000Y-82350000D02*
X125514034Y-82350000D01*
X132920000Y-88927207D02*
X132920000Y-90000000D01*
X125514034Y-82350000D02*
X125800000Y-82064034D01*
X125800000Y-82064034D02*
X125800000Y-80935966D01*
X125800000Y-80935966D02*
X126435966Y-80300000D01*
X122000000Y-81500000D02*
X122850000Y-82350000D01*
X126435966Y-80300000D02*
X129964975Y-80300000D01*
X131200000Y-87207207D02*
X132920000Y-88927207D01*
X129964975Y-80300000D02*
X131200000Y-81535025D01*
X131200000Y-81535025D02*
X131200000Y-87207207D01*
X126750000Y-81500000D02*
X127600000Y-80650000D01*
X130850000Y-81680000D02*
X130850000Y-87352182D01*
X129820000Y-80650000D02*
X130850000Y-81680000D01*
X130850000Y-87352182D02*
X130930000Y-87432182D01*
X127600000Y-80650000D02*
X129820000Y-80650000D01*
X130930000Y-87432182D02*
X130930000Y-87887818D01*
X130930000Y-87887818D02*
X130850000Y-87967818D01*
X130850000Y-87967818D02*
X130850000Y-91850000D01*
X130850000Y-91850000D02*
X131540000Y-92540000D01*
X131540000Y-92540000D02*
X132920000Y-92540000D01*
X124250000Y-81500000D02*
X125800000Y-79950000D01*
X125800000Y-79950000D02*
X130109950Y-79950000D01*
X130109950Y-79950000D02*
X131274975Y-81115025D01*
X131920000Y-80470000D02*
X131920000Y-79425786D01*
X131920000Y-79425786D02*
X133845786Y-77500000D01*
X131274975Y-81115025D02*
X131920000Y-80470000D01*
X133845786Y-77500000D02*
X142750000Y-77500000D01*
X142750000Y-77500000D02*
X144250000Y-79000000D01*
X123250000Y-91750000D02*
X124539034Y-91750000D01*
X124539034Y-91750000D02*
X125750000Y-92960966D01*
X125750000Y-92960966D02*
X125750000Y-94100000D01*
X125750000Y-94100000D02*
X126750000Y-95100000D01*
X119750000Y-87500000D02*
X120000000Y-87750000D01*
X119750000Y-85750000D02*
X119750000Y-87500000D01*
X141500000Y-83500000D02*
X146750000Y-88750000D01*
X141500000Y-80765635D02*
X141500000Y-83500000D01*
X142810000Y-79455635D02*
X141500000Y-80765635D01*
X146750000Y-88750000D02*
X146750000Y-94500000D01*
X140270000Y-77900000D02*
X142165635Y-77900000D01*
X142810000Y-78544365D02*
X142810000Y-79455635D01*
X142165635Y-77900000D02*
X142810000Y-78544365D01*
X139170000Y-79000000D02*
X140270000Y-77900000D01*
X140750000Y-90600000D02*
X141991117Y-91841117D01*
X143650001Y-97400000D02*
X144750000Y-98499999D01*
X141991117Y-91841117D02*
X141991117Y-95241116D01*
X141991117Y-95241116D02*
X141600000Y-95632233D01*
X141600000Y-95632233D02*
X141600000Y-96667767D01*
X135000000Y-94500000D02*
X134040000Y-93540000D01*
X141600000Y-96667767D02*
X142332233Y-97400000D01*
X142332233Y-97400000D02*
X143650001Y-97400000D01*
X144750000Y-98499999D02*
X144750000Y-102250000D01*
X144750000Y-102250000D02*
X138694365Y-102250000D01*
X138694365Y-102250000D02*
X135000000Y-98555635D01*
X135000000Y-98555635D02*
X135000000Y-94500000D01*
X134040000Y-93540000D02*
X132040000Y-93540000D01*
X132040000Y-93540000D02*
X129000000Y-90500000D01*
X129000000Y-90500000D02*
X129000000Y-89750000D01*
D30*
X118520000Y-79000000D02*
X124500000Y-79000000D01*
X117680000Y-79840000D02*
X118520000Y-79000000D01*
X107670000Y-100500000D02*
X104620000Y-97450000D01*
X104620000Y-97450000D02*
X104620000Y-84370000D01*
X106000000Y-79750000D02*
X104620000Y-81130000D01*
X104620000Y-81130000D02*
X104620000Y-84370000D01*
X104620000Y-84370000D02*
X106500000Y-86250000D01*
X106500000Y-86250000D02*
X109630000Y-86250000D01*
X110750000Y-79750000D02*
X110300000Y-80200000D01*
X110300000Y-80200000D02*
X110300000Y-84300000D01*
X110300000Y-84300000D02*
X112250000Y-86250000D01*
X110750000Y-79750000D02*
X109500000Y-78500000D01*
X109500000Y-78500000D02*
X107250000Y-78500000D01*
X107250000Y-78500000D02*
X106000000Y-79750000D01*
X117680000Y-79840000D02*
X116340000Y-78500000D01*
X116340000Y-78500000D02*
X112000000Y-78500000D01*
X112000000Y-78500000D02*
X110750000Y-79750000D01*
D29*
X129000000Y-95100000D02*
X129000000Y-96460000D01*
X129000000Y-96460000D02*
X125300000Y-100160000D01*
X126750000Y-95100000D02*
X126750000Y-96170000D01*
X126750000Y-96170000D02*
X122760000Y-100160000D01*
X124350000Y-95100000D02*
X123650000Y-95100000D01*
X118590000Y-100160000D02*
X117680000Y-100160000D01*
X123650000Y-95100000D02*
X118590000Y-100160000D01*
X129000000Y-87750000D02*
X127850000Y-88900000D01*
X127850000Y-88900000D02*
X121585966Y-88900000D01*
X119250000Y-91235966D02*
X119250000Y-98590000D01*
X121585966Y-88900000D02*
X119250000Y-91235966D01*
X119250000Y-98590000D02*
X117680000Y-100160000D01*
X122250000Y-87750000D02*
X121000000Y-87750000D01*
X121000000Y-87750000D02*
X118680000Y-90070000D01*
X118680000Y-90070000D02*
X118680000Y-90414214D01*
X114750000Y-91000000D02*
X114000000Y-91750000D01*
X111835786Y-91750000D02*
X110750000Y-90664214D01*
X118094214Y-91000000D02*
X114750000Y-91000000D01*
X118680000Y-90414214D02*
X118094214Y-91000000D01*
X114000000Y-91750000D02*
X111835786Y-91750000D01*
X110750000Y-90664214D02*
X110750000Y-89870000D01*
X110750000Y-89870000D02*
X109630000Y-88750000D01*
X126750000Y-83500000D02*
X125900000Y-84350000D01*
X125900000Y-84350000D02*
X121335966Y-84350000D01*
X121335966Y-84350000D02*
X120835966Y-83850000D01*
X120400000Y-83850000D02*
X117790000Y-86460000D01*
X120835966Y-83850000D02*
X120400000Y-83850000D01*
X114540000Y-86460000D02*
X112250000Y-88750000D01*
X117790000Y-86460000D02*
X114540000Y-86460000D01*
X122000000Y-83500000D02*
X116685786Y-83500000D01*
X116685786Y-83500000D02*
X112435786Y-87750000D01*
X112435786Y-87750000D02*
X111835786Y-87750000D01*
X111835786Y-87750000D02*
X111250000Y-88335786D01*
X111250000Y-89750000D02*
X112250000Y-90750000D01*
X111250000Y-88335786D02*
X111250000Y-89750000D01*
X133420000Y-82380000D02*
X136900000Y-85860000D01*
X136900000Y-85860000D02*
X136900000Y-96360000D01*
X136900000Y-96360000D02*
X141040000Y-100500000D01*
G04 #@! TA.AperFunction,Conductor*
G36*
X133458702Y-77320185D02*
G01*
X133504457Y-77372989D01*
X133514401Y-77442147D01*
X133485376Y-77505703D01*
X133479345Y-77512179D01*
X132589056Y-78402468D01*
X131760662Y-79230862D01*
X131760661Y-79230862D01*
X131760662Y-79230863D01*
X131707636Y-79283889D01*
X131669500Y-79375956D01*
X131669500Y-80314877D01*
X131649815Y-80381916D01*
X131633181Y-80402558D01*
X131362656Y-80673083D01*
X131301333Y-80706568D01*
X131231641Y-80701584D01*
X131187294Y-80673083D01*
X130251847Y-79737636D01*
X130159779Y-79699500D01*
X130159778Y-79699500D01*
X125849828Y-79699500D01*
X125750172Y-79699500D01*
X125750170Y-79699500D01*
X125658102Y-79737636D01*
X125658101Y-79737637D01*
X124682556Y-80713181D01*
X124621233Y-80746666D01*
X124594875Y-80749500D01*
X123768482Y-80749500D01*
X123687519Y-80762323D01*
X123674696Y-80764354D01*
X123561658Y-80821950D01*
X123561657Y-80821951D01*
X123561652Y-80821954D01*
X123471954Y-80911652D01*
X123471951Y-80911657D01*
X123471950Y-80911658D01*
X123455234Y-80944464D01*
X123414352Y-81024698D01*
X123399500Y-81118475D01*
X123399500Y-81881518D01*
X123411313Y-81956104D01*
X123402357Y-82025397D01*
X123357360Y-82078849D01*
X123290608Y-82099487D01*
X123288839Y-82099500D01*
X123005123Y-82099500D01*
X122938084Y-82079815D01*
X122917442Y-82063181D01*
X122879490Y-82025229D01*
X122846005Y-81963906D01*
X122844698Y-81918150D01*
X122850500Y-81881519D01*
X122850499Y-81118482D01*
X122835646Y-81024696D01*
X122778050Y-80911658D01*
X122778046Y-80911654D01*
X122778045Y-80911652D01*
X122688347Y-80821954D01*
X122688344Y-80821952D01*
X122688342Y-80821950D01*
X122599768Y-80776819D01*
X122575301Y-80764352D01*
X122481524Y-80749500D01*
X121518482Y-80749500D01*
X121437519Y-80762323D01*
X121424696Y-80764354D01*
X121311658Y-80821950D01*
X121311657Y-80821951D01*
X121311652Y-80821954D01*
X121221954Y-80911652D01*
X121221951Y-80911657D01*
X121221950Y-80911658D01*
X121205234Y-80944464D01*
X121164352Y-81024698D01*
X121149500Y-81118475D01*
X121149500Y-81881517D01*
X121160292Y-81949657D01*
X121164354Y-81975304D01*
X121221950Y-82088342D01*
X121221952Y-82088344D01*
X121221954Y-82088347D01*
X121311652Y-82178045D01*
X121311654Y-82178046D01*
X121311658Y-82178050D01*
X121422498Y-82234526D01*
X121424698Y-82235647D01*
X121512116Y-82249491D01*
X121517824Y-82250396D01*
X121518475Y-82250499D01*
X121518481Y-82250500D01*
X122344876Y-82250499D01*
X122411915Y-82270183D01*
X122432557Y-82286818D01*
X122630565Y-82484825D01*
X122630568Y-82484829D01*
X122706010Y-82560271D01*
X122725208Y-82595430D01*
X122770131Y-82590925D01*
X122794696Y-82598232D01*
X122800173Y-82600501D01*
X122800174Y-82600501D01*
X122914262Y-82600501D01*
X122914270Y-82600500D01*
X123484825Y-82600500D01*
X123551864Y-82620185D01*
X123597619Y-82672989D01*
X123607563Y-82742147D01*
X123578538Y-82805703D01*
X123568460Y-82814951D01*
X123568558Y-82815049D01*
X123471954Y-82911652D01*
X123471951Y-82911657D01*
X123471950Y-82911658D01*
X123456632Y-82941721D01*
X123414352Y-83024698D01*
X123399500Y-83118475D01*
X123399500Y-83881518D01*
X123411313Y-83956104D01*
X123402357Y-84025397D01*
X123357360Y-84078849D01*
X123290608Y-84099487D01*
X123288839Y-84099500D01*
X122961161Y-84099500D01*
X122894122Y-84079815D01*
X122848367Y-84027011D01*
X122838423Y-83957853D01*
X122838688Y-83956102D01*
X122850499Y-83881524D01*
X122850500Y-83881519D01*
X122850499Y-83118482D01*
X122835646Y-83024696D01*
X122778050Y-82911658D01*
X122778046Y-82911654D01*
X122778045Y-82911652D01*
X122688347Y-82821954D01*
X122688343Y-82821951D01*
X122688342Y-82821950D01*
X122688340Y-82821949D01*
X122680450Y-82816217D01*
X122681679Y-82814524D01*
X122640153Y-82775304D01*
X122638224Y-82767514D01*
X122627175Y-82771636D01*
X122580011Y-82765883D01*
X122575302Y-82764353D01*
X122481524Y-82749500D01*
X121518482Y-82749500D01*
X121437519Y-82762323D01*
X121424696Y-82764354D01*
X121311658Y-82821950D01*
X121311657Y-82821951D01*
X121311652Y-82821954D01*
X121221954Y-82911652D01*
X121221951Y-82911657D01*
X121221950Y-82911658D01*
X121206632Y-82941721D01*
X121164352Y-83024698D01*
X121149500Y-83118475D01*
X121149500Y-83125500D01*
X121129815Y-83192539D01*
X121077011Y-83238294D01*
X121025500Y-83249500D01*
X118836720Y-83249500D01*
X118769681Y-83229815D01*
X118723926Y-83177011D01*
X118713982Y-83107853D01*
X118736404Y-83052612D01*
X118749093Y-83035147D01*
X118750130Y-83033112D01*
X118759054Y-83018259D01*
X118766665Y-83007389D01*
X118766667Y-83007386D01*
X118802758Y-82929988D01*
X118804657Y-82926095D01*
X118838419Y-82859834D01*
X118838420Y-82859831D01*
X118842847Y-82846206D01*
X118848399Y-82832111D01*
X118859101Y-82809159D01*
X118878095Y-82738276D01*
X118879940Y-82732049D01*
X118899217Y-82672721D01*
X118899222Y-82672703D01*
X118903346Y-82646661D01*
X118906045Y-82633962D01*
X118907106Y-82630000D01*
X118113012Y-82630000D01*
X118145925Y-82572993D01*
X118180000Y-82445826D01*
X118180000Y-82314174D01*
X118145925Y-82187007D01*
X118113012Y-82130000D01*
X118907107Y-82130000D01*
X118906046Y-82126040D01*
X118903345Y-82113333D01*
X118899221Y-82087293D01*
X118879939Y-82027949D01*
X118878095Y-82021722D01*
X118859106Y-81950851D01*
X118859102Y-81950840D01*
X118848398Y-81927887D01*
X118842847Y-81913794D01*
X118838421Y-81900171D01*
X118838418Y-81900164D01*
X118804652Y-81833894D01*
X118802755Y-81830003D01*
X118766670Y-81752619D01*
X118766667Y-81752613D01*
X118759047Y-81741730D01*
X118750140Y-81726907D01*
X118749095Y-81724856D01*
X118749093Y-81724853D01*
X118698315Y-81654965D01*
X118697056Y-81653200D01*
X118641213Y-81573446D01*
X118486551Y-81418785D01*
X118406768Y-81362920D01*
X118405006Y-81361663D01*
X118335147Y-81310906D01*
X118335141Y-81310903D01*
X118333101Y-81309864D01*
X118318263Y-81300949D01*
X118307383Y-81293330D01*
X118229987Y-81257240D01*
X118226096Y-81255343D01*
X118159835Y-81221581D01*
X118159830Y-81221579D01*
X118146201Y-81217151D01*
X118132113Y-81211602D01*
X118109154Y-81200896D01*
X118038258Y-81181898D01*
X118032036Y-81180055D01*
X117972710Y-81160779D01*
X117946666Y-81156654D01*
X117933962Y-81153953D01*
X117930000Y-81152891D01*
X117930000Y-81946988D01*
X117872993Y-81914075D01*
X117745826Y-81880000D01*
X117614174Y-81880000D01*
X117487007Y-81914075D01*
X117372993Y-81979901D01*
X117279901Y-82072993D01*
X117214075Y-82187007D01*
X117180000Y-82314174D01*
X117180000Y-82445826D01*
X117214075Y-82572993D01*
X117246988Y-82630000D01*
X115454016Y-82630000D01*
X115460781Y-82672716D01*
X115521581Y-82859837D01*
X115610904Y-83035143D01*
X115726555Y-83194321D01*
X115865678Y-83333444D01*
X116024856Y-83449095D01*
X116109664Y-83492307D01*
X116160460Y-83540281D01*
X116177255Y-83608102D01*
X116154718Y-83674237D01*
X116141050Y-83690473D01*
X113353023Y-86478501D01*
X113291700Y-86511986D01*
X113222008Y-86507002D01*
X113166075Y-86465130D01*
X113141658Y-86399666D01*
X113142020Y-86377868D01*
X113155460Y-86250000D01*
X113135674Y-86061744D01*
X113077179Y-85881716D01*
X112982533Y-85717784D01*
X112896085Y-85621774D01*
X112884235Y-85608613D01*
X112854005Y-85545622D01*
X112862630Y-85476286D01*
X112907372Y-85422621D01*
X112952194Y-85404024D01*
X113183585Y-85357998D01*
X113183599Y-85357994D01*
X113462888Y-85263187D01*
X113727406Y-85132741D01*
X113727419Y-85132734D01*
X113972648Y-84968877D01*
X114006039Y-84939593D01*
X113218533Y-84152086D01*
X113349175Y-84057171D01*
X113477171Y-83929175D01*
X113572086Y-83798533D01*
X114359593Y-84586039D01*
X114388877Y-84552648D01*
X114552734Y-84307419D01*
X114552741Y-84307406D01*
X114683187Y-84042888D01*
X114777994Y-83763599D01*
X114777998Y-83763584D01*
X114835535Y-83474324D01*
X114835537Y-83474312D01*
X114854827Y-83180000D01*
X114835537Y-82885687D01*
X114835535Y-82885675D01*
X114777998Y-82596415D01*
X114777994Y-82596400D01*
X114683187Y-82317111D01*
X114590914Y-82130000D01*
X115454016Y-82130000D01*
X116930000Y-82130000D01*
X116930000Y-81130000D01*
X116581618Y-81130000D01*
X116387294Y-81160778D01*
X116200164Y-81221581D01*
X116024856Y-81310904D01*
X115865678Y-81426555D01*
X115726555Y-81565678D01*
X115610904Y-81724856D01*
X115521581Y-81900162D01*
X115460781Y-82087283D01*
X115454016Y-82130000D01*
X114590914Y-82130000D01*
X114552741Y-82052593D01*
X114552734Y-82052580D01*
X114388876Y-81807350D01*
X114359593Y-81773958D01*
X113572086Y-82561465D01*
X113477171Y-82430825D01*
X113349175Y-82302829D01*
X113218533Y-82207912D01*
X114006040Y-81420405D01*
X113972649Y-81391123D01*
X113727419Y-81227265D01*
X113727406Y-81227258D01*
X113462886Y-81096811D01*
X113461908Y-81096479D01*
X113461655Y-81096301D01*
X113459143Y-81095261D01*
X113459244Y-81095015D01*
X113459249Y-81095003D01*
X113459376Y-81094698D01*
X113404758Y-81056284D01*
X113378411Y-80991572D01*
X113391233Y-80922889D01*
X113436683Y-80873525D01*
X113568343Y-80792317D01*
X113692315Y-80668345D01*
X113784357Y-80519123D01*
X113784358Y-80519119D01*
X113839505Y-80352697D01*
X113839506Y-80352690D01*
X113849999Y-80249986D01*
X113850000Y-80249973D01*
X113850000Y-80000000D01*
X112624000Y-80000000D01*
X112556961Y-79980315D01*
X112511206Y-79927511D01*
X112500000Y-79876000D01*
X112500000Y-79624000D01*
X112519685Y-79556961D01*
X112572489Y-79511206D01*
X112624000Y-79500000D01*
X113849999Y-79500000D01*
X113849999Y-79250028D01*
X113849998Y-79250010D01*
X113843572Y-79187101D01*
X113856342Y-79118408D01*
X113904223Y-79067524D01*
X113966930Y-79050500D01*
X115896638Y-79050500D01*
X115963677Y-79070185D01*
X116009432Y-79122989D01*
X116019376Y-79192147D01*
X115990351Y-79255703D01*
X115984319Y-79262181D01*
X115980538Y-79265961D01*
X115980535Y-79265965D01*
X115881990Y-79413446D01*
X115881983Y-79413459D01*
X115814106Y-79577332D01*
X115814103Y-79577341D01*
X115779500Y-79751304D01*
X115779500Y-79928695D01*
X115814103Y-80102658D01*
X115814106Y-80102667D01*
X115881983Y-80266540D01*
X115881990Y-80266553D01*
X115980535Y-80414034D01*
X115980538Y-80414038D01*
X116105961Y-80539461D01*
X116105965Y-80539464D01*
X116253446Y-80638009D01*
X116253459Y-80638016D01*
X116327000Y-80668477D01*
X116417334Y-80705894D01*
X116417336Y-80705894D01*
X116417341Y-80705896D01*
X116591304Y-80740499D01*
X116591307Y-80740500D01*
X116591309Y-80740500D01*
X117774645Y-80740500D01*
X117774646Y-80740500D01*
X117860746Y-80722198D01*
X117862180Y-80721902D01*
X117942666Y-80705894D01*
X117942669Y-80705892D01*
X117942672Y-80705892D01*
X117948496Y-80704126D01*
X117948631Y-80704573D01*
X117959315Y-80701247D01*
X117959803Y-80701144D01*
X118034057Y-80668082D01*
X118036955Y-80666837D01*
X118106547Y-80638013D01*
X118107633Y-80637287D01*
X118126095Y-80627104D01*
X118132730Y-80624151D01*
X118193054Y-80580322D01*
X118196952Y-80577605D01*
X118254035Y-80539464D01*
X118259739Y-80533758D01*
X118274531Y-80521126D01*
X118285871Y-80512888D01*
X118331274Y-80462461D01*
X118335687Y-80457810D01*
X118379464Y-80414035D01*
X118387687Y-80401727D01*
X118398642Y-80387643D01*
X118412531Y-80372218D01*
X118412530Y-80372218D01*
X118412533Y-80372216D01*
X118443091Y-80319284D01*
X118447368Y-80312408D01*
X118478012Y-80266548D01*
X118478013Y-80266547D01*
X118486259Y-80246637D01*
X118493433Y-80232091D01*
X118493764Y-80231519D01*
X118507179Y-80208284D01*
X118523995Y-80156528D01*
X118527351Y-80147431D01*
X118545894Y-80102666D01*
X118551411Y-80074927D01*
X118555094Y-80060813D01*
X118565674Y-80028256D01*
X118570656Y-79980837D01*
X118572361Y-79969604D01*
X118580500Y-79928695D01*
X118580500Y-79893692D01*
X118581179Y-79880731D01*
X118581676Y-79876000D01*
X118585460Y-79840000D01*
X118581179Y-79799266D01*
X118580500Y-79786306D01*
X118580500Y-79769386D01*
X118600185Y-79702347D01*
X118616813Y-79681710D01*
X118711707Y-79586817D01*
X118773030Y-79553334D01*
X118799387Y-79550500D01*
X124455794Y-79550500D01*
X124471980Y-79551561D01*
X124499999Y-79555250D01*
X124500000Y-79555250D01*
X124500001Y-79555250D01*
X124528020Y-79551561D01*
X124544206Y-79550500D01*
X124572475Y-79550500D01*
X124599784Y-79543181D01*
X124615684Y-79540018D01*
X124643709Y-79536330D01*
X124669832Y-79525508D01*
X124685165Y-79520303D01*
X124712485Y-79512984D01*
X124736968Y-79498847D01*
X124751503Y-79491680D01*
X124777625Y-79480861D01*
X124800070Y-79463637D01*
X124813523Y-79454649D01*
X124838015Y-79440509D01*
X124858006Y-79420516D01*
X124870194Y-79409828D01*
X124892621Y-79392621D01*
X124909828Y-79370194D01*
X124920516Y-79358006D01*
X124940509Y-79338015D01*
X124954649Y-79313523D01*
X124963637Y-79300070D01*
X124980861Y-79277625D01*
X124991680Y-79251503D01*
X124998847Y-79236968D01*
X125012984Y-79212485D01*
X125020303Y-79185165D01*
X125025508Y-79169832D01*
X125036330Y-79143709D01*
X125040018Y-79115684D01*
X125043183Y-79099778D01*
X125050500Y-79072475D01*
X125050500Y-79044206D01*
X125051561Y-79028020D01*
X125055250Y-79000000D01*
X125055250Y-78999998D01*
X125051561Y-78971978D01*
X125050500Y-78955793D01*
X125050500Y-78927524D01*
X125048320Y-78919391D01*
X125043181Y-78900212D01*
X125040019Y-78884317D01*
X125036330Y-78856291D01*
X125025511Y-78830172D01*
X125020299Y-78814818D01*
X125012984Y-78787515D01*
X125012983Y-78787513D01*
X124998851Y-78763035D01*
X124991677Y-78748488D01*
X124991297Y-78747571D01*
X124980861Y-78722375D01*
X124963651Y-78699947D01*
X124954645Y-78686470D01*
X124940509Y-78661985D01*
X124920516Y-78641992D01*
X124909828Y-78629804D01*
X124892620Y-78607378D01*
X124875439Y-78594195D01*
X124870191Y-78590168D01*
X124858006Y-78579482D01*
X124838015Y-78559491D01*
X124838014Y-78559490D01*
X124813536Y-78545357D01*
X124800053Y-78536348D01*
X124777625Y-78519138D01*
X124751505Y-78508319D01*
X124736962Y-78501147D01*
X124712489Y-78487018D01*
X124712483Y-78487015D01*
X124685173Y-78479697D01*
X124669819Y-78474485D01*
X124643709Y-78463670D01*
X124615685Y-78459980D01*
X124599786Y-78456817D01*
X124572476Y-78449500D01*
X124572475Y-78449500D01*
X124544206Y-78449500D01*
X124528020Y-78448439D01*
X124500001Y-78444750D01*
X124499999Y-78444750D01*
X124471980Y-78448439D01*
X124455794Y-78449500D01*
X118447525Y-78449500D01*
X118365716Y-78471421D01*
X118307514Y-78487016D01*
X118181986Y-78559489D01*
X118181983Y-78559491D01*
X117838293Y-78903181D01*
X117776970Y-78936666D01*
X117750612Y-78939500D01*
X117609387Y-78939500D01*
X117542348Y-78919815D01*
X117521706Y-78903181D01*
X116678016Y-78059491D01*
X116678015Y-78059490D01*
X116552485Y-77987016D01*
X116552486Y-77987016D01*
X116517482Y-77977637D01*
X116412475Y-77949500D01*
X111927525Y-77949500D01*
X111822517Y-77977637D01*
X111787514Y-77987016D01*
X111661986Y-78059489D01*
X111661983Y-78059491D01*
X110858293Y-78863181D01*
X110796970Y-78896666D01*
X110770612Y-78899500D01*
X110729387Y-78899500D01*
X110662348Y-78879815D01*
X110641706Y-78863181D01*
X109838016Y-78059491D01*
X109838015Y-78059490D01*
X109712485Y-77987016D01*
X109712486Y-77987016D01*
X109677482Y-77977637D01*
X109572475Y-77949500D01*
X107177525Y-77949500D01*
X107072517Y-77977637D01*
X107037514Y-77987016D01*
X106911986Y-78059489D01*
X106911983Y-78059491D01*
X106108292Y-78863181D01*
X106046969Y-78896666D01*
X106020611Y-78899500D01*
X105618482Y-78899500D01*
X105537519Y-78912323D01*
X105524696Y-78914354D01*
X105411658Y-78971950D01*
X105411657Y-78971951D01*
X105411652Y-78971954D01*
X105321954Y-79061652D01*
X105321951Y-79061657D01*
X105321950Y-79061658D01*
X105309130Y-79086819D01*
X105264352Y-79174698D01*
X105249500Y-79268475D01*
X105249500Y-79670612D01*
X105229815Y-79737651D01*
X105213181Y-79758293D01*
X104179489Y-80791985D01*
X104116842Y-80900497D01*
X104116840Y-80900499D01*
X104107017Y-80917512D01*
X104107016Y-80917514D01*
X104107016Y-80917515D01*
X104069500Y-81057525D01*
X104069500Y-84297525D01*
X104069500Y-97377526D01*
X104069500Y-97522474D01*
X104107016Y-97662485D01*
X104179239Y-97787581D01*
X104179489Y-97788013D01*
X104179491Y-97788016D01*
X106643524Y-100252049D01*
X106677009Y-100313372D01*
X106679246Y-100351883D01*
X106664659Y-100499999D01*
X106683975Y-100696129D01*
X106741188Y-100884733D01*
X106834086Y-101058532D01*
X106834090Y-101058539D01*
X106959116Y-101210883D01*
X107111460Y-101335909D01*
X107111467Y-101335913D01*
X107285266Y-101428811D01*
X107285269Y-101428811D01*
X107285273Y-101428814D01*
X107473868Y-101486024D01*
X107670000Y-101505341D01*
X107866132Y-101486024D01*
X108054727Y-101428814D01*
X108066228Y-101422667D01*
X108228532Y-101335913D01*
X108228538Y-101335910D01*
X108380883Y-101210883D01*
X108505910Y-101058538D01*
X108576045Y-100927324D01*
X108598812Y-100884731D01*
X108598812Y-100884730D01*
X108598814Y-100884727D01*
X108640900Y-100745988D01*
X108679197Y-100687551D01*
X108743009Y-100659095D01*
X108812076Y-100669655D01*
X108864470Y-100715879D01*
X108879335Y-100749891D01*
X108936567Y-100963486D01*
X108936570Y-100963492D01*
X109036399Y-101177578D01*
X109171894Y-101371082D01*
X109338917Y-101538105D01*
X109532421Y-101673600D01*
X109746507Y-101773429D01*
X109746516Y-101773433D01*
X109960000Y-101830634D01*
X109960000Y-100933012D01*
X110017007Y-100965925D01*
X110144174Y-101000000D01*
X110275826Y-101000000D01*
X110402993Y-100965925D01*
X110460000Y-100933012D01*
X110460000Y-101830633D01*
X110673483Y-101773433D01*
X110673492Y-101773429D01*
X110887578Y-101673600D01*
X111081082Y-101538105D01*
X111248105Y-101371082D01*
X111383600Y-101177578D01*
X111483429Y-100963492D01*
X111483432Y-100963486D01*
X111540636Y-100750000D01*
X110643012Y-100750000D01*
X110675925Y-100692993D01*
X110710000Y-100565826D01*
X110710000Y-100434174D01*
X110675925Y-100307007D01*
X110643012Y-100250000D01*
X111540636Y-100250000D01*
X111540635Y-100249999D01*
X111483432Y-100036513D01*
X111483429Y-100036507D01*
X111383600Y-99822422D01*
X111383599Y-99822420D01*
X111248113Y-99628926D01*
X111248108Y-99628920D01*
X111081082Y-99461894D01*
X110887578Y-99326399D01*
X110673492Y-99226570D01*
X110673486Y-99226567D01*
X110460000Y-99169364D01*
X110460000Y-100066988D01*
X110402993Y-100034075D01*
X110275826Y-100000000D01*
X110144174Y-100000000D01*
X110017007Y-100034075D01*
X109960000Y-100066988D01*
X109960000Y-99169364D01*
X109959999Y-99169364D01*
X109746513Y-99226567D01*
X109746507Y-99226570D01*
X109532422Y-99326399D01*
X109532420Y-99326400D01*
X109338926Y-99461886D01*
X109338920Y-99461891D01*
X109171891Y-99628920D01*
X109171886Y-99628926D01*
X109036400Y-99822420D01*
X109036399Y-99822422D01*
X108936570Y-100036507D01*
X108936567Y-100036513D01*
X108879335Y-100250108D01*
X108842970Y-100309768D01*
X108780123Y-100340297D01*
X108710747Y-100332002D01*
X108656869Y-100287517D01*
X108640900Y-100254013D01*
X108598814Y-100115273D01*
X108598811Y-100115269D01*
X108598811Y-100115266D01*
X108505913Y-99941467D01*
X108505909Y-99941460D01*
X108380883Y-99789116D01*
X108228539Y-99664090D01*
X108228532Y-99664086D01*
X108054733Y-99571188D01*
X108054727Y-99571186D01*
X107877528Y-99517433D01*
X107866129Y-99513975D01*
X107670000Y-99494659D01*
X107669999Y-99494659D01*
X107521883Y-99509246D01*
X107453237Y-99496227D01*
X107422049Y-99473524D01*
X106728495Y-98779970D01*
X106695010Y-98718647D01*
X106699994Y-98648955D01*
X106741866Y-98593022D01*
X106807330Y-98568605D01*
X106824286Y-98568554D01*
X106920000Y-98574827D01*
X107214312Y-98555537D01*
X107214324Y-98555535D01*
X107503584Y-98497998D01*
X107503599Y-98497994D01*
X107782888Y-98403187D01*
X108047406Y-98272741D01*
X108047419Y-98272734D01*
X108292648Y-98108877D01*
X108326039Y-98079593D01*
X107538533Y-97292086D01*
X107669175Y-97197171D01*
X107797171Y-97069175D01*
X107892086Y-96938533D01*
X108679593Y-97726039D01*
X108708877Y-97692648D01*
X108872734Y-97447419D01*
X108872741Y-97447406D01*
X109003187Y-97182888D01*
X109097994Y-96903599D01*
X109097998Y-96903584D01*
X109155535Y-96614324D01*
X109155537Y-96614312D01*
X109174827Y-96320000D01*
X109155537Y-96025687D01*
X109155535Y-96025675D01*
X109097998Y-95736415D01*
X109097994Y-95736400D01*
X109003187Y-95457111D01*
X108872741Y-95192593D01*
X108872734Y-95192580D01*
X108708876Y-94947350D01*
X108679593Y-94913958D01*
X107892086Y-95701465D01*
X107797171Y-95570825D01*
X107669175Y-95442829D01*
X107538533Y-95347912D01*
X108326040Y-94560405D01*
X108292649Y-94531123D01*
X108047419Y-94367265D01*
X108047406Y-94367258D01*
X107782888Y-94236812D01*
X107503599Y-94142005D01*
X107503584Y-94142001D01*
X107214324Y-94084464D01*
X107214312Y-94084462D01*
X106920000Y-94065172D01*
X106625687Y-94084462D01*
X106625675Y-94084464D01*
X106336415Y-94142001D01*
X106336400Y-94142005D01*
X106057111Y-94236812D01*
X105792593Y-94367258D01*
X105792580Y-94367265D01*
X105547346Y-94531126D01*
X105547339Y-94531131D01*
X105513959Y-94560403D01*
X105513959Y-94560405D01*
X106301466Y-95347912D01*
X106170825Y-95442829D01*
X106042829Y-95570825D01*
X105947913Y-95701466D01*
X105206819Y-94960372D01*
X105173334Y-94899049D01*
X105170500Y-94872691D01*
X105170500Y-85998386D01*
X105190185Y-85931347D01*
X105242989Y-85885592D01*
X105312147Y-85875648D01*
X105375703Y-85904673D01*
X105382181Y-85910705D01*
X106059490Y-86588014D01*
X106059491Y-86588015D01*
X106161985Y-86690509D01*
X106161986Y-86690510D01*
X106161988Y-86690511D01*
X106287511Y-86762982D01*
X106287512Y-86762982D01*
X106287515Y-86762984D01*
X106427525Y-86800500D01*
X108605500Y-86800500D01*
X108672539Y-86820185D01*
X108718294Y-86872989D01*
X108729500Y-86924500D01*
X108729500Y-87014820D01*
X108729500Y-87014822D01*
X108729499Y-87014822D01*
X108738231Y-87058717D01*
X108738234Y-87058724D01*
X108760281Y-87091720D01*
X108771496Y-87108504D01*
X108821278Y-87141767D01*
X108821281Y-87141767D01*
X108821282Y-87141768D01*
X108865177Y-87150500D01*
X108865180Y-87150500D01*
X110394822Y-87150500D01*
X110438717Y-87141768D01*
X110438717Y-87141767D01*
X110438722Y-87141767D01*
X110488504Y-87108504D01*
X110521767Y-87058722D01*
X110523087Y-87052084D01*
X110530500Y-87014822D01*
X110530500Y-85608387D01*
X110550185Y-85541348D01*
X110602989Y-85495593D01*
X110672147Y-85485649D01*
X110735703Y-85514674D01*
X110742181Y-85520706D01*
X111314790Y-86093315D01*
X111348275Y-86154638D01*
X111350430Y-86193956D01*
X111344788Y-86247636D01*
X111344540Y-86250000D01*
X111364326Y-86438256D01*
X111364327Y-86438259D01*
X111422818Y-86618277D01*
X111422821Y-86618284D01*
X111517467Y-86782216D01*
X111610883Y-86885965D01*
X111644129Y-86922888D01*
X111797265Y-87034148D01*
X111797270Y-87034151D01*
X111970192Y-87111142D01*
X111970197Y-87111144D01*
X112155354Y-87150500D01*
X112155355Y-87150500D01*
X112344642Y-87150500D01*
X112344646Y-87150500D01*
X112362357Y-87146735D01*
X112432021Y-87152050D01*
X112487756Y-87194186D01*
X112511862Y-87259766D01*
X112496686Y-87327968D01*
X112475819Y-87355706D01*
X112368342Y-87463182D01*
X112307022Y-87496666D01*
X112280663Y-87499500D01*
X111900056Y-87499500D01*
X111900048Y-87499499D01*
X111885614Y-87499499D01*
X111785959Y-87499499D01*
X111785958Y-87499499D01*
X111758992Y-87510669D01*
X111732026Y-87521839D01*
X111693889Y-87537636D01*
X111693887Y-87537637D01*
X111644220Y-87587305D01*
X111623422Y-87608103D01*
X111623421Y-87608104D01*
X111364875Y-87866650D01*
X111090662Y-88140862D01*
X111090661Y-88140862D01*
X111090662Y-88140863D01*
X111037636Y-88193889D01*
X110999500Y-88285956D01*
X110999500Y-89465877D01*
X110979815Y-89532916D01*
X110927011Y-89578671D01*
X110857853Y-89588615D01*
X110794297Y-89559590D01*
X110787819Y-89553558D01*
X110485206Y-89250945D01*
X110451721Y-89189622D01*
X110456353Y-89124849D01*
X110455171Y-89124465D01*
X110479366Y-89050000D01*
X110515674Y-88938256D01*
X110535460Y-88750000D01*
X110515674Y-88561744D01*
X110457179Y-88381716D01*
X110362533Y-88217784D01*
X110235871Y-88077112D01*
X110235870Y-88077111D01*
X110082734Y-87965851D01*
X110082729Y-87965848D01*
X109909807Y-87888857D01*
X109909802Y-87888855D01*
X109764001Y-87857865D01*
X109724646Y-87849500D01*
X109535354Y-87849500D01*
X109502897Y-87856398D01*
X109350197Y-87888855D01*
X109350192Y-87888857D01*
X109177270Y-87965848D01*
X109177265Y-87965851D01*
X109024129Y-88077111D01*
X108897466Y-88217785D01*
X108802821Y-88381715D01*
X108802818Y-88381722D01*
X108745820Y-88557146D01*
X108744326Y-88561744D01*
X108724540Y-88750000D01*
X108744326Y-88938256D01*
X108744327Y-88938259D01*
X108802818Y-89118277D01*
X108802821Y-89118284D01*
X108897467Y-89282216D01*
X108983276Y-89377516D01*
X109024129Y-89422888D01*
X109177265Y-89534148D01*
X109177270Y-89534151D01*
X109350192Y-89611142D01*
X109350197Y-89611144D01*
X109432839Y-89628710D01*
X109494321Y-89661902D01*
X109528097Y-89723065D01*
X109523445Y-89792780D01*
X109481840Y-89848912D01*
X109432839Y-89871290D01*
X109350197Y-89888855D01*
X109350192Y-89888857D01*
X109177270Y-89965848D01*
X109177265Y-89965851D01*
X109024129Y-90077111D01*
X108897466Y-90217785D01*
X108802821Y-90381715D01*
X108802818Y-90381722D01*
X108746156Y-90556111D01*
X108744326Y-90561744D01*
X108724540Y-90750000D01*
X108744326Y-90938256D01*
X108744327Y-90938259D01*
X108802818Y-91118277D01*
X108802821Y-91118284D01*
X108897467Y-91282216D01*
X109008953Y-91406033D01*
X109024129Y-91422888D01*
X109177265Y-91534148D01*
X109177270Y-91534151D01*
X109350192Y-91611142D01*
X109350197Y-91611144D01*
X109535354Y-91650500D01*
X109535355Y-91650500D01*
X109724644Y-91650500D01*
X109724646Y-91650500D01*
X109909803Y-91611144D01*
X110082730Y-91534151D01*
X110235871Y-91422888D01*
X110362533Y-91282216D01*
X110457179Y-91118284D01*
X110490937Y-91014387D01*
X110530374Y-90956713D01*
X110594733Y-90929514D01*
X110663579Y-90941429D01*
X110696549Y-90965025D01*
X111623422Y-91891897D01*
X111683058Y-91951533D01*
X111716543Y-92012856D01*
X111711559Y-92082548D01*
X111669687Y-92138481D01*
X111647784Y-92151595D01*
X111622613Y-92163332D01*
X111560428Y-92206874D01*
X112153251Y-92799697D01*
X112072447Y-92821349D01*
X111967554Y-92881909D01*
X111881909Y-92967554D01*
X111821349Y-93072447D01*
X111799697Y-93153251D01*
X111206874Y-92560428D01*
X111163333Y-92622613D01*
X111070898Y-92820840D01*
X111070894Y-92820849D01*
X111059775Y-92862349D01*
X111023410Y-92922010D01*
X110960563Y-92952539D01*
X110891188Y-92944244D01*
X110837310Y-92899759D01*
X110820225Y-92862349D01*
X110809105Y-92820849D01*
X110809101Y-92820840D01*
X110716667Y-92622614D01*
X110716666Y-92622612D01*
X110673124Y-92560428D01*
X110673124Y-92560427D01*
X110080302Y-93153249D01*
X110058651Y-93072447D01*
X109998091Y-92967554D01*
X109912446Y-92881909D01*
X109807553Y-92821349D01*
X109726749Y-92799697D01*
X110319571Y-92206874D01*
X110257387Y-92163333D01*
X110059159Y-92070898D01*
X110059150Y-92070894D01*
X109847894Y-92014289D01*
X109847884Y-92014287D01*
X109630001Y-91995225D01*
X109629999Y-91995225D01*
X109412115Y-92014287D01*
X109412105Y-92014289D01*
X109200849Y-92070894D01*
X109200840Y-92070898D01*
X109002613Y-92163333D01*
X108940428Y-92206874D01*
X109533251Y-92799697D01*
X109452447Y-92821349D01*
X109347554Y-92881909D01*
X109261909Y-92967554D01*
X109201349Y-93072447D01*
X109179697Y-93153251D01*
X108586874Y-92560428D01*
X108543333Y-92622613D01*
X108450898Y-92820840D01*
X108450894Y-92820849D01*
X108394289Y-93032105D01*
X108394287Y-93032115D01*
X108375225Y-93249999D01*
X108375225Y-93250000D01*
X108394287Y-93467884D01*
X108394289Y-93467894D01*
X108450894Y-93679150D01*
X108450898Y-93679159D01*
X108543333Y-93877387D01*
X108586874Y-93939571D01*
X109179697Y-93346748D01*
X109201349Y-93427553D01*
X109261909Y-93532446D01*
X109347554Y-93618091D01*
X109452447Y-93678651D01*
X109533250Y-93700302D01*
X108940427Y-94293124D01*
X109002612Y-94336666D01*
X109200840Y-94429101D01*
X109200849Y-94429105D01*
X109412105Y-94485710D01*
X109412115Y-94485712D01*
X109629999Y-94504775D01*
X109630001Y-94504775D01*
X109847884Y-94485712D01*
X109847894Y-94485710D01*
X110059150Y-94429105D01*
X110059164Y-94429100D01*
X110257383Y-94336669D01*
X110257385Y-94336668D01*
X110319571Y-94293124D01*
X109726750Y-93700302D01*
X109807553Y-93678651D01*
X109912446Y-93618091D01*
X109998091Y-93532446D01*
X110058651Y-93427553D01*
X110080302Y-93346749D01*
X110673124Y-93939570D01*
X110716668Y-93877385D01*
X110716669Y-93877383D01*
X110809100Y-93679164D01*
X110809105Y-93679150D01*
X110820225Y-93637650D01*
X110856589Y-93577990D01*
X110919436Y-93547460D01*
X110988812Y-93555754D01*
X111042690Y-93600239D01*
X111059775Y-93637650D01*
X111070894Y-93679150D01*
X111070898Y-93679159D01*
X111163333Y-93877387D01*
X111206874Y-93939571D01*
X111799697Y-93346748D01*
X111821349Y-93427553D01*
X111881909Y-93532446D01*
X111967554Y-93618091D01*
X112072447Y-93678651D01*
X112153250Y-93700302D01*
X111519541Y-94334011D01*
X111517417Y-94331887D01*
X111493228Y-94356854D01*
X111486941Y-94360182D01*
X111472585Y-94367262D01*
X111227346Y-94531126D01*
X111227339Y-94531131D01*
X111193959Y-94560403D01*
X111193959Y-94560405D01*
X111981466Y-95347912D01*
X111850825Y-95442829D01*
X111722829Y-95570825D01*
X111627913Y-95701466D01*
X110840405Y-94913959D01*
X110840403Y-94913959D01*
X110811131Y-94947339D01*
X110811126Y-94947346D01*
X110647265Y-95192580D01*
X110647258Y-95192593D01*
X110516812Y-95457111D01*
X110422005Y-95736400D01*
X110422001Y-95736415D01*
X110364464Y-96025675D01*
X110364462Y-96025687D01*
X110345172Y-96320000D01*
X110364462Y-96614312D01*
X110364464Y-96614324D01*
X110422001Y-96903584D01*
X110422005Y-96903599D01*
X110516812Y-97182888D01*
X110647258Y-97447406D01*
X110647265Y-97447419D01*
X110811123Y-97692649D01*
X110840405Y-97726040D01*
X111627912Y-96938532D01*
X111722829Y-97069175D01*
X111850825Y-97197171D01*
X111981465Y-97292086D01*
X111193958Y-98079593D01*
X111227350Y-98108876D01*
X111472580Y-98272734D01*
X111472593Y-98272741D01*
X111737111Y-98403187D01*
X112016400Y-98497994D01*
X112016415Y-98497998D01*
X112305675Y-98555535D01*
X112305687Y-98555537D01*
X112600000Y-98574827D01*
X112894312Y-98555537D01*
X112894324Y-98555535D01*
X113183584Y-98497998D01*
X113183599Y-98497994D01*
X113462888Y-98403187D01*
X113727406Y-98272741D01*
X113727419Y-98272734D01*
X113972648Y-98108877D01*
X114006039Y-98079593D01*
X113218533Y-97292086D01*
X113349175Y-97197171D01*
X113477171Y-97069175D01*
X113572086Y-96938533D01*
X114359593Y-97726039D01*
X114388877Y-97692648D01*
X114496684Y-97531304D01*
X115779500Y-97531304D01*
X115779500Y-97708695D01*
X115814103Y-97882658D01*
X115814106Y-97882667D01*
X115881983Y-98046540D01*
X115881990Y-98046553D01*
X115980535Y-98194034D01*
X115980538Y-98194038D01*
X116105961Y-98319461D01*
X116105965Y-98319464D01*
X116253446Y-98418009D01*
X116253459Y-98418016D01*
X116351884Y-98458784D01*
X116417334Y-98485894D01*
X116417336Y-98485894D01*
X116417341Y-98485896D01*
X116591304Y-98520499D01*
X116591307Y-98520500D01*
X116591309Y-98520500D01*
X117774645Y-98520500D01*
X117774646Y-98520500D01*
X117860746Y-98502198D01*
X117862180Y-98501902D01*
X117942666Y-98485894D01*
X117942669Y-98485892D01*
X117942672Y-98485892D01*
X117948496Y-98484126D01*
X117948631Y-98484573D01*
X117959315Y-98481247D01*
X117959803Y-98481144D01*
X118034057Y-98448082D01*
X118036955Y-98446837D01*
X118106547Y-98418013D01*
X118107633Y-98417287D01*
X118126095Y-98407104D01*
X118132730Y-98404151D01*
X118193054Y-98360322D01*
X118196952Y-98357605D01*
X118254035Y-98319464D01*
X118259739Y-98313758D01*
X118274531Y-98301126D01*
X118285871Y-98292888D01*
X118331274Y-98242461D01*
X118335687Y-98237810D01*
X118379464Y-98194035D01*
X118387687Y-98181727D01*
X118398642Y-98167643D01*
X118412531Y-98152218D01*
X118412530Y-98152218D01*
X118412533Y-98152216D01*
X118443091Y-98099284D01*
X118447368Y-98092408D01*
X118452432Y-98084830D01*
X118478013Y-98046547D01*
X118486259Y-98026637D01*
X118493433Y-98012091D01*
X118507179Y-97988285D01*
X118515401Y-97962979D01*
X118523995Y-97936528D01*
X118527355Y-97927423D01*
X118545894Y-97882666D01*
X118551411Y-97854927D01*
X118555094Y-97840813D01*
X118565674Y-97808256D01*
X118570656Y-97760837D01*
X118572361Y-97749604D01*
X118580500Y-97708695D01*
X118580500Y-97673692D01*
X118581179Y-97660731D01*
X118582254Y-97650499D01*
X118585460Y-97620000D01*
X118581179Y-97579266D01*
X118580500Y-97566306D01*
X118580500Y-97531309D01*
X118572360Y-97490393D01*
X118570656Y-97479156D01*
X118567321Y-97447419D01*
X118565674Y-97431744D01*
X118555094Y-97399183D01*
X118551409Y-97385059D01*
X118545895Y-97357339D01*
X118545894Y-97357338D01*
X118545894Y-97357334D01*
X118527352Y-97312569D01*
X118523990Y-97303455D01*
X118507181Y-97251720D01*
X118507178Y-97251715D01*
X118493424Y-97227892D01*
X118486256Y-97213355D01*
X118478014Y-97193456D01*
X118478013Y-97193454D01*
X118478013Y-97193453D01*
X118447359Y-97147577D01*
X118443088Y-97140708D01*
X118412534Y-97087785D01*
X118412530Y-97087780D01*
X118398637Y-97072350D01*
X118387684Y-97058268D01*
X118379464Y-97045965D01*
X118335721Y-97002222D01*
X118331255Y-96997516D01*
X118285871Y-96947112D01*
X118281143Y-96943677D01*
X118274527Y-96938870D01*
X118259737Y-96926238D01*
X118254035Y-96920536D01*
X118197008Y-96882431D01*
X118193016Y-96879649D01*
X118188872Y-96876638D01*
X118132730Y-96835849D01*
X118126092Y-96832893D01*
X118107643Y-96822719D01*
X118106551Y-96821989D01*
X118106546Y-96821986D01*
X118036993Y-96793177D01*
X118034010Y-96791895D01*
X117959806Y-96758856D01*
X117959797Y-96758853D01*
X117959285Y-96758745D01*
X117948626Y-96755438D01*
X117948494Y-96755874D01*
X117942667Y-96754106D01*
X117942666Y-96754106D01*
X117942663Y-96754105D01*
X117942662Y-96754105D01*
X117862268Y-96738113D01*
X117860715Y-96737794D01*
X117774646Y-96719500D01*
X117768691Y-96719500D01*
X116591309Y-96719500D01*
X116591306Y-96719500D01*
X116417341Y-96754103D01*
X116417332Y-96754106D01*
X116253459Y-96821983D01*
X116253446Y-96821990D01*
X116105965Y-96920535D01*
X116105961Y-96920538D01*
X115980538Y-97045961D01*
X115980535Y-97045965D01*
X115881990Y-97193446D01*
X115881983Y-97193459D01*
X115814106Y-97357332D01*
X115814103Y-97357341D01*
X115779500Y-97531304D01*
X114496684Y-97531304D01*
X114552734Y-97447419D01*
X114552741Y-97447406D01*
X114683187Y-97182888D01*
X114777994Y-96903599D01*
X114777998Y-96903584D01*
X114835535Y-96614324D01*
X114835537Y-96614312D01*
X114854827Y-96320000D01*
X114835537Y-96025687D01*
X114835535Y-96025675D01*
X114777998Y-95736415D01*
X114777994Y-95736400D01*
X114683187Y-95457111D01*
X114552741Y-95192593D01*
X114552734Y-95192580D01*
X114418245Y-94991304D01*
X115779500Y-94991304D01*
X115779500Y-95168695D01*
X115814103Y-95342658D01*
X115814106Y-95342667D01*
X115881983Y-95506540D01*
X115881990Y-95506553D01*
X115980535Y-95654034D01*
X115980538Y-95654038D01*
X116105961Y-95779461D01*
X116105965Y-95779464D01*
X116253446Y-95878009D01*
X116253459Y-95878016D01*
X116354059Y-95919685D01*
X116417334Y-95945894D01*
X116417336Y-95945894D01*
X116417341Y-95945896D01*
X116591304Y-95980499D01*
X116591307Y-95980500D01*
X116591309Y-95980500D01*
X117774645Y-95980500D01*
X117774646Y-95980500D01*
X117860746Y-95962198D01*
X117862180Y-95961902D01*
X117942666Y-95945894D01*
X117942669Y-95945892D01*
X117942672Y-95945892D01*
X117948496Y-95944126D01*
X117948631Y-95944573D01*
X117959315Y-95941247D01*
X117959803Y-95941144D01*
X118034057Y-95908082D01*
X118036955Y-95906837D01*
X118106547Y-95878013D01*
X118107633Y-95877287D01*
X118126095Y-95867104D01*
X118132730Y-95864151D01*
X118193054Y-95820322D01*
X118196952Y-95817605D01*
X118254035Y-95779464D01*
X118259739Y-95773758D01*
X118274531Y-95761126D01*
X118285871Y-95752888D01*
X118331274Y-95702461D01*
X118335687Y-95697810D01*
X118379464Y-95654035D01*
X118387687Y-95641727D01*
X118398642Y-95627643D01*
X118412531Y-95612218D01*
X118412530Y-95612218D01*
X118412533Y-95612216D01*
X118443091Y-95559284D01*
X118447368Y-95552408D01*
X118448776Y-95550301D01*
X118478013Y-95506547D01*
X118486259Y-95486637D01*
X118493433Y-95472091D01*
X118502083Y-95457111D01*
X118507179Y-95448284D01*
X118523995Y-95396528D01*
X118527355Y-95387423D01*
X118545894Y-95342666D01*
X118551411Y-95314927D01*
X118555094Y-95300813D01*
X118565674Y-95268256D01*
X118570656Y-95220837D01*
X118572361Y-95209604D01*
X118580500Y-95168695D01*
X118580500Y-95133692D01*
X118581179Y-95120731D01*
X118585460Y-95080000D01*
X118581179Y-95039266D01*
X118580500Y-95026306D01*
X118580500Y-94991309D01*
X118580499Y-94991304D01*
X118572358Y-94950383D01*
X118570656Y-94939156D01*
X118565674Y-94891744D01*
X118555094Y-94859183D01*
X118551409Y-94845059D01*
X118545895Y-94817339D01*
X118545894Y-94817338D01*
X118545894Y-94817334D01*
X118527352Y-94772569D01*
X118523990Y-94763455D01*
X118507181Y-94711720D01*
X118507178Y-94711715D01*
X118493424Y-94687892D01*
X118486256Y-94673355D01*
X118478014Y-94653456D01*
X118478013Y-94653454D01*
X118478013Y-94653453D01*
X118447359Y-94607577D01*
X118443088Y-94600708D01*
X118412534Y-94547785D01*
X118412530Y-94547780D01*
X118398637Y-94532350D01*
X118387684Y-94518268D01*
X118379464Y-94505965D01*
X118335721Y-94462222D01*
X118331255Y-94457516D01*
X118285871Y-94407112D01*
X118275395Y-94399501D01*
X118274527Y-94398870D01*
X118259737Y-94386238D01*
X118254035Y-94380536D01*
X118197008Y-94342431D01*
X118193016Y-94339649D01*
X118132730Y-94295849D01*
X118126092Y-94292893D01*
X118107643Y-94282719D01*
X118106551Y-94281989D01*
X118106546Y-94281986D01*
X118036993Y-94253177D01*
X118034010Y-94251895D01*
X117959806Y-94218856D01*
X117959797Y-94218853D01*
X117959285Y-94218745D01*
X117948626Y-94215438D01*
X117948494Y-94215874D01*
X117942667Y-94214106D01*
X117942666Y-94214106D01*
X117942663Y-94214105D01*
X117942662Y-94214105D01*
X117862268Y-94198113D01*
X117860715Y-94197794D01*
X117774646Y-94179500D01*
X117768691Y-94179500D01*
X116591309Y-94179500D01*
X116591306Y-94179500D01*
X116417341Y-94214103D01*
X116417332Y-94214106D01*
X116253459Y-94281983D01*
X116253446Y-94281990D01*
X116105965Y-94380535D01*
X116105961Y-94380538D01*
X115980538Y-94505961D01*
X115980535Y-94505965D01*
X115881990Y-94653446D01*
X115881983Y-94653459D01*
X115814106Y-94817332D01*
X115814103Y-94817341D01*
X115779500Y-94991304D01*
X114418245Y-94991304D01*
X114388876Y-94947350D01*
X114359593Y-94913958D01*
X113572086Y-95701465D01*
X113477171Y-95570825D01*
X113349175Y-95442829D01*
X113218533Y-95347912D01*
X114006040Y-94560405D01*
X113972649Y-94531123D01*
X113727419Y-94367265D01*
X113727406Y-94367258D01*
X113462888Y-94236812D01*
X113314096Y-94186303D01*
X113256942Y-94146114D01*
X113230589Y-94081404D01*
X113243404Y-94012720D01*
X113252381Y-93997760D01*
X113336662Y-93877394D01*
X113336666Y-93877388D01*
X113429101Y-93679159D01*
X113429105Y-93679150D01*
X113485710Y-93467894D01*
X113485712Y-93467884D01*
X113504775Y-93250000D01*
X113504775Y-93249999D01*
X113485712Y-93032115D01*
X113485710Y-93032105D01*
X113429105Y-92820849D01*
X113429101Y-92820840D01*
X113336667Y-92622614D01*
X113336666Y-92622612D01*
X113293124Y-92560428D01*
X113293124Y-92560427D01*
X112700302Y-93153249D01*
X112678651Y-93072447D01*
X112618091Y-92967554D01*
X112532446Y-92881909D01*
X112427553Y-92821349D01*
X112346749Y-92799697D01*
X112695141Y-92451304D01*
X115779500Y-92451304D01*
X115779500Y-92628695D01*
X115814103Y-92802658D01*
X115814106Y-92802667D01*
X115881983Y-92966540D01*
X115881990Y-92966553D01*
X115980535Y-93114034D01*
X115980538Y-93114038D01*
X116105961Y-93239461D01*
X116105965Y-93239464D01*
X116253446Y-93338009D01*
X116253459Y-93338016D01*
X116343610Y-93375357D01*
X116417334Y-93405894D01*
X116417336Y-93405894D01*
X116417341Y-93405896D01*
X116591304Y-93440499D01*
X116591307Y-93440500D01*
X116591309Y-93440500D01*
X117774645Y-93440500D01*
X117774646Y-93440500D01*
X117860746Y-93422198D01*
X117862180Y-93421902D01*
X117942666Y-93405894D01*
X117942669Y-93405892D01*
X117942672Y-93405892D01*
X117948496Y-93404126D01*
X117948631Y-93404573D01*
X117959315Y-93401247D01*
X117959803Y-93401144D01*
X118034057Y-93368082D01*
X118036955Y-93366837D01*
X118106547Y-93338013D01*
X118107633Y-93337287D01*
X118126095Y-93327104D01*
X118132730Y-93324151D01*
X118193065Y-93280315D01*
X118196952Y-93277605D01*
X118254035Y-93239464D01*
X118259739Y-93233758D01*
X118274531Y-93221126D01*
X118285871Y-93212888D01*
X118331274Y-93162461D01*
X118335687Y-93157810D01*
X118379464Y-93114035D01*
X118387687Y-93101727D01*
X118398642Y-93087643D01*
X118412531Y-93072218D01*
X118412530Y-93072218D01*
X118412533Y-93072216D01*
X118443091Y-93019284D01*
X118447368Y-93012408D01*
X118448445Y-93010796D01*
X118478013Y-92966547D01*
X118486259Y-92946637D01*
X118493433Y-92932091D01*
X118505531Y-92911139D01*
X118507179Y-92908284D01*
X118523995Y-92856528D01*
X118527351Y-92847431D01*
X118545894Y-92802666D01*
X118551411Y-92774927D01*
X118555094Y-92760813D01*
X118565674Y-92728256D01*
X118570656Y-92680837D01*
X118572361Y-92669604D01*
X118580500Y-92628695D01*
X118580500Y-92593692D01*
X118581179Y-92580731D01*
X118582065Y-92572302D01*
X118585460Y-92540000D01*
X118581179Y-92499266D01*
X118580500Y-92486306D01*
X118580500Y-92451309D01*
X118572360Y-92410393D01*
X118570656Y-92399156D01*
X118565674Y-92351744D01*
X118555094Y-92319183D01*
X118551409Y-92305059D01*
X118545895Y-92277339D01*
X118545894Y-92277338D01*
X118545894Y-92277334D01*
X118527352Y-92232569D01*
X118523990Y-92223455D01*
X118507181Y-92171720D01*
X118507179Y-92171716D01*
X118493424Y-92147892D01*
X118486256Y-92133355D01*
X118485977Y-92132682D01*
X118478013Y-92113453D01*
X118447359Y-92067577D01*
X118443088Y-92060708D01*
X118412534Y-92007785D01*
X118412530Y-92007780D01*
X118398637Y-91992350D01*
X118387684Y-91978268D01*
X118385501Y-91975001D01*
X118379464Y-91965965D01*
X118335721Y-91922222D01*
X118331255Y-91917516D01*
X118320763Y-91905864D01*
X118285871Y-91867112D01*
X118274527Y-91858870D01*
X118259737Y-91846238D01*
X118254035Y-91840536D01*
X118197008Y-91802431D01*
X118193016Y-91799649D01*
X118181511Y-91791290D01*
X118132730Y-91755849D01*
X118126092Y-91752893D01*
X118107643Y-91742719D01*
X118106551Y-91741989D01*
X118106546Y-91741986D01*
X118036993Y-91713177D01*
X118034010Y-91711895D01*
X117959806Y-91678856D01*
X117959797Y-91678853D01*
X117959285Y-91678745D01*
X117948626Y-91675438D01*
X117948494Y-91675874D01*
X117942667Y-91674106D01*
X117942666Y-91674106D01*
X117942663Y-91674105D01*
X117942662Y-91674105D01*
X117862268Y-91658113D01*
X117860715Y-91657794D01*
X117774646Y-91639500D01*
X117768691Y-91639500D01*
X116591309Y-91639500D01*
X116591306Y-91639500D01*
X116417341Y-91674103D01*
X116417332Y-91674106D01*
X116253459Y-91741983D01*
X116253446Y-91741990D01*
X116105965Y-91840535D01*
X116105961Y-91840538D01*
X115980538Y-91965961D01*
X115980535Y-91965965D01*
X115881990Y-92113446D01*
X115881983Y-92113459D01*
X115814106Y-92277332D01*
X115814103Y-92277341D01*
X115779500Y-92451304D01*
X112695141Y-92451304D01*
X112939571Y-92206874D01*
X112938087Y-92189913D01*
X112923368Y-92171498D01*
X112916175Y-92101999D01*
X112947697Y-92039645D01*
X113007927Y-92004231D01*
X113038116Y-92000500D01*
X114049826Y-92000500D01*
X114049828Y-92000500D01*
X114141897Y-91962364D01*
X114817442Y-91286819D01*
X114878765Y-91253334D01*
X114905123Y-91250500D01*
X118144040Y-91250500D01*
X118144042Y-91250500D01*
X118236111Y-91212364D01*
X118804455Y-90644017D01*
X118804458Y-90644016D01*
X118821896Y-90626578D01*
X118821897Y-90626578D01*
X118892364Y-90556111D01*
X118915399Y-90500499D01*
X118930501Y-90464041D01*
X118930501Y-90364386D01*
X118930501Y-90354397D01*
X118930500Y-90354383D01*
X118930500Y-90225123D01*
X118950185Y-90158084D01*
X118966819Y-90137442D01*
X121067442Y-88036819D01*
X121128765Y-88003334D01*
X121155123Y-88000500D01*
X121275501Y-88000500D01*
X121342540Y-88020185D01*
X121388295Y-88072989D01*
X121399501Y-88124500D01*
X121399501Y-88131518D01*
X121414354Y-88225304D01*
X121471950Y-88338342D01*
X121471952Y-88338344D01*
X121471954Y-88338347D01*
X121561651Y-88428044D01*
X121561654Y-88428046D01*
X121561658Y-88428050D01*
X121561662Y-88428052D01*
X121567380Y-88432206D01*
X121610049Y-88487533D01*
X121616033Y-88557146D01*
X121583431Y-88618943D01*
X121541955Y-88647090D01*
X121444067Y-88687637D01*
X121381705Y-88750000D01*
X121373602Y-88758103D01*
X121373601Y-88758104D01*
X120233155Y-89898550D01*
X119090662Y-91041042D01*
X119090661Y-91041042D01*
X119090662Y-91041043D01*
X119037636Y-91094069D01*
X118999500Y-91186136D01*
X118999500Y-98434876D01*
X118979815Y-98501915D01*
X118963181Y-98522557D01*
X118177298Y-99308439D01*
X118115975Y-99341924D01*
X118046283Y-99336940D01*
X118042162Y-99335318D01*
X118036991Y-99333176D01*
X118034010Y-99331895D01*
X117959806Y-99298856D01*
X117959797Y-99298853D01*
X117959285Y-99298745D01*
X117948626Y-99295438D01*
X117948494Y-99295874D01*
X117942667Y-99294106D01*
X117942666Y-99294106D01*
X117942663Y-99294105D01*
X117942662Y-99294105D01*
X117862268Y-99278113D01*
X117860715Y-99277794D01*
X117774646Y-99259500D01*
X117768691Y-99259500D01*
X116591309Y-99259500D01*
X116591306Y-99259500D01*
X116417341Y-99294103D01*
X116417332Y-99294106D01*
X116253459Y-99361983D01*
X116253446Y-99361990D01*
X116105965Y-99460535D01*
X116105961Y-99460538D01*
X115980538Y-99585961D01*
X115980535Y-99585965D01*
X115881990Y-99733446D01*
X115881983Y-99733459D01*
X115814106Y-99897332D01*
X115814103Y-99897341D01*
X115779500Y-100071304D01*
X115779500Y-100248695D01*
X115814103Y-100422658D01*
X115814106Y-100422667D01*
X115881983Y-100586540D01*
X115881990Y-100586553D01*
X115980535Y-100734034D01*
X115980538Y-100734038D01*
X116105961Y-100859461D01*
X116105965Y-100859464D01*
X116253446Y-100958009D01*
X116253459Y-100958016D01*
X116368006Y-101005462D01*
X116417334Y-101025894D01*
X116417336Y-101025894D01*
X116417341Y-101025896D01*
X116591304Y-101060499D01*
X116591307Y-101060500D01*
X116591309Y-101060500D01*
X117774645Y-101060500D01*
X117774646Y-101060500D01*
X117860746Y-101042198D01*
X117862180Y-101041902D01*
X117942666Y-101025894D01*
X117942669Y-101025892D01*
X117942672Y-101025892D01*
X117948496Y-101024126D01*
X117948631Y-101024573D01*
X117959315Y-101021247D01*
X117959803Y-101021144D01*
X118034057Y-100988082D01*
X118036955Y-100986837D01*
X118106547Y-100958013D01*
X118107633Y-100957287D01*
X118126095Y-100947104D01*
X118132730Y-100944151D01*
X118193054Y-100900322D01*
X118196952Y-100897605D01*
X118254035Y-100859464D01*
X118259739Y-100853758D01*
X118274531Y-100841126D01*
X118285871Y-100832888D01*
X118331274Y-100782461D01*
X118335687Y-100777810D01*
X118379464Y-100734035D01*
X118387687Y-100721727D01*
X118398642Y-100707643D01*
X118412531Y-100692218D01*
X118412530Y-100692218D01*
X118412533Y-100692216D01*
X118443091Y-100639284D01*
X118447368Y-100632408D01*
X118478012Y-100586548D01*
X118478013Y-100586547D01*
X118486259Y-100566637D01*
X118493433Y-100552091D01*
X118494641Y-100550000D01*
X118507179Y-100528284D01*
X118516369Y-100500000D01*
X118517610Y-100496182D01*
X118557048Y-100438506D01*
X118621406Y-100411308D01*
X118635541Y-100410500D01*
X118639826Y-100410500D01*
X118639828Y-100410500D01*
X118731897Y-100372364D01*
X119107820Y-99996440D01*
X119169142Y-99962956D01*
X119238833Y-99967940D01*
X119294767Y-100009811D01*
X119319184Y-100075276D01*
X119319500Y-100084122D01*
X119319500Y-100106306D01*
X119318821Y-100119266D01*
X119314540Y-100159999D01*
X119318821Y-100200731D01*
X119319500Y-100213692D01*
X119319500Y-101248695D01*
X119354103Y-101422658D01*
X119354106Y-101422667D01*
X119421983Y-101586540D01*
X119421990Y-101586553D01*
X119520535Y-101734034D01*
X119520538Y-101734038D01*
X119645961Y-101859461D01*
X119645965Y-101859464D01*
X119793446Y-101958009D01*
X119793459Y-101958016D01*
X119915432Y-102008538D01*
X119957334Y-102025894D01*
X119957336Y-102025894D01*
X119957341Y-102025896D01*
X120131304Y-102060499D01*
X120131307Y-102060500D01*
X120131309Y-102060500D01*
X120308693Y-102060500D01*
X120308694Y-102060499D01*
X120366682Y-102048964D01*
X120482658Y-102025896D01*
X120482661Y-102025894D01*
X120482666Y-102025894D01*
X120646547Y-101958013D01*
X120794035Y-101859464D01*
X120919464Y-101734035D01*
X121018013Y-101586547D01*
X121085894Y-101422666D01*
X121087185Y-101416180D01*
X121120499Y-101248695D01*
X121120500Y-101248693D01*
X121120500Y-100213692D01*
X121121179Y-100200731D01*
X121121992Y-100192993D01*
X121125460Y-100160000D01*
X121121179Y-100119266D01*
X121120500Y-100106306D01*
X121120500Y-100071309D01*
X121113578Y-100036513D01*
X121112358Y-100030383D01*
X121110656Y-100019156D01*
X121107757Y-99991568D01*
X121105674Y-99971744D01*
X121095094Y-99939183D01*
X121091409Y-99925059D01*
X121085895Y-99897339D01*
X121085894Y-99897338D01*
X121085894Y-99897334D01*
X121067352Y-99852569D01*
X121063990Y-99843455D01*
X121047181Y-99791720D01*
X121047178Y-99791715D01*
X121033424Y-99767892D01*
X121026256Y-99753355D01*
X121018014Y-99733456D01*
X121018013Y-99733454D01*
X121018013Y-99733453D01*
X120987359Y-99687577D01*
X120983088Y-99680708D01*
X120952534Y-99627785D01*
X120952530Y-99627780D01*
X120938637Y-99612350D01*
X120927684Y-99598268D01*
X120924803Y-99593956D01*
X120919464Y-99585965D01*
X120875721Y-99542222D01*
X120871255Y-99537516D01*
X120825871Y-99487112D01*
X120822850Y-99484917D01*
X120814527Y-99478870D01*
X120799737Y-99466238D01*
X120794035Y-99460536D01*
X120737008Y-99422431D01*
X120733016Y-99419649D01*
X120731359Y-99418445D01*
X120672730Y-99375849D01*
X120666092Y-99372893D01*
X120647643Y-99362719D01*
X120646551Y-99361989D01*
X120646546Y-99361986D01*
X120576993Y-99333177D01*
X120574010Y-99331895D01*
X120499806Y-99298856D01*
X120499797Y-99298853D01*
X120499285Y-99298745D01*
X120488626Y-99295438D01*
X120488494Y-99295874D01*
X120482667Y-99294106D01*
X120482666Y-99294106D01*
X120482663Y-99294105D01*
X120482662Y-99294105D01*
X120402268Y-99278113D01*
X120400715Y-99277794D01*
X120314646Y-99259500D01*
X120144122Y-99259500D01*
X120077083Y-99239815D01*
X120031328Y-99187011D01*
X120021384Y-99117853D01*
X120050409Y-99054297D01*
X120056441Y-99047819D01*
X123418752Y-95685507D01*
X123480075Y-95652022D01*
X123549767Y-95657006D01*
X123594114Y-95685507D01*
X123661652Y-95753045D01*
X123661654Y-95753046D01*
X123661658Y-95753050D01*
X123754140Y-95800172D01*
X123774698Y-95810647D01*
X123868475Y-95825499D01*
X123868481Y-95825500D01*
X124831518Y-95825499D01*
X124925304Y-95810646D01*
X125038342Y-95753050D01*
X125128050Y-95663342D01*
X125185646Y-95550304D01*
X125185646Y-95550302D01*
X125185647Y-95550301D01*
X125200499Y-95456524D01*
X125200500Y-95456519D01*
X125200499Y-94743482D01*
X125185646Y-94649696D01*
X125128050Y-94536658D01*
X125128046Y-94536654D01*
X125128045Y-94536652D01*
X125038347Y-94446954D01*
X125038344Y-94446952D01*
X125038342Y-94446950D01*
X124943990Y-94398875D01*
X124925301Y-94389352D01*
X124831524Y-94374500D01*
X123868482Y-94374500D01*
X123787519Y-94387323D01*
X123774696Y-94389354D01*
X123661658Y-94446950D01*
X123661657Y-94446951D01*
X123661652Y-94446954D01*
X123571954Y-94536652D01*
X123571951Y-94536657D01*
X123571950Y-94536658D01*
X123559851Y-94560403D01*
X123514352Y-94649698D01*
X123499500Y-94743475D01*
X123499500Y-94844875D01*
X123479815Y-94911914D01*
X123463183Y-94932555D01*
X123437637Y-94958102D01*
X123437635Y-94958104D01*
X122862180Y-95533557D01*
X122800857Y-95567042D01*
X122731165Y-95562058D01*
X122675232Y-95520186D01*
X122650815Y-95454722D01*
X122650499Y-95445902D01*
X122650499Y-94768482D01*
X122635646Y-94674696D01*
X122578050Y-94561658D01*
X122578046Y-94561654D01*
X122578045Y-94561652D01*
X122488347Y-94471954D01*
X122488344Y-94471952D01*
X122488342Y-94471950D01*
X122411517Y-94432805D01*
X122375301Y-94414352D01*
X122281524Y-94399500D01*
X121318482Y-94399500D01*
X121237519Y-94412323D01*
X121224696Y-94414354D01*
X121111658Y-94471950D01*
X121111657Y-94471951D01*
X121111652Y-94471954D01*
X121021954Y-94561652D01*
X121021951Y-94561657D01*
X120964352Y-94674698D01*
X120949500Y-94768475D01*
X120949500Y-95481517D01*
X120955625Y-95520186D01*
X120964354Y-95575304D01*
X121021950Y-95688342D01*
X121021952Y-95688344D01*
X121021954Y-95688347D01*
X121111652Y-95778045D01*
X121111654Y-95778046D01*
X121111658Y-95778050D01*
X121224696Y-95835646D01*
X121224698Y-95835647D01*
X121318475Y-95850499D01*
X121318481Y-95850500D01*
X122245877Y-95850499D01*
X122312916Y-95870183D01*
X122358671Y-95922987D01*
X122368615Y-95992146D01*
X122339590Y-96055702D01*
X122333558Y-96062180D01*
X119712181Y-98683557D01*
X119650858Y-98717042D01*
X119581166Y-98712058D01*
X119525233Y-98670186D01*
X119500816Y-98604722D01*
X119500500Y-98595876D01*
X119500500Y-93449986D01*
X120600001Y-93449986D01*
X120610494Y-93552697D01*
X120665641Y-93719119D01*
X120665643Y-93719124D01*
X120757684Y-93868345D01*
X120881654Y-93992315D01*
X121030875Y-94084356D01*
X121030880Y-94084358D01*
X121197302Y-94139505D01*
X121197309Y-94139506D01*
X121300019Y-94149999D01*
X121549999Y-94149999D01*
X121550000Y-94149998D01*
X121550000Y-93325000D01*
X120600001Y-93325000D01*
X120600001Y-93449986D01*
X119500500Y-93449986D01*
X119500500Y-92700013D01*
X120600000Y-92700013D01*
X120600000Y-92825000D01*
X121550000Y-92825000D01*
X121550000Y-92000000D01*
X121300029Y-92000000D01*
X121300012Y-92000001D01*
X121197302Y-92010494D01*
X121030880Y-92065641D01*
X121030875Y-92065643D01*
X120881654Y-92157684D01*
X120757684Y-92281654D01*
X120665643Y-92430875D01*
X120665641Y-92430880D01*
X120610494Y-92597302D01*
X120610493Y-92597309D01*
X120600000Y-92700013D01*
X119500500Y-92700013D01*
X119500500Y-91391088D01*
X119520185Y-91324049D01*
X119536819Y-91303407D01*
X120360922Y-90479304D01*
X121187821Y-89652404D01*
X121249142Y-89618921D01*
X121318834Y-89623905D01*
X121374767Y-89665777D01*
X121399184Y-89731241D01*
X121399500Y-89740087D01*
X121399500Y-90131517D01*
X121405533Y-90169608D01*
X121414354Y-90225304D01*
X121471950Y-90338342D01*
X121471952Y-90338344D01*
X121471954Y-90338347D01*
X121561652Y-90428045D01*
X121561654Y-90428046D01*
X121561658Y-90428050D01*
X121674694Y-90485645D01*
X121674698Y-90485647D01*
X121768475Y-90500499D01*
X121768481Y-90500500D01*
X122731518Y-90500499D01*
X122825304Y-90485646D01*
X122938342Y-90428050D01*
X123028050Y-90338342D01*
X123085646Y-90225304D01*
X123085646Y-90225302D01*
X123085647Y-90225301D01*
X123100499Y-90131524D01*
X123100500Y-90131519D01*
X123100499Y-89368482D01*
X123090641Y-89306233D01*
X123088687Y-89293896D01*
X123097643Y-89224603D01*
X123142640Y-89171151D01*
X123209392Y-89150513D01*
X123211161Y-89150500D01*
X123338839Y-89150500D01*
X123405878Y-89170185D01*
X123451633Y-89222989D01*
X123461577Y-89292147D01*
X123461312Y-89293898D01*
X123449500Y-89368475D01*
X123449500Y-90131517D01*
X123455533Y-90169608D01*
X123464354Y-90225304D01*
X123521950Y-90338342D01*
X123521952Y-90338344D01*
X123521954Y-90338347D01*
X123611652Y-90428045D01*
X123611654Y-90428046D01*
X123611658Y-90428050D01*
X123724694Y-90485645D01*
X123724698Y-90485647D01*
X123818475Y-90500499D01*
X123818481Y-90500500D01*
X123925500Y-90500499D01*
X123992539Y-90520183D01*
X124038294Y-90572987D01*
X124049500Y-90624499D01*
X124049500Y-91024829D01*
X124087636Y-91116897D01*
X124258558Y-91287819D01*
X124292043Y-91349142D01*
X124287059Y-91418834D01*
X124245187Y-91474767D01*
X124179723Y-91499184D01*
X124170877Y-91499500D01*
X123685667Y-91499500D01*
X123618628Y-91479815D01*
X123591953Y-91456702D01*
X123590353Y-91454856D01*
X123548049Y-91406033D01*
X123439069Y-91335996D01*
X123439065Y-91335994D01*
X123439064Y-91335994D01*
X123314774Y-91299500D01*
X123314772Y-91299500D01*
X123185228Y-91299500D01*
X123185226Y-91299500D01*
X123060935Y-91335994D01*
X123060932Y-91335995D01*
X123060931Y-91335996D01*
X123026921Y-91357853D01*
X122951950Y-91406033D01*
X122867118Y-91503937D01*
X122867117Y-91503938D01*
X122813302Y-91621774D01*
X122794867Y-91750000D01*
X122813302Y-91878225D01*
X122858604Y-91977421D01*
X122868548Y-92046580D01*
X122839523Y-92110136D01*
X122780745Y-92147910D01*
X122710875Y-92147910D01*
X122680713Y-92134472D01*
X122569124Y-92065643D01*
X122569119Y-92065641D01*
X122402697Y-92010494D01*
X122402690Y-92010493D01*
X122299986Y-92000000D01*
X122050000Y-92000000D01*
X122050000Y-94149999D01*
X122299972Y-94149999D01*
X122299986Y-94149998D01*
X122402697Y-94139505D01*
X122569119Y-94084358D01*
X122569124Y-94084356D01*
X122718345Y-93992315D01*
X122842315Y-93868345D01*
X122934356Y-93719124D01*
X122934360Y-93719115D01*
X122961435Y-93637406D01*
X123001206Y-93579960D01*
X123065722Y-93553136D01*
X123134498Y-93565450D01*
X123185698Y-93612993D01*
X123196846Y-93637402D01*
X123215640Y-93694116D01*
X123215643Y-93694124D01*
X123307684Y-93843345D01*
X123431654Y-93967315D01*
X123580875Y-94059356D01*
X123580880Y-94059358D01*
X123747302Y-94114505D01*
X123747309Y-94114506D01*
X123850019Y-94124999D01*
X124099999Y-94124999D01*
X124100000Y-94124998D01*
X124100000Y-92924000D01*
X124119685Y-92856961D01*
X124172489Y-92811206D01*
X124224000Y-92800000D01*
X125183412Y-92800000D01*
X125250451Y-92819685D01*
X125271093Y-92836319D01*
X125463181Y-93028407D01*
X125496666Y-93089730D01*
X125499500Y-93116088D01*
X125499500Y-93176000D01*
X125479815Y-93243039D01*
X125427011Y-93288794D01*
X125375500Y-93300000D01*
X124600000Y-93300000D01*
X124600000Y-94124999D01*
X124849972Y-94124999D01*
X124849986Y-94124998D01*
X124952697Y-94114505D01*
X125119119Y-94059358D01*
X125119124Y-94059356D01*
X125268345Y-93967315D01*
X125287819Y-93947842D01*
X125349142Y-93914357D01*
X125418834Y-93919341D01*
X125474767Y-93961213D01*
X125499184Y-94026677D01*
X125499500Y-94035523D01*
X125499500Y-94149829D01*
X125528046Y-94218744D01*
X125537636Y-94241897D01*
X125724844Y-94429105D01*
X125873927Y-94578187D01*
X125907412Y-94639510D01*
X125908720Y-94685265D01*
X125899500Y-94743480D01*
X125899500Y-95456517D01*
X125907423Y-95506540D01*
X125914354Y-95550304D01*
X125971950Y-95663342D01*
X125971952Y-95663344D01*
X125971954Y-95663347D01*
X126061652Y-95753045D01*
X126061654Y-95753046D01*
X126061658Y-95753050D01*
X126154140Y-95800172D01*
X126174698Y-95810647D01*
X126268475Y-95825499D01*
X126268481Y-95825500D01*
X126375500Y-95825499D01*
X126442539Y-95845183D01*
X126488294Y-95897987D01*
X126499500Y-95949499D01*
X126499500Y-96014876D01*
X126479815Y-96081915D01*
X126463181Y-96102557D01*
X123257298Y-99308439D01*
X123195975Y-99341924D01*
X123126283Y-99336940D01*
X123122162Y-99335318D01*
X123116991Y-99333176D01*
X123114010Y-99331895D01*
X123039806Y-99298856D01*
X123039797Y-99298853D01*
X123039285Y-99298745D01*
X123028626Y-99295438D01*
X123028494Y-99295874D01*
X123022667Y-99294106D01*
X123022666Y-99294106D01*
X123022663Y-99294105D01*
X123022662Y-99294105D01*
X122942268Y-99278113D01*
X122940715Y-99277794D01*
X122854646Y-99259500D01*
X122665354Y-99259500D01*
X122665350Y-99259500D01*
X122579334Y-99277783D01*
X122577745Y-99278110D01*
X122497336Y-99294105D01*
X122491514Y-99295871D01*
X122491382Y-99295437D01*
X122480720Y-99298744D01*
X122480200Y-99298854D01*
X122480199Y-99298854D01*
X122405969Y-99331904D01*
X122402986Y-99333185D01*
X122333457Y-99361984D01*
X122333450Y-99361988D01*
X122332346Y-99362726D01*
X122313911Y-99372892D01*
X122307272Y-99375848D01*
X122307264Y-99375853D01*
X122246976Y-99419653D01*
X122242986Y-99422434D01*
X122185968Y-99460533D01*
X122185958Y-99460542D01*
X122180253Y-99466246D01*
X122165472Y-99478870D01*
X122154129Y-99487111D01*
X122154126Y-99487114D01*
X122108742Y-99537517D01*
X122104277Y-99542222D01*
X122060539Y-99585961D01*
X122060532Y-99585969D01*
X122052310Y-99598275D01*
X122041362Y-99612350D01*
X122027472Y-99627776D01*
X122027467Y-99627784D01*
X122010006Y-99658028D01*
X121996914Y-99680703D01*
X121992630Y-99687591D01*
X121961988Y-99733450D01*
X121953741Y-99753360D01*
X121946569Y-99767902D01*
X121932824Y-99791710D01*
X121932821Y-99791715D01*
X121916010Y-99843451D01*
X121912643Y-99852578D01*
X121894106Y-99897333D01*
X121888589Y-99925066D01*
X121884905Y-99939183D01*
X121874325Y-99971747D01*
X121869340Y-100019171D01*
X121867638Y-100030396D01*
X121859500Y-100071310D01*
X121859500Y-100106306D01*
X121858821Y-100119266D01*
X121854540Y-100159999D01*
X121858821Y-100200731D01*
X121859500Y-100213692D01*
X121859500Y-101248695D01*
X121894103Y-101422658D01*
X121894106Y-101422667D01*
X121961983Y-101586540D01*
X121961990Y-101586553D01*
X122060535Y-101734034D01*
X122060538Y-101734038D01*
X122185961Y-101859461D01*
X122185965Y-101859464D01*
X122333446Y-101958009D01*
X122333459Y-101958016D01*
X122455432Y-102008538D01*
X122497334Y-102025894D01*
X122497336Y-102025894D01*
X122497341Y-102025896D01*
X122671304Y-102060499D01*
X122671307Y-102060500D01*
X122671309Y-102060500D01*
X122848693Y-102060500D01*
X122848694Y-102060499D01*
X122906682Y-102048964D01*
X123022658Y-102025896D01*
X123022661Y-102025894D01*
X123022666Y-102025894D01*
X123186547Y-101958013D01*
X123334035Y-101859464D01*
X123459464Y-101734035D01*
X123558013Y-101586547D01*
X123625894Y-101422666D01*
X123627185Y-101416180D01*
X123660499Y-101248695D01*
X123660500Y-101248693D01*
X123660500Y-100213692D01*
X123661179Y-100200731D01*
X123661992Y-100192993D01*
X123665460Y-100160000D01*
X123661179Y-100119266D01*
X123660500Y-100106306D01*
X123660500Y-100071309D01*
X123653578Y-100036513D01*
X123652358Y-100030383D01*
X123650656Y-100019156D01*
X123647757Y-99991568D01*
X123645674Y-99971744D01*
X123635094Y-99939183D01*
X123631409Y-99925059D01*
X123625895Y-99897339D01*
X123625894Y-99897338D01*
X123625894Y-99897334D01*
X123607352Y-99852569D01*
X123603990Y-99843455D01*
X123585171Y-99785534D01*
X123587925Y-99784639D01*
X123580324Y-99727910D01*
X123609958Y-99664636D01*
X123615190Y-99659069D01*
X126962364Y-96311897D01*
X127000500Y-96219828D01*
X127000500Y-96120172D01*
X127000500Y-95949499D01*
X127020185Y-95882460D01*
X127072989Y-95836705D01*
X127124500Y-95825499D01*
X127231517Y-95825499D01*
X127231518Y-95825499D01*
X127325304Y-95810646D01*
X127438342Y-95753050D01*
X127528050Y-95663342D01*
X127585646Y-95550304D01*
X127585646Y-95550302D01*
X127585647Y-95550301D01*
X127600499Y-95456524D01*
X127600500Y-95456519D01*
X127600499Y-94929121D01*
X127620183Y-94862083D01*
X127672987Y-94816328D01*
X127742146Y-94806384D01*
X127805702Y-94835409D01*
X127812180Y-94841441D01*
X128113181Y-95142442D01*
X128146666Y-95203765D01*
X128149500Y-95230122D01*
X128149500Y-95456517D01*
X128157423Y-95506540D01*
X128164354Y-95550304D01*
X128221950Y-95663342D01*
X128221952Y-95663344D01*
X128221954Y-95663347D01*
X128311652Y-95753045D01*
X128311654Y-95753046D01*
X128311658Y-95753050D01*
X128404140Y-95800172D01*
X128424698Y-95810647D01*
X128518475Y-95825499D01*
X128518481Y-95825500D01*
X128625500Y-95825499D01*
X128692539Y-95845183D01*
X128738294Y-95897987D01*
X128749500Y-95949499D01*
X128749500Y-96304876D01*
X128729815Y-96371915D01*
X128713181Y-96392557D01*
X125797298Y-99308439D01*
X125735975Y-99341924D01*
X125666283Y-99336940D01*
X125662162Y-99335318D01*
X125656991Y-99333176D01*
X125654010Y-99331895D01*
X125579806Y-99298856D01*
X125579797Y-99298853D01*
X125579285Y-99298745D01*
X125568626Y-99295438D01*
X125568494Y-99295874D01*
X125562667Y-99294106D01*
X125562666Y-99294106D01*
X125562663Y-99294105D01*
X125562662Y-99294105D01*
X125482268Y-99278113D01*
X125480715Y-99277794D01*
X125394646Y-99259500D01*
X125205354Y-99259500D01*
X125205350Y-99259500D01*
X125119334Y-99277783D01*
X125117745Y-99278110D01*
X125037336Y-99294105D01*
X125031514Y-99295871D01*
X125031382Y-99295437D01*
X125020720Y-99298744D01*
X125020200Y-99298854D01*
X125020199Y-99298854D01*
X124945969Y-99331904D01*
X124942986Y-99333185D01*
X124873457Y-99361984D01*
X124873450Y-99361988D01*
X124872346Y-99362726D01*
X124853911Y-99372892D01*
X124847272Y-99375848D01*
X124847264Y-99375853D01*
X124786976Y-99419653D01*
X124782986Y-99422434D01*
X124725968Y-99460533D01*
X124725958Y-99460542D01*
X124720253Y-99466246D01*
X124705472Y-99478870D01*
X124694129Y-99487111D01*
X124694126Y-99487114D01*
X124648742Y-99537517D01*
X124644277Y-99542222D01*
X124600539Y-99585961D01*
X124600532Y-99585969D01*
X124592310Y-99598275D01*
X124581362Y-99612350D01*
X124567472Y-99627776D01*
X124567467Y-99627784D01*
X124550006Y-99658028D01*
X124536914Y-99680703D01*
X124532630Y-99687591D01*
X124501988Y-99733450D01*
X124493741Y-99753360D01*
X124486569Y-99767902D01*
X124472824Y-99791710D01*
X124472821Y-99791715D01*
X124456010Y-99843451D01*
X124452643Y-99852578D01*
X124434106Y-99897333D01*
X124428589Y-99925066D01*
X124424905Y-99939183D01*
X124414325Y-99971747D01*
X124409340Y-100019171D01*
X124407638Y-100030396D01*
X124399500Y-100071310D01*
X124399500Y-100106306D01*
X124398821Y-100119266D01*
X124394540Y-100159999D01*
X124398821Y-100200731D01*
X124399500Y-100213692D01*
X124399500Y-101248695D01*
X124434103Y-101422658D01*
X124434106Y-101422667D01*
X124501983Y-101586540D01*
X124501990Y-101586553D01*
X124600535Y-101734034D01*
X124600538Y-101734038D01*
X124725961Y-101859461D01*
X124725965Y-101859464D01*
X124873446Y-101958009D01*
X124873459Y-101958016D01*
X124995432Y-102008538D01*
X125037334Y-102025894D01*
X125037336Y-102025894D01*
X125037341Y-102025896D01*
X125211304Y-102060499D01*
X125211307Y-102060500D01*
X125211309Y-102060500D01*
X125388693Y-102060500D01*
X125388694Y-102060499D01*
X125446682Y-102048964D01*
X125562658Y-102025896D01*
X125562661Y-102025894D01*
X125562666Y-102025894D01*
X125726547Y-101958013D01*
X125874035Y-101859464D01*
X125999464Y-101734035D01*
X126098013Y-101586547D01*
X126165894Y-101422666D01*
X126167185Y-101416180D01*
X126200499Y-101248695D01*
X126200500Y-101248693D01*
X126200500Y-100213692D01*
X126201179Y-100200731D01*
X126201992Y-100192993D01*
X126205460Y-100160000D01*
X126205460Y-100159999D01*
X126934540Y-100159999D01*
X126938821Y-100200731D01*
X126939500Y-100213692D01*
X126939500Y-101248695D01*
X126974103Y-101422658D01*
X126974106Y-101422667D01*
X127041983Y-101586540D01*
X127041990Y-101586553D01*
X127140535Y-101734034D01*
X127140538Y-101734038D01*
X127265961Y-101859461D01*
X127265965Y-101859464D01*
X127413446Y-101958009D01*
X127413459Y-101958016D01*
X127535432Y-102008538D01*
X127577334Y-102025894D01*
X127577336Y-102025894D01*
X127577341Y-102025896D01*
X127751304Y-102060499D01*
X127751307Y-102060500D01*
X127751309Y-102060500D01*
X127928693Y-102060500D01*
X127928694Y-102060499D01*
X127986682Y-102048964D01*
X128102658Y-102025896D01*
X128102661Y-102025894D01*
X128102666Y-102025894D01*
X128266547Y-101958013D01*
X128414035Y-101859464D01*
X128539464Y-101734035D01*
X128638013Y-101586547D01*
X128705894Y-101422666D01*
X128707185Y-101416180D01*
X128740499Y-101248695D01*
X128740500Y-101248693D01*
X128740500Y-100213692D01*
X128741179Y-100200731D01*
X128741992Y-100192993D01*
X128745460Y-100160000D01*
X128745460Y-100159999D01*
X129474540Y-100159999D01*
X129478821Y-100200731D01*
X129479500Y-100213692D01*
X129479500Y-101248695D01*
X129514103Y-101422658D01*
X129514106Y-101422667D01*
X129581983Y-101586540D01*
X129581990Y-101586553D01*
X129680535Y-101734034D01*
X129680538Y-101734038D01*
X129805961Y-101859461D01*
X129805965Y-101859464D01*
X129953446Y-101958009D01*
X129953459Y-101958016D01*
X130075432Y-102008538D01*
X130117334Y-102025894D01*
X130117336Y-102025894D01*
X130117341Y-102025896D01*
X130291304Y-102060499D01*
X130291307Y-102060500D01*
X130291309Y-102060500D01*
X130468693Y-102060500D01*
X130468694Y-102060499D01*
X130526682Y-102048964D01*
X130642658Y-102025896D01*
X130642661Y-102025894D01*
X130642666Y-102025894D01*
X130806547Y-101958013D01*
X130954035Y-101859464D01*
X131079464Y-101734035D01*
X131178013Y-101586547D01*
X131245894Y-101422666D01*
X131247185Y-101416180D01*
X131280499Y-101248695D01*
X131280500Y-101248693D01*
X131280500Y-100213692D01*
X131281179Y-100200731D01*
X131281992Y-100192993D01*
X131285460Y-100160000D01*
X131281179Y-100119266D01*
X131280500Y-100106306D01*
X131280500Y-100071309D01*
X131273578Y-100036513D01*
X131272358Y-100030383D01*
X131270656Y-100019156D01*
X131267757Y-99991568D01*
X131265674Y-99971744D01*
X131255094Y-99939183D01*
X131251409Y-99925059D01*
X131245895Y-99897339D01*
X131245894Y-99897338D01*
X131245894Y-99897334D01*
X131227352Y-99852569D01*
X131223990Y-99843455D01*
X131207181Y-99791720D01*
X131207178Y-99791715D01*
X131193424Y-99767892D01*
X131186256Y-99753355D01*
X131178014Y-99733456D01*
X131178013Y-99733454D01*
X131178013Y-99733453D01*
X131147359Y-99687577D01*
X131143088Y-99680708D01*
X131112534Y-99627785D01*
X131112530Y-99627780D01*
X131098637Y-99612350D01*
X131087684Y-99598268D01*
X131084803Y-99593956D01*
X131079464Y-99585965D01*
X131035721Y-99542222D01*
X131031255Y-99537516D01*
X130985871Y-99487112D01*
X130982850Y-99484917D01*
X130974527Y-99478870D01*
X130959737Y-99466238D01*
X130954035Y-99460536D01*
X130897008Y-99422431D01*
X130893016Y-99419649D01*
X130891359Y-99418445D01*
X130832730Y-99375849D01*
X130826092Y-99372893D01*
X130807643Y-99362719D01*
X130806551Y-99361989D01*
X130806546Y-99361986D01*
X130736993Y-99333177D01*
X130734010Y-99331895D01*
X130659806Y-99298856D01*
X130659797Y-99298853D01*
X130659285Y-99298745D01*
X130648626Y-99295438D01*
X130648494Y-99295874D01*
X130642667Y-99294106D01*
X130642666Y-99294106D01*
X130642663Y-99294105D01*
X130642662Y-99294105D01*
X130562268Y-99278113D01*
X130560715Y-99277794D01*
X130474646Y-99259500D01*
X130285354Y-99259500D01*
X130285350Y-99259500D01*
X130199334Y-99277783D01*
X130197745Y-99278110D01*
X130117336Y-99294105D01*
X130111514Y-99295871D01*
X130111382Y-99295437D01*
X130100720Y-99298744D01*
X130100200Y-99298854D01*
X130100199Y-99298854D01*
X130025969Y-99331904D01*
X130022986Y-99333185D01*
X129953457Y-99361984D01*
X129953450Y-99361988D01*
X129952346Y-99362726D01*
X129933911Y-99372892D01*
X129927272Y-99375848D01*
X129927264Y-99375853D01*
X129866976Y-99419653D01*
X129862986Y-99422434D01*
X129805968Y-99460533D01*
X129805958Y-99460542D01*
X129800253Y-99466246D01*
X129785472Y-99478870D01*
X129774129Y-99487111D01*
X129774126Y-99487114D01*
X129728742Y-99537517D01*
X129724277Y-99542222D01*
X129680539Y-99585961D01*
X129680532Y-99585969D01*
X129672310Y-99598275D01*
X129661362Y-99612350D01*
X129647472Y-99627776D01*
X129647467Y-99627784D01*
X129630006Y-99658028D01*
X129616914Y-99680703D01*
X129612630Y-99687591D01*
X129581988Y-99733450D01*
X129573741Y-99753360D01*
X129566569Y-99767902D01*
X129552824Y-99791710D01*
X129552821Y-99791715D01*
X129536010Y-99843451D01*
X129532643Y-99852578D01*
X129514106Y-99897333D01*
X129508589Y-99925066D01*
X129504905Y-99939183D01*
X129494325Y-99971747D01*
X129489340Y-100019171D01*
X129487638Y-100030396D01*
X129479500Y-100071310D01*
X129479500Y-100106306D01*
X129478821Y-100119266D01*
X129474540Y-100159999D01*
X128745460Y-100159999D01*
X128741179Y-100119266D01*
X128740500Y-100106306D01*
X128740500Y-100071309D01*
X128733578Y-100036513D01*
X128732358Y-100030383D01*
X128730656Y-100019156D01*
X128727757Y-99991568D01*
X128725674Y-99971744D01*
X128715094Y-99939183D01*
X128711409Y-99925059D01*
X128705895Y-99897339D01*
X128705894Y-99897338D01*
X128705894Y-99897334D01*
X128687352Y-99852569D01*
X128683990Y-99843455D01*
X128667181Y-99791720D01*
X128667178Y-99791715D01*
X128653424Y-99767892D01*
X128646256Y-99753355D01*
X128638014Y-99733456D01*
X128638013Y-99733454D01*
X128638013Y-99733453D01*
X128607359Y-99687577D01*
X128603088Y-99680708D01*
X128572534Y-99627785D01*
X128572530Y-99627780D01*
X128558637Y-99612350D01*
X128547684Y-99598268D01*
X128544803Y-99593956D01*
X128539464Y-99585965D01*
X128495721Y-99542222D01*
X128491255Y-99537516D01*
X128445871Y-99487112D01*
X128442850Y-99484917D01*
X128434527Y-99478870D01*
X128419737Y-99466238D01*
X128414035Y-99460536D01*
X128357008Y-99422431D01*
X128353016Y-99419649D01*
X128351359Y-99418445D01*
X128292730Y-99375849D01*
X128286092Y-99372893D01*
X128267643Y-99362719D01*
X128266551Y-99361989D01*
X128266546Y-99361986D01*
X128196993Y-99333177D01*
X128194010Y-99331895D01*
X128119806Y-99298856D01*
X128119797Y-99298853D01*
X128119285Y-99298745D01*
X128108626Y-99295438D01*
X128108494Y-99295874D01*
X128102667Y-99294106D01*
X128102666Y-99294106D01*
X128102663Y-99294105D01*
X128102662Y-99294105D01*
X128022268Y-99278113D01*
X128020715Y-99277794D01*
X127934646Y-99259500D01*
X127745354Y-99259500D01*
X127745350Y-99259500D01*
X127659334Y-99277783D01*
X127657745Y-99278110D01*
X127577336Y-99294105D01*
X127571514Y-99295871D01*
X127571382Y-99295437D01*
X127560720Y-99298744D01*
X127560200Y-99298854D01*
X127560199Y-99298854D01*
X127485969Y-99331904D01*
X127482986Y-99333185D01*
X127413457Y-99361984D01*
X127413450Y-99361988D01*
X127412346Y-99362726D01*
X127393911Y-99372892D01*
X127387272Y-99375848D01*
X127387264Y-99375853D01*
X127326976Y-99419653D01*
X127322986Y-99422434D01*
X127265968Y-99460533D01*
X127265958Y-99460542D01*
X127260253Y-99466246D01*
X127245472Y-99478870D01*
X127234129Y-99487111D01*
X127234126Y-99487114D01*
X127188742Y-99537517D01*
X127184277Y-99542222D01*
X127140539Y-99585961D01*
X127140532Y-99585969D01*
X127132310Y-99598275D01*
X127121362Y-99612350D01*
X127107472Y-99627776D01*
X127107467Y-99627784D01*
X127090006Y-99658028D01*
X127076914Y-99680703D01*
X127072630Y-99687591D01*
X127041988Y-99733450D01*
X127033741Y-99753360D01*
X127026569Y-99767902D01*
X127012824Y-99791710D01*
X127012821Y-99791715D01*
X126996010Y-99843451D01*
X126992643Y-99852578D01*
X126974106Y-99897333D01*
X126968589Y-99925066D01*
X126964905Y-99939183D01*
X126954325Y-99971747D01*
X126949340Y-100019171D01*
X126947638Y-100030396D01*
X126939500Y-100071310D01*
X126939500Y-100106306D01*
X126938821Y-100119266D01*
X126934540Y-100159999D01*
X126205460Y-100159999D01*
X126201179Y-100119266D01*
X126200500Y-100106306D01*
X126200500Y-100071309D01*
X126193578Y-100036513D01*
X126192358Y-100030383D01*
X126190656Y-100019156D01*
X126187757Y-99991568D01*
X126185674Y-99971744D01*
X126175094Y-99939183D01*
X126171409Y-99925059D01*
X126165895Y-99897339D01*
X126165894Y-99897338D01*
X126165894Y-99897334D01*
X126147352Y-99852569D01*
X126143990Y-99843455D01*
X126125171Y-99785534D01*
X126127925Y-99784639D01*
X126120324Y-99727910D01*
X126149958Y-99664636D01*
X126155190Y-99659070D01*
X129212364Y-96601897D01*
X129246867Y-96518597D01*
X129290708Y-96464195D01*
X129357002Y-96442130D01*
X129424701Y-96459409D01*
X129449109Y-96478370D01*
X131803103Y-98832364D01*
X131895172Y-98870500D01*
X131994827Y-98870500D01*
X134179091Y-98870500D01*
X134246130Y-98890185D01*
X134266772Y-98906819D01*
X134587615Y-99227662D01*
X134621100Y-99288985D01*
X134616116Y-99358677D01*
X134574244Y-99414610D01*
X134508780Y-99439027D01*
X134440507Y-99424175D01*
X134431043Y-99418445D01*
X134346553Y-99361990D01*
X134346540Y-99361983D01*
X134182667Y-99294106D01*
X134182658Y-99294103D01*
X134008694Y-99259500D01*
X134008691Y-99259500D01*
X133014646Y-99259500D01*
X132825354Y-99259500D01*
X132825350Y-99259500D01*
X132739334Y-99277783D01*
X132737745Y-99278110D01*
X132657336Y-99294105D01*
X132651514Y-99295871D01*
X132651382Y-99295437D01*
X132640720Y-99298744D01*
X132640200Y-99298854D01*
X132640199Y-99298854D01*
X132565969Y-99331904D01*
X132562986Y-99333185D01*
X132493457Y-99361984D01*
X132493450Y-99361988D01*
X132492346Y-99362726D01*
X132473911Y-99372892D01*
X132467272Y-99375848D01*
X132467264Y-99375853D01*
X132406976Y-99419653D01*
X132402986Y-99422434D01*
X132345968Y-99460533D01*
X132345958Y-99460542D01*
X132340253Y-99466246D01*
X132325472Y-99478870D01*
X132314129Y-99487111D01*
X132314126Y-99487114D01*
X132268742Y-99537517D01*
X132264277Y-99542222D01*
X132220539Y-99585961D01*
X132220532Y-99585969D01*
X132212310Y-99598275D01*
X132201362Y-99612350D01*
X132187472Y-99627776D01*
X132187467Y-99627784D01*
X132170006Y-99658028D01*
X132156914Y-99680703D01*
X132152630Y-99687591D01*
X132121988Y-99733450D01*
X132113741Y-99753360D01*
X132106569Y-99767902D01*
X132092824Y-99791710D01*
X132092821Y-99791715D01*
X132076010Y-99843451D01*
X132072643Y-99852578D01*
X132054106Y-99897333D01*
X132048589Y-99925066D01*
X132044905Y-99939183D01*
X132034325Y-99971747D01*
X132029340Y-100019171D01*
X132027638Y-100030396D01*
X132019500Y-100071310D01*
X132019500Y-100106306D01*
X132018821Y-100119266D01*
X132014540Y-100159999D01*
X132018821Y-100200731D01*
X132019500Y-100213692D01*
X132019500Y-100248695D01*
X132027637Y-100289602D01*
X132029341Y-100300831D01*
X132034325Y-100348253D01*
X132034325Y-100348254D01*
X132044904Y-100380811D01*
X132048590Y-100394938D01*
X132054104Y-100422662D01*
X132054105Y-100422664D01*
X132072644Y-100467423D01*
X132076012Y-100476554D01*
X132092819Y-100528279D01*
X132092822Y-100528286D01*
X132106569Y-100552097D01*
X132113742Y-100566643D01*
X132121984Y-100586542D01*
X132152634Y-100632413D01*
X132156912Y-100639294D01*
X132168345Y-100659095D01*
X132187468Y-100692218D01*
X132187469Y-100692219D01*
X132201357Y-100707643D01*
X132212307Y-100721721D01*
X132220534Y-100734033D01*
X132264274Y-100777773D01*
X132268744Y-100782483D01*
X132314129Y-100832888D01*
X132314131Y-100832890D01*
X132325467Y-100841126D01*
X132340263Y-100853763D01*
X132345961Y-100859461D01*
X132345965Y-100859464D01*
X132402994Y-100897570D01*
X132406966Y-100900338D01*
X132467270Y-100944151D01*
X132473902Y-100947104D01*
X132492361Y-100957283D01*
X132493453Y-100958013D01*
X132563042Y-100986836D01*
X132565987Y-100988102D01*
X132640197Y-101021144D01*
X132640668Y-101021244D01*
X132640696Y-101021250D01*
X132651370Y-101024562D01*
X132651503Y-101024125D01*
X132657330Y-101025892D01*
X132657334Y-101025894D01*
X132737816Y-101041902D01*
X132739282Y-101042204D01*
X132825354Y-101060500D01*
X132825355Y-101060500D01*
X134008693Y-101060500D01*
X134008694Y-101060499D01*
X134066682Y-101048964D01*
X134182658Y-101025896D01*
X134182661Y-101025894D01*
X134182666Y-101025894D01*
X134346547Y-100958013D01*
X134494035Y-100859464D01*
X134619464Y-100734035D01*
X134718013Y-100586547D01*
X134785894Y-100422666D01*
X134788154Y-100411308D01*
X134820218Y-100250108D01*
X134820500Y-100248691D01*
X134820500Y-100071309D01*
X134820500Y-100071306D01*
X134820499Y-100071304D01*
X134785896Y-99897341D01*
X134785893Y-99897333D01*
X134754864Y-99822420D01*
X134718016Y-99733459D01*
X134718009Y-99733446D01*
X134661554Y-99648956D01*
X134640676Y-99582279D01*
X134659160Y-99514899D01*
X134711139Y-99468208D01*
X134780109Y-99457032D01*
X134844173Y-99484917D01*
X134852337Y-99492384D01*
X137897772Y-102537819D01*
X137931257Y-102599142D01*
X137926273Y-102668834D01*
X137884401Y-102724767D01*
X137818937Y-102749184D01*
X137810091Y-102749500D01*
X102353751Y-102749500D01*
X102346264Y-102749274D01*
X102092364Y-102733915D01*
X102077500Y-102732110D01*
X101831001Y-102686938D01*
X101816461Y-102683354D01*
X101577211Y-102608800D01*
X101563211Y-102603491D01*
X101334680Y-102500638D01*
X101321421Y-102493679D01*
X101106960Y-102364033D01*
X101094637Y-102355527D01*
X100897363Y-102200972D01*
X100886155Y-102191042D01*
X100708957Y-102013844D01*
X100699027Y-102002636D01*
X100658181Y-101950500D01*
X100544468Y-101805356D01*
X100535970Y-101793045D01*
X100414490Y-101592093D01*
X100406320Y-101578578D01*
X100399361Y-101565319D01*
X100296508Y-101336788D01*
X100291199Y-101322788D01*
X100288205Y-101313181D01*
X100216644Y-101083536D01*
X100213061Y-101068998D01*
X100209671Y-101050499D01*
X100167888Y-100822495D01*
X100166084Y-100807635D01*
X100159149Y-100692993D01*
X100150726Y-100553736D01*
X100150542Y-100547648D01*
X100949500Y-100547648D01*
X100949500Y-100752351D01*
X100981522Y-100954534D01*
X101044781Y-101149223D01*
X101108691Y-101274653D01*
X101137694Y-101331573D01*
X101137715Y-101331613D01*
X101258028Y-101497213D01*
X101402786Y-101641971D01*
X101540325Y-101741897D01*
X101568390Y-101762287D01*
X101684607Y-101821503D01*
X101750776Y-101855218D01*
X101750778Y-101855218D01*
X101750781Y-101855220D01*
X101855137Y-101889127D01*
X101945465Y-101918477D01*
X102046557Y-101934488D01*
X102147648Y-101950500D01*
X102147649Y-101950500D01*
X102352351Y-101950500D01*
X102352352Y-101950500D01*
X102554534Y-101918477D01*
X102749219Y-101855220D01*
X102931610Y-101762287D01*
X103024590Y-101694732D01*
X103097213Y-101641971D01*
X103097215Y-101641968D01*
X103097219Y-101641966D01*
X103241966Y-101497219D01*
X103241968Y-101497215D01*
X103241971Y-101497213D01*
X103318555Y-101391802D01*
X103362287Y-101331610D01*
X103455220Y-101149219D01*
X103518477Y-100954534D01*
X103550500Y-100752352D01*
X103550500Y-100547648D01*
X103541856Y-100493070D01*
X103518477Y-100345465D01*
X103471450Y-100200731D01*
X103455220Y-100150781D01*
X103455218Y-100150778D01*
X103455218Y-100150776D01*
X103395755Y-100034075D01*
X103362287Y-99968390D01*
X103354556Y-99957749D01*
X103241971Y-99802786D01*
X103097213Y-99658028D01*
X102931613Y-99537715D01*
X102931612Y-99537714D01*
X102931610Y-99537713D01*
X102874653Y-99508691D01*
X102749223Y-99444781D01*
X102554534Y-99381522D01*
X102379995Y-99353878D01*
X102352352Y-99349500D01*
X102147648Y-99349500D01*
X102123329Y-99353351D01*
X101945465Y-99381522D01*
X101750776Y-99444781D01*
X101568386Y-99537715D01*
X101402786Y-99658028D01*
X101258028Y-99802786D01*
X101137715Y-99968386D01*
X101044781Y-100150776D01*
X100981522Y-100345465D01*
X100949500Y-100547648D01*
X100150542Y-100547648D01*
X100150500Y-100546249D01*
X100150500Y-79503750D01*
X100150726Y-79496263D01*
X100151658Y-79480861D01*
X100162740Y-79297648D01*
X100949500Y-79297648D01*
X100949500Y-79502352D01*
X100949993Y-79505463D01*
X100981522Y-79704534D01*
X101044781Y-79899223D01*
X101098851Y-80005340D01*
X101137103Y-80080413D01*
X101137715Y-80081613D01*
X101258028Y-80247213D01*
X101402786Y-80391971D01*
X101557749Y-80504556D01*
X101568390Y-80512287D01*
X101648824Y-80553270D01*
X101750776Y-80605218D01*
X101750778Y-80605218D01*
X101750781Y-80605220D01*
X101809042Y-80624150D01*
X101945465Y-80668477D01*
X102046557Y-80684488D01*
X102147648Y-80700500D01*
X102147649Y-80700500D01*
X102352351Y-80700500D01*
X102352352Y-80700500D01*
X102554534Y-80668477D01*
X102749219Y-80605220D01*
X102931610Y-80512287D01*
X103033390Y-80438340D01*
X103097213Y-80391971D01*
X103097215Y-80391968D01*
X103097219Y-80391966D01*
X103241966Y-80247219D01*
X103241968Y-80247215D01*
X103241971Y-80247213D01*
X103294732Y-80174590D01*
X103362287Y-80081610D01*
X103455220Y-79899219D01*
X103518477Y-79704534D01*
X103550500Y-79502352D01*
X103550500Y-79297648D01*
X103545481Y-79265961D01*
X103518477Y-79095465D01*
X103478353Y-78971978D01*
X103455220Y-78900781D01*
X103455218Y-78900778D01*
X103455218Y-78900776D01*
X103397507Y-78787513D01*
X103362287Y-78718390D01*
X103302611Y-78636252D01*
X103241971Y-78552786D01*
X103097213Y-78408028D01*
X102931613Y-78287715D01*
X102931612Y-78287714D01*
X102931610Y-78287713D01*
X102847069Y-78244637D01*
X102749223Y-78194781D01*
X102554534Y-78131522D01*
X102379995Y-78103878D01*
X102352352Y-78099500D01*
X102147648Y-78099500D01*
X102123329Y-78103351D01*
X101945465Y-78131522D01*
X101750776Y-78194781D01*
X101568386Y-78287715D01*
X101402786Y-78408028D01*
X101258028Y-78552786D01*
X101137715Y-78718386D01*
X101044781Y-78900776D01*
X100981522Y-79095465D01*
X100954120Y-79268481D01*
X100949500Y-79297648D01*
X100162740Y-79297648D01*
X100166084Y-79242359D01*
X100167889Y-79227500D01*
X100170641Y-79212486D01*
X100213062Y-78980995D01*
X100216645Y-78966461D01*
X100217437Y-78963920D01*
X100291202Y-78727202D01*
X100296504Y-78713219D01*
X100399361Y-78484679D01*
X100406320Y-78471421D01*
X100413877Y-78458920D01*
X100535975Y-78256946D01*
X100544462Y-78244650D01*
X100699034Y-78047354D01*
X100708949Y-78036163D01*
X100886163Y-77858949D01*
X100897354Y-77849034D01*
X101094650Y-77694462D01*
X101106946Y-77685975D01*
X101321421Y-77556319D01*
X101334680Y-77549361D01*
X101431685Y-77505703D01*
X101563219Y-77446504D01*
X101577202Y-77441202D01*
X101816467Y-77366643D01*
X101830995Y-77363062D01*
X102077506Y-77317888D01*
X102092359Y-77316084D01*
X102346264Y-77300726D01*
X102353751Y-77300500D01*
X102397595Y-77300500D01*
X133391663Y-77300500D01*
X133458702Y-77320185D01*
G37*
G04 #@! TD.AperFunction*
G04 #@! TA.AperFunction,Conductor*
G36*
X146803736Y-77300726D02*
G01*
X147057638Y-77316084D01*
X147072495Y-77317888D01*
X147319000Y-77363061D01*
X147333536Y-77366644D01*
X147572791Y-77441200D01*
X147586788Y-77446508D01*
X147815319Y-77549361D01*
X147828578Y-77556320D01*
X147935808Y-77621143D01*
X148043045Y-77685970D01*
X148055356Y-77694468D01*
X148219401Y-77822989D01*
X148252636Y-77849027D01*
X148263844Y-77858957D01*
X148441042Y-78036155D01*
X148450972Y-78047363D01*
X148605527Y-78244637D01*
X148614033Y-78256960D01*
X148743679Y-78471421D01*
X148750638Y-78484680D01*
X148853491Y-78713211D01*
X148858800Y-78727211D01*
X148933354Y-78966461D01*
X148936938Y-78981001D01*
X148982110Y-79227500D01*
X148983915Y-79242364D01*
X148999274Y-79496263D01*
X148999500Y-79503750D01*
X148999500Y-100546249D01*
X148999274Y-100553736D01*
X148983915Y-100807635D01*
X148982110Y-100822499D01*
X148936938Y-101068998D01*
X148933354Y-101083538D01*
X148858800Y-101322788D01*
X148853491Y-101336788D01*
X148750638Y-101565319D01*
X148743679Y-101578578D01*
X148614033Y-101793039D01*
X148605527Y-101805362D01*
X148450972Y-102002636D01*
X148441042Y-102013844D01*
X148263844Y-102191042D01*
X148252636Y-102200972D01*
X148055362Y-102355527D01*
X148043039Y-102364033D01*
X147828578Y-102493679D01*
X147815319Y-102500638D01*
X147586788Y-102603491D01*
X147572788Y-102608800D01*
X147333538Y-102683354D01*
X147318998Y-102686938D01*
X147072499Y-102732110D01*
X147057635Y-102733915D01*
X146803736Y-102749274D01*
X146796249Y-102749500D01*
X145399098Y-102749500D01*
X145332059Y-102729815D01*
X145286304Y-102677011D01*
X145276360Y-102607853D01*
X145305385Y-102544297D01*
X145311417Y-102537819D01*
X145312364Y-102536872D01*
X145350500Y-102444803D01*
X145350500Y-102345147D01*
X145350500Y-100547648D01*
X145599500Y-100547648D01*
X145599500Y-100752351D01*
X145631522Y-100954534D01*
X145694781Y-101149223D01*
X145758691Y-101274653D01*
X145787694Y-101331573D01*
X145787715Y-101331613D01*
X145908028Y-101497213D01*
X146052786Y-101641971D01*
X146190325Y-101741897D01*
X146218390Y-101762287D01*
X146334607Y-101821503D01*
X146400776Y-101855218D01*
X146400778Y-101855218D01*
X146400781Y-101855220D01*
X146505137Y-101889127D01*
X146595465Y-101918477D01*
X146696557Y-101934488D01*
X146797648Y-101950500D01*
X146797649Y-101950500D01*
X147002351Y-101950500D01*
X147002352Y-101950500D01*
X147204534Y-101918477D01*
X147399219Y-101855220D01*
X147581610Y-101762287D01*
X147674590Y-101694732D01*
X147747213Y-101641971D01*
X147747215Y-101641968D01*
X147747219Y-101641966D01*
X147891966Y-101497219D01*
X147891968Y-101497215D01*
X147891971Y-101497213D01*
X147968555Y-101391802D01*
X148012287Y-101331610D01*
X148105220Y-101149219D01*
X148168477Y-100954534D01*
X148200500Y-100752352D01*
X148200500Y-100547648D01*
X148191856Y-100493070D01*
X148168477Y-100345465D01*
X148121450Y-100200731D01*
X148105220Y-100150781D01*
X148105218Y-100150778D01*
X148105218Y-100150776D01*
X148045755Y-100034075D01*
X148012287Y-99968390D01*
X148004556Y-99957749D01*
X147891971Y-99802786D01*
X147747213Y-99658028D01*
X147581613Y-99537715D01*
X147581612Y-99537714D01*
X147581610Y-99537713D01*
X147524653Y-99508691D01*
X147399223Y-99444781D01*
X147204534Y-99381522D01*
X147029995Y-99353878D01*
X147002352Y-99349500D01*
X146797648Y-99349500D01*
X146773329Y-99353351D01*
X146595465Y-99381522D01*
X146400776Y-99444781D01*
X146218386Y-99537715D01*
X146052786Y-99658028D01*
X145908028Y-99802786D01*
X145787715Y-99968386D01*
X145694781Y-100150776D01*
X145631522Y-100345465D01*
X145599500Y-100547648D01*
X145350500Y-100547648D01*
X145350500Y-98510145D01*
X145370185Y-98443106D01*
X145386815Y-98422468D01*
X145724455Y-98084827D01*
X145724458Y-98084826D01*
X145741896Y-98067388D01*
X145741897Y-98067388D01*
X145812364Y-97996921D01*
X145826421Y-97962984D01*
X145850501Y-97904852D01*
X145850501Y-97805196D01*
X145850501Y-97795207D01*
X145850500Y-97795193D01*
X145850500Y-93915248D01*
X145850499Y-93915245D01*
X145834816Y-93877383D01*
X145812364Y-93823178D01*
X145741897Y-93752711D01*
X145734832Y-93745646D01*
X145734825Y-93745640D01*
X143966306Y-91977121D01*
X143932821Y-91915798D01*
X143937805Y-91846106D01*
X143979677Y-91790173D01*
X144045141Y-91765756D01*
X144073385Y-91766967D01*
X144150000Y-91779101D01*
X144150000Y-90733012D01*
X144207007Y-90765925D01*
X144334174Y-90800000D01*
X144465826Y-90800000D01*
X144592993Y-90765925D01*
X144650000Y-90733012D01*
X144650000Y-91779100D01*
X144751249Y-91763065D01*
X144751255Y-91763063D01*
X144975804Y-91690102D01*
X145186171Y-91582914D01*
X145377186Y-91444133D01*
X145544133Y-91277186D01*
X145682914Y-91086171D01*
X145790102Y-90875802D01*
X145863065Y-90651247D01*
X145900000Y-90418052D01*
X145900000Y-89550000D01*
X144900000Y-89550000D01*
X144900000Y-89050000D01*
X145900000Y-89050000D01*
X145900000Y-88553623D01*
X145919685Y-88486584D01*
X145972489Y-88440829D01*
X146041647Y-88430885D01*
X146105203Y-88459910D01*
X146111681Y-88465942D01*
X146463181Y-88817442D01*
X146496666Y-88878765D01*
X146499500Y-88905123D01*
X146499500Y-94058202D01*
X146479815Y-94125241D01*
X146456704Y-94151914D01*
X146451952Y-94156031D01*
X146367118Y-94253937D01*
X146367117Y-94253938D01*
X146313302Y-94371774D01*
X146294867Y-94500000D01*
X146313302Y-94628225D01*
X146351432Y-94711716D01*
X146367118Y-94746063D01*
X146451951Y-94843967D01*
X146560931Y-94914004D01*
X146674500Y-94947350D01*
X146685225Y-94950499D01*
X146685227Y-94950500D01*
X146685228Y-94950500D01*
X146814773Y-94950500D01*
X146814773Y-94950499D01*
X146939069Y-94914004D01*
X147048049Y-94843967D01*
X147132882Y-94746063D01*
X147186697Y-94628226D01*
X147205133Y-94500000D01*
X147186697Y-94371774D01*
X147132882Y-94253937D01*
X147048049Y-94156033D01*
X147048048Y-94156032D01*
X147048047Y-94156031D01*
X147043296Y-94151914D01*
X147005523Y-94093136D01*
X147000500Y-94058202D01*
X147000500Y-88700173D01*
X147000499Y-88700170D01*
X146979511Y-88649500D01*
X146962364Y-88608103D01*
X146891897Y-88537636D01*
X142493628Y-84139367D01*
X142460143Y-84078044D01*
X142465127Y-84008352D01*
X142506999Y-83952419D01*
X142572463Y-83928002D01*
X142600707Y-83929213D01*
X142731948Y-83950000D01*
X143350000Y-83950000D01*
X143350000Y-82950000D01*
X143850000Y-82950000D01*
X143850000Y-83950000D01*
X144468052Y-83950000D01*
X144701247Y-83913065D01*
X144925802Y-83840102D01*
X145136171Y-83732914D01*
X145327186Y-83594133D01*
X145494133Y-83427186D01*
X145632914Y-83236171D01*
X145740102Y-83025802D01*
X145813065Y-82801247D01*
X145829102Y-82700000D01*
X144783012Y-82700000D01*
X144815925Y-82642993D01*
X144850000Y-82515826D01*
X144850000Y-82384174D01*
X144815925Y-82257007D01*
X144783012Y-82200000D01*
X145829102Y-82200000D01*
X145813065Y-82098752D01*
X145740102Y-81874197D01*
X145632914Y-81663828D01*
X145494133Y-81472813D01*
X145327186Y-81305866D01*
X145136171Y-81167085D01*
X144925802Y-81059897D01*
X144701247Y-80986934D01*
X144701248Y-80986934D01*
X144468052Y-80950000D01*
X143850000Y-80950000D01*
X143850000Y-81950000D01*
X143350000Y-81950000D01*
X143350000Y-80950000D01*
X142731948Y-80950000D01*
X142498752Y-80986934D01*
X142274197Y-81059897D01*
X142063825Y-81167087D01*
X141947385Y-81251686D01*
X141881579Y-81275166D01*
X141813525Y-81259341D01*
X141764830Y-81209235D01*
X141750500Y-81151368D01*
X141750500Y-80920756D01*
X141770185Y-80853717D01*
X141786814Y-80833079D01*
X142934455Y-79685438D01*
X142934458Y-79685437D01*
X142951896Y-79667999D01*
X142951897Y-79667999D01*
X143022364Y-79597532D01*
X143041845Y-79550500D01*
X143060501Y-79505463D01*
X143060501Y-79405807D01*
X143060501Y-79395818D01*
X143060500Y-79395804D01*
X143060500Y-79361300D01*
X143080185Y-79294261D01*
X143132989Y-79248506D01*
X143202147Y-79238562D01*
X143265703Y-79267587D01*
X143303159Y-79325303D01*
X143314822Y-79363747D01*
X143321187Y-79384731D01*
X143414086Y-79558532D01*
X143414090Y-79558539D01*
X143539116Y-79710883D01*
X143691460Y-79835909D01*
X143691467Y-79835913D01*
X143865266Y-79928811D01*
X143865269Y-79928811D01*
X143865273Y-79928814D01*
X144053868Y-79986024D01*
X144250000Y-80005341D01*
X144446132Y-79986024D01*
X144634727Y-79928814D01*
X144634954Y-79928693D01*
X144800888Y-79839999D01*
X144808538Y-79835910D01*
X144960883Y-79710883D01*
X145085910Y-79558538D01*
X145148998Y-79440508D01*
X145178811Y-79384733D01*
X145178812Y-79384730D01*
X145178814Y-79384727D01*
X145205229Y-79297648D01*
X145599500Y-79297648D01*
X145599500Y-79502352D01*
X145599993Y-79505463D01*
X145631522Y-79704534D01*
X145694781Y-79899223D01*
X145748851Y-80005340D01*
X145787103Y-80080413D01*
X145787715Y-80081613D01*
X145908028Y-80247213D01*
X146052786Y-80391971D01*
X146207749Y-80504556D01*
X146218390Y-80512287D01*
X146298824Y-80553270D01*
X146400776Y-80605218D01*
X146400778Y-80605218D01*
X146400781Y-80605220D01*
X146459042Y-80624150D01*
X146595465Y-80668477D01*
X146696557Y-80684488D01*
X146797648Y-80700500D01*
X146797649Y-80700500D01*
X147002351Y-80700500D01*
X147002352Y-80700500D01*
X147204534Y-80668477D01*
X147399219Y-80605220D01*
X147581610Y-80512287D01*
X147683390Y-80438340D01*
X147747213Y-80391971D01*
X147747215Y-80391968D01*
X147747219Y-80391966D01*
X147891966Y-80247219D01*
X147891968Y-80247215D01*
X147891971Y-80247213D01*
X147944732Y-80174590D01*
X148012287Y-80081610D01*
X148105220Y-79899219D01*
X148168477Y-79704534D01*
X148200500Y-79502352D01*
X148200500Y-79297648D01*
X148195481Y-79265961D01*
X148168477Y-79095465D01*
X148128353Y-78971978D01*
X148105220Y-78900781D01*
X148105218Y-78900778D01*
X148105218Y-78900776D01*
X148047507Y-78787513D01*
X148012287Y-78718390D01*
X147952611Y-78636252D01*
X147891971Y-78552786D01*
X147747213Y-78408028D01*
X147581613Y-78287715D01*
X147581612Y-78287714D01*
X147581610Y-78287713D01*
X147497069Y-78244637D01*
X147399223Y-78194781D01*
X147204534Y-78131522D01*
X147029995Y-78103878D01*
X147002352Y-78099500D01*
X146797648Y-78099500D01*
X146773329Y-78103351D01*
X146595465Y-78131522D01*
X146400776Y-78194781D01*
X146218386Y-78287715D01*
X146052786Y-78408028D01*
X145908028Y-78552786D01*
X145787715Y-78718386D01*
X145694781Y-78900776D01*
X145631522Y-79095465D01*
X145604120Y-79268481D01*
X145599500Y-79297648D01*
X145205229Y-79297648D01*
X145236024Y-79196132D01*
X145255341Y-79000000D01*
X145236024Y-78803868D01*
X145178814Y-78615273D01*
X145178811Y-78615269D01*
X145178811Y-78615266D01*
X145085913Y-78441467D01*
X145085909Y-78441460D01*
X144960883Y-78289116D01*
X144808539Y-78164090D01*
X144808532Y-78164086D01*
X144634733Y-78071188D01*
X144634727Y-78071186D01*
X144446132Y-78013976D01*
X144446129Y-78013975D01*
X144250000Y-77994659D01*
X144053870Y-78013975D01*
X143980754Y-78036155D01*
X143865273Y-78071186D01*
X143865270Y-78071187D01*
X143865268Y-78071188D01*
X143822671Y-78093956D01*
X143754268Y-78108197D01*
X143689025Y-78083196D01*
X143676539Y-78072278D01*
X143116442Y-77512181D01*
X143082957Y-77450858D01*
X143087941Y-77381166D01*
X143129813Y-77325233D01*
X143195277Y-77300816D01*
X143204123Y-77300500D01*
X146752405Y-77300500D01*
X146796249Y-77300500D01*
X146803736Y-77300726D01*
G37*
G04 #@! TD.AperFunction*
G04 #@! TA.AperFunction,Conductor*
G36*
X132322957Y-80521903D02*
G01*
X132340993Y-80535917D01*
X132341255Y-80535599D01*
X132345965Y-80539464D01*
X132402994Y-80577570D01*
X132406966Y-80580338D01*
X132467270Y-80624151D01*
X132473902Y-80627104D01*
X132492361Y-80637283D01*
X132493453Y-80638013D01*
X132563042Y-80666836D01*
X132565987Y-80668102D01*
X132640197Y-80701144D01*
X132640668Y-80701244D01*
X132640696Y-80701250D01*
X132651370Y-80704562D01*
X132651503Y-80704125D01*
X132657330Y-80705892D01*
X132657334Y-80705894D01*
X132737816Y-80721902D01*
X132739282Y-80722204D01*
X132825354Y-80740500D01*
X132831309Y-80740500D01*
X133914877Y-80740500D01*
X133981916Y-80760185D01*
X134002558Y-80776819D01*
X134633181Y-81407442D01*
X134666666Y-81468765D01*
X134669500Y-81495123D01*
X134669500Y-81565789D01*
X134649815Y-81632828D01*
X134597011Y-81678583D01*
X134527853Y-81688527D01*
X134476609Y-81668891D01*
X134346553Y-81581990D01*
X134346540Y-81581983D01*
X134182667Y-81514106D01*
X134182658Y-81514103D01*
X134008694Y-81479500D01*
X134008691Y-81479500D01*
X133014646Y-81479500D01*
X132825354Y-81479500D01*
X132825350Y-81479500D01*
X132739334Y-81497783D01*
X132737745Y-81498110D01*
X132657336Y-81514105D01*
X132651514Y-81515871D01*
X132651382Y-81515437D01*
X132640720Y-81518744D01*
X132640200Y-81518854D01*
X132640199Y-81518854D01*
X132565969Y-81551904D01*
X132562986Y-81553185D01*
X132493457Y-81581984D01*
X132493450Y-81581988D01*
X132492346Y-81582726D01*
X132473911Y-81592892D01*
X132467272Y-81595848D01*
X132467264Y-81595853D01*
X132406976Y-81639653D01*
X132402986Y-81642434D01*
X132345968Y-81680533D01*
X132345958Y-81680542D01*
X132340253Y-81686246D01*
X132325472Y-81698870D01*
X132314129Y-81707111D01*
X132314126Y-81707114D01*
X132268742Y-81757517D01*
X132264277Y-81762222D01*
X132220539Y-81805961D01*
X132220532Y-81805969D01*
X132212310Y-81818275D01*
X132201362Y-81832350D01*
X132187472Y-81847776D01*
X132187467Y-81847784D01*
X132156914Y-81900703D01*
X132152630Y-81907591D01*
X132121988Y-81953450D01*
X132113741Y-81973360D01*
X132106569Y-81987902D01*
X132092824Y-82011710D01*
X132092821Y-82011715D01*
X132076010Y-82063451D01*
X132072643Y-82072578D01*
X132054106Y-82117333D01*
X132048589Y-82145066D01*
X132044905Y-82159183D01*
X132034325Y-82191747D01*
X132029340Y-82239171D01*
X132027638Y-82250396D01*
X132019500Y-82291310D01*
X132019500Y-82326306D01*
X132018821Y-82339266D01*
X132014540Y-82379999D01*
X132018821Y-82420731D01*
X132019500Y-82433692D01*
X132019500Y-82468695D01*
X132027637Y-82509602D01*
X132029341Y-82520831D01*
X132034325Y-82568253D01*
X132034325Y-82568254D01*
X132034326Y-82568256D01*
X132044802Y-82600499D01*
X132044904Y-82600811D01*
X132048590Y-82614938D01*
X132054104Y-82642662D01*
X132054105Y-82642664D01*
X132072644Y-82687423D01*
X132076012Y-82696554D01*
X132092819Y-82748279D01*
X132092822Y-82748286D01*
X132106569Y-82772097D01*
X132113742Y-82786643D01*
X132121984Y-82806542D01*
X132121986Y-82806545D01*
X132121987Y-82806547D01*
X132132279Y-82821950D01*
X132152634Y-82852413D01*
X132156912Y-82859294D01*
X132168377Y-82879151D01*
X132187468Y-82912218D01*
X132187469Y-82912219D01*
X132201357Y-82927643D01*
X132212307Y-82941721D01*
X132220534Y-82954033D01*
X132264274Y-82997773D01*
X132268744Y-83002483D01*
X132314129Y-83052888D01*
X132314131Y-83052890D01*
X132325467Y-83061126D01*
X132340263Y-83073763D01*
X132345961Y-83079461D01*
X132345965Y-83079464D01*
X132402994Y-83117570D01*
X132406967Y-83120339D01*
X132467270Y-83164151D01*
X132473902Y-83167104D01*
X132492361Y-83177283D01*
X132493453Y-83178013D01*
X132563042Y-83206836D01*
X132565987Y-83208102D01*
X132640197Y-83241144D01*
X132640696Y-83241250D01*
X132651370Y-83244562D01*
X132651503Y-83244125D01*
X132657330Y-83245892D01*
X132657334Y-83245894D01*
X132737816Y-83261902D01*
X132739282Y-83262204D01*
X132825354Y-83280500D01*
X132831309Y-83280500D01*
X133914877Y-83280500D01*
X133981916Y-83300185D01*
X134002558Y-83316819D01*
X136613181Y-85927442D01*
X136646666Y-85988765D01*
X136649500Y-86015123D01*
X136649500Y-96409829D01*
X136687636Y-96501897D01*
X140112278Y-99926539D01*
X140145763Y-99987862D01*
X140140779Y-100057554D01*
X140133956Y-100072671D01*
X140111188Y-100115268D01*
X140111187Y-100115270D01*
X140111186Y-100115273D01*
X140083303Y-100207192D01*
X140053975Y-100303870D01*
X140034659Y-100500000D01*
X140053975Y-100696129D01*
X140111188Y-100884733D01*
X140204086Y-101058532D01*
X140204090Y-101058539D01*
X140276553Y-101146835D01*
X140303866Y-101211145D01*
X140292075Y-101280013D01*
X140244923Y-101331573D01*
X140180700Y-101349500D01*
X139755122Y-101349500D01*
X139688083Y-101329815D01*
X139667441Y-101313181D01*
X139427721Y-101073460D01*
X139394236Y-101012137D01*
X139399220Y-100942445D01*
X139406045Y-100927324D01*
X139420461Y-100900354D01*
X139428814Y-100884727D01*
X139486024Y-100696132D01*
X139505341Y-100500000D01*
X139486024Y-100303868D01*
X139428814Y-100115273D01*
X139428811Y-100115269D01*
X139428811Y-100115266D01*
X139335913Y-99941467D01*
X139335909Y-99941460D01*
X139210883Y-99789116D01*
X139058539Y-99664090D01*
X139058532Y-99664086D01*
X138884733Y-99571188D01*
X138884727Y-99571186D01*
X138707528Y-99517433D01*
X138696129Y-99513975D01*
X138500000Y-99494659D01*
X138303870Y-99513975D01*
X138115266Y-99571188D01*
X137941467Y-99664086D01*
X137941460Y-99664090D01*
X137789116Y-99789116D01*
X137664090Y-99941460D01*
X137664086Y-99941467D01*
X137571188Y-100115266D01*
X137513975Y-100303870D01*
X137502780Y-100417543D01*
X137476619Y-100482330D01*
X137419585Y-100522689D01*
X137349785Y-100525806D01*
X137291696Y-100493070D01*
X135286819Y-98488193D01*
X135253334Y-98426870D01*
X135250500Y-98400512D01*
X135250500Y-94450173D01*
X135250499Y-94450170D01*
X135241772Y-94429101D01*
X135212364Y-94358103D01*
X135141897Y-94287636D01*
X134360907Y-93506646D01*
X134327422Y-93445323D01*
X134332406Y-93375631D01*
X134374278Y-93319698D01*
X134379697Y-93315863D01*
X134432863Y-93280338D01*
X134494035Y-93239464D01*
X134619464Y-93114035D01*
X134718013Y-92966547D01*
X134785894Y-92802666D01*
X134786425Y-92800000D01*
X134820499Y-92628695D01*
X134820500Y-92628693D01*
X134820500Y-92451306D01*
X134820499Y-92451304D01*
X134785896Y-92277341D01*
X134785893Y-92277332D01*
X134782779Y-92269815D01*
X134754069Y-92200500D01*
X134718016Y-92113459D01*
X134718009Y-92113446D01*
X134619464Y-91965965D01*
X134619461Y-91965961D01*
X134494038Y-91840538D01*
X134494034Y-91840535D01*
X134346553Y-91741990D01*
X134346540Y-91741983D01*
X134182667Y-91674106D01*
X134182658Y-91674103D01*
X134008694Y-91639500D01*
X134008691Y-91639500D01*
X133014646Y-91639500D01*
X132825354Y-91639500D01*
X132825350Y-91639500D01*
X132739334Y-91657783D01*
X132737745Y-91658110D01*
X132657336Y-91674105D01*
X132651514Y-91675871D01*
X132651382Y-91675437D01*
X132640720Y-91678744D01*
X132640200Y-91678854D01*
X132640199Y-91678854D01*
X132565969Y-91711904D01*
X132562986Y-91713185D01*
X132493457Y-91741984D01*
X132493450Y-91741988D01*
X132492346Y-91742726D01*
X132473911Y-91752892D01*
X132467272Y-91755848D01*
X132467264Y-91755853D01*
X132406976Y-91799653D01*
X132402986Y-91802434D01*
X132345968Y-91840533D01*
X132345958Y-91840542D01*
X132340253Y-91846246D01*
X132325472Y-91858870D01*
X132314129Y-91867111D01*
X132314126Y-91867114D01*
X132268742Y-91917517D01*
X132264277Y-91922222D01*
X132220539Y-91965961D01*
X132220532Y-91965969D01*
X132212310Y-91978275D01*
X132201362Y-91992350D01*
X132187472Y-92007776D01*
X132187467Y-92007784D01*
X132156914Y-92060703D01*
X132152630Y-92067591D01*
X132121988Y-92113450D01*
X132117126Y-92125186D01*
X132115436Y-92129269D01*
X132113741Y-92133360D01*
X132106569Y-92147902D01*
X132092824Y-92171710D01*
X132092819Y-92171720D01*
X132082389Y-92203820D01*
X132042951Y-92261495D01*
X131978592Y-92288692D01*
X131964459Y-92289500D01*
X131695123Y-92289500D01*
X131628084Y-92269815D01*
X131607442Y-92253181D01*
X131136819Y-91782558D01*
X131103334Y-91721235D01*
X131100500Y-91694877D01*
X131100500Y-88122941D01*
X131120185Y-88055902D01*
X131136819Y-88035260D01*
X131138045Y-88034034D01*
X131142364Y-88029715D01*
X131180500Y-87937646D01*
X131180500Y-87841330D01*
X131200185Y-87774291D01*
X131252989Y-87728536D01*
X131322147Y-87718592D01*
X131385703Y-87747617D01*
X131392181Y-87753649D01*
X132607546Y-88969014D01*
X132641031Y-89030337D01*
X132636047Y-89100029D01*
X132594175Y-89155962D01*
X132570316Y-89169968D01*
X132565985Y-89171897D01*
X132562986Y-89173185D01*
X132493457Y-89201984D01*
X132493450Y-89201988D01*
X132492346Y-89202726D01*
X132473911Y-89212892D01*
X132467272Y-89215848D01*
X132467264Y-89215853D01*
X132406976Y-89259653D01*
X132402986Y-89262434D01*
X132345968Y-89300533D01*
X132345958Y-89300542D01*
X132340253Y-89306246D01*
X132325472Y-89318870D01*
X132314129Y-89327111D01*
X132314126Y-89327114D01*
X132268742Y-89377517D01*
X132264277Y-89382222D01*
X132220539Y-89425961D01*
X132220532Y-89425969D01*
X132212310Y-89438275D01*
X132201362Y-89452350D01*
X132187472Y-89467776D01*
X132187467Y-89467784D01*
X132156914Y-89520703D01*
X132152630Y-89527591D01*
X132121988Y-89573450D01*
X132113741Y-89593360D01*
X132106569Y-89607902D01*
X132092824Y-89631710D01*
X132092821Y-89631715D01*
X132076010Y-89683451D01*
X132072643Y-89692578D01*
X132054106Y-89737333D01*
X132048589Y-89765066D01*
X132044905Y-89779183D01*
X132034325Y-89811747D01*
X132029340Y-89859171D01*
X132027638Y-89870396D01*
X132022969Y-89893872D01*
X132019500Y-89911310D01*
X132019500Y-89946306D01*
X132018821Y-89959266D01*
X132014540Y-90000000D01*
X132017839Y-90031385D01*
X132018821Y-90040731D01*
X132019500Y-90053692D01*
X132019500Y-90088695D01*
X132027637Y-90129602D01*
X132029341Y-90140831D01*
X132034325Y-90188253D01*
X132034325Y-90188254D01*
X132034326Y-90188256D01*
X132043920Y-90217785D01*
X132044904Y-90220811D01*
X132048590Y-90234938D01*
X132054104Y-90262662D01*
X132054105Y-90262664D01*
X132072644Y-90307423D01*
X132076012Y-90316554D01*
X132092819Y-90368279D01*
X132092822Y-90368286D01*
X132106569Y-90392097D01*
X132113742Y-90406643D01*
X132121984Y-90426542D01*
X132121986Y-90426545D01*
X132121987Y-90426547D01*
X132141154Y-90455233D01*
X132152634Y-90472413D01*
X132156912Y-90479294D01*
X132169156Y-90500500D01*
X132187468Y-90532218D01*
X132187469Y-90532219D01*
X132201357Y-90547643D01*
X132212307Y-90561721D01*
X132220534Y-90574033D01*
X132264274Y-90617773D01*
X132268744Y-90622483D01*
X132314129Y-90672888D01*
X132314131Y-90672890D01*
X132325467Y-90681126D01*
X132340263Y-90693763D01*
X132345961Y-90699461D01*
X132345965Y-90699464D01*
X132402994Y-90737570D01*
X132406967Y-90740339D01*
X132467270Y-90784151D01*
X132473902Y-90787104D01*
X132492361Y-90797283D01*
X132493453Y-90798013D01*
X132563042Y-90826836D01*
X132565987Y-90828102D01*
X132640197Y-90861144D01*
X132640696Y-90861250D01*
X132651370Y-90864562D01*
X132651503Y-90864125D01*
X132657330Y-90865892D01*
X132657334Y-90865894D01*
X132737816Y-90881902D01*
X132739282Y-90882204D01*
X132825354Y-90900500D01*
X132825355Y-90900500D01*
X134008693Y-90900500D01*
X134008694Y-90900499D01*
X134066682Y-90888964D01*
X134182658Y-90865896D01*
X134182661Y-90865894D01*
X134182666Y-90865894D01*
X134322535Y-90807958D01*
X134346540Y-90798016D01*
X134346540Y-90798015D01*
X134346547Y-90798013D01*
X134494035Y-90699464D01*
X134619464Y-90574035D01*
X134718013Y-90426547D01*
X134785894Y-90262666D01*
X134791410Y-90234938D01*
X134820499Y-90088695D01*
X134820500Y-90088693D01*
X134820500Y-89911306D01*
X134820499Y-89911304D01*
X134785896Y-89737341D01*
X134785893Y-89737333D01*
X134757638Y-89669117D01*
X134718016Y-89573459D01*
X134718009Y-89573446D01*
X134619464Y-89425965D01*
X134619461Y-89425961D01*
X134494038Y-89300538D01*
X134494034Y-89300535D01*
X134346553Y-89201990D01*
X134346540Y-89201983D01*
X134182667Y-89134106D01*
X134182658Y-89134103D01*
X134008694Y-89099500D01*
X134008691Y-89099500D01*
X133294500Y-89099500D01*
X133227461Y-89079815D01*
X133181706Y-89027011D01*
X133170500Y-88975500D01*
X133170500Y-88877380D01*
X133170499Y-88877377D01*
X133144587Y-88814820D01*
X133132364Y-88785310D01*
X133061897Y-88714843D01*
X132919235Y-88572181D01*
X132885750Y-88510858D01*
X132890734Y-88441166D01*
X132932606Y-88385233D01*
X132998070Y-88360816D01*
X133006916Y-88360500D01*
X134008693Y-88360500D01*
X134008694Y-88360499D01*
X134066682Y-88348964D01*
X134182658Y-88325896D01*
X134182661Y-88325894D01*
X134182666Y-88325894D01*
X134346547Y-88258013D01*
X134494035Y-88159464D01*
X134619464Y-88034035D01*
X134718013Y-87886547D01*
X134785894Y-87722666D01*
X134786705Y-87718592D01*
X134818062Y-87560947D01*
X134820500Y-87548691D01*
X134820500Y-87371309D01*
X134820500Y-87371306D01*
X134820499Y-87371304D01*
X134785896Y-87197341D01*
X134785893Y-87197333D01*
X134762048Y-87139765D01*
X134718016Y-87033459D01*
X134718009Y-87033446D01*
X134619464Y-86885965D01*
X134619461Y-86885961D01*
X134494038Y-86760538D01*
X134494034Y-86760535D01*
X134346553Y-86661990D01*
X134346540Y-86661983D01*
X134182667Y-86594106D01*
X134182658Y-86594103D01*
X134008694Y-86559500D01*
X134008691Y-86559500D01*
X133014646Y-86559500D01*
X132825354Y-86559500D01*
X132825350Y-86559500D01*
X132739334Y-86577783D01*
X132737745Y-86578110D01*
X132657336Y-86594105D01*
X132651514Y-86595871D01*
X132651382Y-86595437D01*
X132640720Y-86598744D01*
X132640200Y-86598854D01*
X132640199Y-86598854D01*
X132565969Y-86631904D01*
X132562986Y-86633185D01*
X132493457Y-86661984D01*
X132493450Y-86661988D01*
X132492346Y-86662726D01*
X132473911Y-86672892D01*
X132467272Y-86675848D01*
X132467264Y-86675853D01*
X132406976Y-86719653D01*
X132402986Y-86722434D01*
X132345968Y-86760533D01*
X132345958Y-86760542D01*
X132340253Y-86766246D01*
X132325472Y-86778870D01*
X132314129Y-86787111D01*
X132314126Y-86787114D01*
X132268742Y-86837517D01*
X132264277Y-86842222D01*
X132220539Y-86885961D01*
X132220532Y-86885969D01*
X132212310Y-86898275D01*
X132201362Y-86912350D01*
X132187472Y-86927776D01*
X132187467Y-86927784D01*
X132156914Y-86980703D01*
X132152630Y-86987591D01*
X132121988Y-87033450D01*
X132121699Y-87034148D01*
X132114270Y-87052084D01*
X132113741Y-87053360D01*
X132106569Y-87067902D01*
X132092824Y-87091710D01*
X132092821Y-87091715D01*
X132076010Y-87143451D01*
X132072643Y-87152578D01*
X132054106Y-87197333D01*
X132048589Y-87225066D01*
X132044905Y-87239183D01*
X132034325Y-87271747D01*
X132029340Y-87319171D01*
X132027638Y-87330396D01*
X132020063Y-87368482D01*
X132019500Y-87371310D01*
X132019500Y-87373084D01*
X132019236Y-87373980D01*
X132018903Y-87377370D01*
X132018260Y-87377306D01*
X131999815Y-87440123D01*
X131947011Y-87485878D01*
X131877853Y-87495822D01*
X131814297Y-87466797D01*
X131807819Y-87460765D01*
X131486819Y-87139765D01*
X131453334Y-87078442D01*
X131450500Y-87052084D01*
X131450500Y-84920000D01*
X132014540Y-84920000D01*
X132016599Y-84939593D01*
X132018821Y-84960731D01*
X132019500Y-84973692D01*
X132019500Y-85008695D01*
X132027637Y-85049602D01*
X132029341Y-85060831D01*
X132034325Y-85108253D01*
X132034325Y-85108254D01*
X132034326Y-85108256D01*
X132043931Y-85137819D01*
X132044904Y-85140811D01*
X132048590Y-85154938D01*
X132054104Y-85182662D01*
X132054105Y-85182664D01*
X132072644Y-85227423D01*
X132076012Y-85236554D01*
X132092819Y-85288279D01*
X132092822Y-85288286D01*
X132106569Y-85312097D01*
X132113742Y-85326643D01*
X132121984Y-85346542D01*
X132121986Y-85346545D01*
X132121987Y-85346547D01*
X132140161Y-85373746D01*
X132152634Y-85392413D01*
X132156912Y-85399294D01*
X132171405Y-85424396D01*
X132187468Y-85452218D01*
X132187469Y-85452219D01*
X132201357Y-85467643D01*
X132212307Y-85481721D01*
X132220534Y-85494033D01*
X132264274Y-85537773D01*
X132268744Y-85542483D01*
X132314129Y-85592888D01*
X132314131Y-85592890D01*
X132325467Y-85601126D01*
X132340263Y-85613763D01*
X132345961Y-85619461D01*
X132345965Y-85619464D01*
X132402994Y-85657570D01*
X132406967Y-85660339D01*
X132467270Y-85704151D01*
X132473902Y-85707104D01*
X132492361Y-85717283D01*
X132493453Y-85718013D01*
X132563042Y-85746836D01*
X132565987Y-85748102D01*
X132640197Y-85781144D01*
X132640696Y-85781250D01*
X132651370Y-85784562D01*
X132651503Y-85784125D01*
X132657330Y-85785892D01*
X132657334Y-85785894D01*
X132737816Y-85801902D01*
X132739282Y-85802204D01*
X132825354Y-85820500D01*
X132825355Y-85820500D01*
X134008693Y-85820500D01*
X134008694Y-85820499D01*
X134066682Y-85808964D01*
X134182658Y-85785896D01*
X134182661Y-85785894D01*
X134182666Y-85785894D01*
X134346547Y-85718013D01*
X134494035Y-85619464D01*
X134619464Y-85494035D01*
X134718013Y-85346547D01*
X134785894Y-85182666D01*
X134785894Y-85182661D01*
X134785896Y-85182658D01*
X134820499Y-85008695D01*
X134820500Y-85008693D01*
X134820500Y-84831306D01*
X134820499Y-84831304D01*
X134785896Y-84657341D01*
X134785893Y-84657333D01*
X134732282Y-84527902D01*
X134718016Y-84493459D01*
X134718009Y-84493446D01*
X134619464Y-84345965D01*
X134619461Y-84345961D01*
X134494038Y-84220538D01*
X134494034Y-84220535D01*
X134346553Y-84121990D01*
X134346540Y-84121983D01*
X134182667Y-84054106D01*
X134182658Y-84054103D01*
X134008694Y-84019500D01*
X134008691Y-84019500D01*
X133014646Y-84019500D01*
X132825354Y-84019500D01*
X132825350Y-84019500D01*
X132739334Y-84037783D01*
X132737745Y-84038110D01*
X132657336Y-84054105D01*
X132651514Y-84055871D01*
X132651382Y-84055437D01*
X132640720Y-84058744D01*
X132640200Y-84058854D01*
X132640199Y-84058854D01*
X132565969Y-84091904D01*
X132562986Y-84093185D01*
X132493457Y-84121984D01*
X132493450Y-84121988D01*
X132492346Y-84122726D01*
X132473911Y-84132892D01*
X132467272Y-84135848D01*
X132467264Y-84135853D01*
X132406976Y-84179653D01*
X132402986Y-84182434D01*
X132345968Y-84220533D01*
X132345958Y-84220542D01*
X132340253Y-84226246D01*
X132325472Y-84238870D01*
X132314129Y-84247111D01*
X132314126Y-84247114D01*
X132268742Y-84297517D01*
X132264277Y-84302222D01*
X132220539Y-84345961D01*
X132220532Y-84345969D01*
X132212310Y-84358275D01*
X132201362Y-84372350D01*
X132187472Y-84387776D01*
X132187467Y-84387784D01*
X132156914Y-84440703D01*
X132152630Y-84447591D01*
X132121988Y-84493450D01*
X132113741Y-84513360D01*
X132106569Y-84527902D01*
X132092824Y-84551710D01*
X132092821Y-84551715D01*
X132076010Y-84603451D01*
X132072643Y-84612578D01*
X132054106Y-84657333D01*
X132048589Y-84685066D01*
X132044905Y-84699183D01*
X132034325Y-84731747D01*
X132029340Y-84779171D01*
X132027638Y-84790396D01*
X132019500Y-84831310D01*
X132019500Y-84866306D01*
X132018821Y-84879266D01*
X132014540Y-84920000D01*
X131450500Y-84920000D01*
X131450500Y-81485198D01*
X131445370Y-81472813D01*
X131426135Y-81426375D01*
X131418667Y-81356911D01*
X131449941Y-81294431D01*
X131453016Y-81291245D01*
X131784091Y-80960170D01*
X132132364Y-80611897D01*
X132145123Y-80581092D01*
X132188963Y-80526689D01*
X132255257Y-80504624D01*
X132322957Y-80521903D01*
G37*
G04 #@! TD.AperFunction*
G04 #@! TA.AperFunction,Conductor*
G36*
X139805703Y-92927204D02*
G01*
X139843159Y-92984920D01*
X139855387Y-93025227D01*
X139867605Y-93065505D01*
X139955862Y-93230623D01*
X139955864Y-93230626D01*
X140074642Y-93375357D01*
X140219373Y-93494135D01*
X140219376Y-93494137D01*
X140384497Y-93582395D01*
X140384499Y-93582396D01*
X140563666Y-93636746D01*
X140563668Y-93636747D01*
X140572837Y-93637650D01*
X140750000Y-93655099D01*
X140936331Y-93636747D01*
X141115501Y-93582396D01*
X141280625Y-93494136D01*
X141425357Y-93375357D01*
X141496398Y-93288794D01*
X141520764Y-93259104D01*
X141578509Y-93219770D01*
X141648354Y-93217899D01*
X141708122Y-93254087D01*
X141738838Y-93316842D01*
X141740617Y-93337769D01*
X141740617Y-95085993D01*
X141720932Y-95153032D01*
X141704298Y-95173674D01*
X141387637Y-95490334D01*
X141387636Y-95490335D01*
X141349500Y-95582403D01*
X141349500Y-96717596D01*
X141387636Y-96809664D01*
X142112798Y-97534825D01*
X142112801Y-97534829D01*
X142119869Y-97541897D01*
X142190336Y-97612364D01*
X142282405Y-97650500D01*
X143494878Y-97650500D01*
X143561917Y-97670185D01*
X143582559Y-97686819D01*
X144463181Y-98567440D01*
X144496666Y-98628763D01*
X144499500Y-98655121D01*
X144499500Y-99026000D01*
X144479815Y-99093039D01*
X144427011Y-99138794D01*
X144375500Y-99150000D01*
X143830000Y-99150000D01*
X143830000Y-100066988D01*
X143772993Y-100034075D01*
X143645826Y-100000000D01*
X143514174Y-100000000D01*
X143387007Y-100034075D01*
X143330000Y-100066988D01*
X143330000Y-99150000D01*
X142682155Y-99150000D01*
X142622627Y-99156401D01*
X142622619Y-99156403D01*
X142557833Y-99180567D01*
X142488141Y-99185551D01*
X142426818Y-99152066D01*
X142393334Y-99090742D01*
X142390500Y-99064385D01*
X142390500Y-98590173D01*
X142390499Y-98590170D01*
X142384144Y-98574827D01*
X142352364Y-98498103D01*
X142281897Y-98427636D01*
X142274832Y-98420571D01*
X142274825Y-98420565D01*
X139636819Y-95782558D01*
X139603334Y-95721235D01*
X139600500Y-95694877D01*
X139600500Y-93020917D01*
X139620185Y-92953878D01*
X139672989Y-92908123D01*
X139742147Y-92898179D01*
X139805703Y-92927204D01*
G37*
G04 #@! TD.AperFunction*
G04 #@! TA.AperFunction,Conductor*
G36*
X139028016Y-92908587D02*
G01*
X139080410Y-92954811D01*
X139099500Y-93020917D01*
X139099500Y-95899829D01*
X139127094Y-95966446D01*
X139137636Y-95991897D01*
X140503080Y-97357341D01*
X141853181Y-98707441D01*
X141886666Y-98768764D01*
X141889500Y-98795122D01*
X141889500Y-99640700D01*
X141869815Y-99707739D01*
X141817011Y-99753494D01*
X141747853Y-99763438D01*
X141686835Y-99736553D01*
X141598539Y-99664090D01*
X141598532Y-99664086D01*
X141424733Y-99571188D01*
X141424727Y-99571186D01*
X141247528Y-99517433D01*
X141236129Y-99513975D01*
X141040000Y-99494659D01*
X140843870Y-99513975D01*
X140766267Y-99537516D01*
X140655273Y-99571186D01*
X140655270Y-99571187D01*
X140655268Y-99571188D01*
X140612671Y-99593956D01*
X140544268Y-99608197D01*
X140479025Y-99583196D01*
X140466539Y-99572278D01*
X137186819Y-96292558D01*
X137153334Y-96231235D01*
X137150500Y-96204877D01*
X137150500Y-93535652D01*
X137170185Y-93468613D01*
X137222989Y-93422858D01*
X137292147Y-93412914D01*
X137353165Y-93439799D01*
X137419373Y-93494135D01*
X137419376Y-93494137D01*
X137584497Y-93582395D01*
X137584499Y-93582396D01*
X137763666Y-93636746D01*
X137763668Y-93636747D01*
X137772837Y-93637650D01*
X137950000Y-93655099D01*
X138136331Y-93636747D01*
X138315501Y-93582396D01*
X138480625Y-93494136D01*
X138625357Y-93375357D01*
X138744136Y-93230625D01*
X138817008Y-93094290D01*
X138832394Y-93065505D01*
X138832394Y-93065504D01*
X138832396Y-93065501D01*
X138856840Y-92984920D01*
X138895137Y-92926483D01*
X138958949Y-92898027D01*
X139028016Y-92908587D01*
G37*
G04 #@! TD.AperFunction*
G04 #@! TA.AperFunction,Conductor*
G36*
X128117691Y-89115438D02*
G01*
X128164401Y-89167399D01*
X128175604Y-89236365D01*
X128166748Y-89265215D01*
X128167369Y-89265417D01*
X128164352Y-89274698D01*
X128149500Y-89368475D01*
X128149500Y-90131517D01*
X128155533Y-90169608D01*
X128164354Y-90225304D01*
X128221950Y-90338342D01*
X128221952Y-90338344D01*
X128221954Y-90338347D01*
X128311652Y-90428045D01*
X128311654Y-90428046D01*
X128311658Y-90428050D01*
X128424694Y-90485645D01*
X128424698Y-90485647D01*
X128518475Y-90500499D01*
X128518481Y-90500500D01*
X128646213Y-90500499D01*
X128713252Y-90520183D01*
X128759007Y-90572987D01*
X128760773Y-90577045D01*
X128787636Y-90641897D01*
X131898103Y-93752364D01*
X131990172Y-93790500D01*
X132089828Y-93790500D01*
X133884877Y-93790500D01*
X133951916Y-93810185D01*
X133972558Y-93826819D01*
X134114792Y-93969053D01*
X134148277Y-94030376D01*
X134143293Y-94100068D01*
X134101421Y-94156001D01*
X134035957Y-94180418D01*
X134014852Y-94179117D01*
X134014756Y-94180097D01*
X134008694Y-94179500D01*
X134008691Y-94179500D01*
X133014646Y-94179500D01*
X132825354Y-94179500D01*
X132825350Y-94179500D01*
X132739334Y-94197783D01*
X132737745Y-94198110D01*
X132657336Y-94214105D01*
X132651514Y-94215871D01*
X132651382Y-94215437D01*
X132640720Y-94218744D01*
X132640200Y-94218854D01*
X132640199Y-94218854D01*
X132565969Y-94251904D01*
X132562986Y-94253185D01*
X132493457Y-94281984D01*
X132493450Y-94281988D01*
X132492346Y-94282726D01*
X132473911Y-94292892D01*
X132467272Y-94295848D01*
X132467264Y-94295853D01*
X132406976Y-94339653D01*
X132402986Y-94342434D01*
X132345968Y-94380533D01*
X132345958Y-94380542D01*
X132340253Y-94386246D01*
X132325472Y-94398870D01*
X132314129Y-94407111D01*
X132314126Y-94407114D01*
X132268742Y-94457517D01*
X132264277Y-94462222D01*
X132220539Y-94505961D01*
X132220532Y-94505969D01*
X132212310Y-94518275D01*
X132201362Y-94532350D01*
X132187472Y-94547776D01*
X132187467Y-94547784D01*
X132156914Y-94600703D01*
X132152630Y-94607591D01*
X132121988Y-94653450D01*
X132113741Y-94673360D01*
X132106569Y-94687902D01*
X132092824Y-94711710D01*
X132092821Y-94711715D01*
X132076010Y-94763451D01*
X132072643Y-94772578D01*
X132054106Y-94817333D01*
X132048589Y-94845066D01*
X132044905Y-94859183D01*
X132034325Y-94891747D01*
X132029340Y-94939171D01*
X132027638Y-94950396D01*
X132019500Y-94991310D01*
X132019500Y-95026306D01*
X132018821Y-95039266D01*
X132014540Y-95079999D01*
X132018821Y-95120731D01*
X132019500Y-95133692D01*
X132019500Y-95168695D01*
X132027637Y-95209602D01*
X132029341Y-95220831D01*
X132034325Y-95268253D01*
X132034325Y-95268254D01*
X132044904Y-95300811D01*
X132048590Y-95314938D01*
X132054104Y-95342662D01*
X132054105Y-95342664D01*
X132072644Y-95387423D01*
X132076012Y-95396554D01*
X132092819Y-95448279D01*
X132092822Y-95448286D01*
X132106569Y-95472097D01*
X132113742Y-95486643D01*
X132121984Y-95506542D01*
X132121986Y-95506545D01*
X132121987Y-95506547D01*
X132140035Y-95533557D01*
X132152634Y-95552413D01*
X132156912Y-95559294D01*
X132158509Y-95562058D01*
X132187468Y-95612218D01*
X132187469Y-95612219D01*
X132201357Y-95627643D01*
X132212307Y-95641721D01*
X132220534Y-95654033D01*
X132264274Y-95697773D01*
X132268744Y-95702483D01*
X132314129Y-95752888D01*
X132314131Y-95752890D01*
X132325467Y-95761126D01*
X132340263Y-95773763D01*
X132345961Y-95779461D01*
X132345965Y-95779464D01*
X132402994Y-95817570D01*
X132406966Y-95820338D01*
X132467270Y-95864151D01*
X132473902Y-95867104D01*
X132492361Y-95877283D01*
X132493453Y-95878013D01*
X132563042Y-95906836D01*
X132565987Y-95908102D01*
X132640197Y-95941144D01*
X132640668Y-95941244D01*
X132640696Y-95941250D01*
X132651370Y-95944562D01*
X132651503Y-95944125D01*
X132657330Y-95945892D01*
X132657334Y-95945894D01*
X132737816Y-95961902D01*
X132739282Y-95962204D01*
X132825354Y-95980500D01*
X132825355Y-95980500D01*
X134008693Y-95980500D01*
X134008694Y-95980499D01*
X134079345Y-95966446D01*
X134182658Y-95945896D01*
X134182661Y-95945894D01*
X134182666Y-95945894D01*
X134335811Y-95882460D01*
X134346540Y-95878016D01*
X134346540Y-95878015D01*
X134346547Y-95878013D01*
X134494035Y-95779464D01*
X134512376Y-95761123D01*
X134537819Y-95735681D01*
X134599142Y-95702196D01*
X134668834Y-95707180D01*
X134724767Y-95749052D01*
X134749184Y-95814516D01*
X134749500Y-95823362D01*
X134749500Y-96876638D01*
X134729815Y-96943677D01*
X134677011Y-96989432D01*
X134607853Y-96999376D01*
X134544297Y-96970351D01*
X134537819Y-96964319D01*
X134494038Y-96920538D01*
X134494034Y-96920535D01*
X134346553Y-96821990D01*
X134346540Y-96821983D01*
X134182667Y-96754106D01*
X134182658Y-96754103D01*
X134008694Y-96719500D01*
X134008691Y-96719500D01*
X133014646Y-96719500D01*
X132825354Y-96719500D01*
X132825350Y-96719500D01*
X132739334Y-96737783D01*
X132737745Y-96738110D01*
X132657336Y-96754105D01*
X132651514Y-96755871D01*
X132651382Y-96755437D01*
X132640720Y-96758744D01*
X132640200Y-96758854D01*
X132640199Y-96758854D01*
X132565969Y-96791904D01*
X132562986Y-96793185D01*
X132493457Y-96821984D01*
X132493450Y-96821988D01*
X132492346Y-96822726D01*
X132473911Y-96832892D01*
X132467272Y-96835848D01*
X132467264Y-96835853D01*
X132406976Y-96879653D01*
X132402986Y-96882434D01*
X132345968Y-96920533D01*
X132345958Y-96920542D01*
X132340253Y-96926246D01*
X132325472Y-96938870D01*
X132314129Y-96947111D01*
X132314126Y-96947114D01*
X132268742Y-96997517D01*
X132264277Y-97002222D01*
X132220539Y-97045961D01*
X132220532Y-97045969D01*
X132212310Y-97058275D01*
X132201362Y-97072350D01*
X132187472Y-97087776D01*
X132187467Y-97087784D01*
X132156914Y-97140703D01*
X132152630Y-97147591D01*
X132121988Y-97193450D01*
X132113741Y-97213360D01*
X132106569Y-97227902D01*
X132092824Y-97251710D01*
X132092821Y-97251715D01*
X132076010Y-97303451D01*
X132072643Y-97312578D01*
X132054106Y-97357333D01*
X132048589Y-97385066D01*
X132044905Y-97399183D01*
X132034325Y-97431747D01*
X132029340Y-97479171D01*
X132027638Y-97490396D01*
X132021258Y-97522474D01*
X132019500Y-97531310D01*
X132019500Y-97566306D01*
X132018821Y-97579266D01*
X132014540Y-97619999D01*
X132018821Y-97660731D01*
X132019500Y-97673692D01*
X132019500Y-97708695D01*
X132027637Y-97749602D01*
X132029341Y-97760831D01*
X132034325Y-97808253D01*
X132034325Y-97808254D01*
X132044904Y-97840811D01*
X132048590Y-97854938D01*
X132054104Y-97882662D01*
X132054105Y-97882664D01*
X132072644Y-97927423D01*
X132076012Y-97936554D01*
X132087051Y-97970529D01*
X132092821Y-97988284D01*
X132097808Y-97996921D01*
X132106569Y-98012097D01*
X132113742Y-98026643D01*
X132121984Y-98046542D01*
X132152634Y-98092413D01*
X132156912Y-98099294D01*
X132179506Y-98138427D01*
X132187468Y-98152218D01*
X132187469Y-98152219D01*
X132196749Y-98162525D01*
X132226981Y-98225515D01*
X132218358Y-98294851D01*
X132173619Y-98348518D01*
X132106967Y-98369477D01*
X132104602Y-98369500D01*
X132100123Y-98369500D01*
X132033084Y-98349815D01*
X132012442Y-98333181D01*
X129639414Y-95960153D01*
X129605929Y-95898830D01*
X129610913Y-95829138D01*
X129652785Y-95773205D01*
X129670792Y-95761992D01*
X129688342Y-95753050D01*
X129778050Y-95663342D01*
X129835646Y-95550304D01*
X129835646Y-95550302D01*
X129835647Y-95550301D01*
X129850499Y-95456524D01*
X129850500Y-95456519D01*
X129850499Y-94743482D01*
X129835646Y-94649696D01*
X129778050Y-94536658D01*
X129778046Y-94536654D01*
X129778045Y-94536652D01*
X129688347Y-94446954D01*
X129688344Y-94446952D01*
X129688342Y-94446950D01*
X129593990Y-94398875D01*
X129575301Y-94389352D01*
X129481524Y-94374500D01*
X128518482Y-94374500D01*
X128437519Y-94387323D01*
X128424696Y-94389354D01*
X128311658Y-94446950D01*
X128311657Y-94446951D01*
X128311652Y-94446954D01*
X128306615Y-94451992D01*
X128245292Y-94485477D01*
X128175600Y-94480493D01*
X128131253Y-94451992D01*
X127748958Y-94069697D01*
X127715473Y-94008374D01*
X127720457Y-93938682D01*
X127748954Y-93894340D01*
X127791139Y-93852155D01*
X127852458Y-93818673D01*
X127922150Y-93823657D01*
X127966497Y-93852158D01*
X128081654Y-93967315D01*
X128230875Y-94059356D01*
X128230880Y-94059358D01*
X128397302Y-94114505D01*
X128397309Y-94114506D01*
X128500019Y-94124999D01*
X128749999Y-94124999D01*
X129250000Y-94124999D01*
X129499972Y-94124999D01*
X129499986Y-94124998D01*
X129602697Y-94114505D01*
X129769119Y-94059358D01*
X129769124Y-94059356D01*
X129918345Y-93967315D01*
X130042315Y-93843345D01*
X130134356Y-93694124D01*
X130134358Y-93694119D01*
X130189505Y-93527697D01*
X130189506Y-93527690D01*
X130199999Y-93424986D01*
X130200000Y-93424973D01*
X130200000Y-93300000D01*
X129250000Y-93300000D01*
X129250000Y-94124999D01*
X128749999Y-94124999D01*
X128750000Y-94124998D01*
X128750000Y-93300000D01*
X128074500Y-93300000D01*
X128007461Y-93280315D01*
X127961706Y-93227511D01*
X127950500Y-93176000D01*
X127950500Y-92924000D01*
X127970185Y-92856961D01*
X128022989Y-92811206D01*
X128074500Y-92800000D01*
X128750000Y-92800000D01*
X129250000Y-92800000D01*
X130199999Y-92800000D01*
X130199999Y-92675028D01*
X130199998Y-92675013D01*
X130189505Y-92572302D01*
X130134358Y-92405880D01*
X130134356Y-92405875D01*
X130042315Y-92256654D01*
X129918345Y-92132684D01*
X129769124Y-92040643D01*
X129769119Y-92040641D01*
X129602697Y-91985494D01*
X129602690Y-91985493D01*
X129499986Y-91975000D01*
X129250000Y-91975000D01*
X129250000Y-92800000D01*
X128750000Y-92800000D01*
X128750000Y-91975000D01*
X128500029Y-91975000D01*
X128500012Y-91975001D01*
X128397302Y-91985494D01*
X128230880Y-92040641D01*
X128230875Y-92040643D01*
X128081657Y-92132682D01*
X127966497Y-92247841D01*
X127905173Y-92281325D01*
X127835481Y-92276340D01*
X127791135Y-92247840D01*
X127555931Y-92012636D01*
X127463863Y-91974500D01*
X127463862Y-91974500D01*
X125705122Y-91974500D01*
X125638083Y-91954815D01*
X125617441Y-91938181D01*
X124586819Y-90907558D01*
X124553334Y-90846235D01*
X124550500Y-90819877D01*
X124550500Y-90624499D01*
X124570185Y-90557460D01*
X124622989Y-90511705D01*
X124674500Y-90500499D01*
X124781517Y-90500499D01*
X124781518Y-90500499D01*
X124875304Y-90485646D01*
X124988342Y-90428050D01*
X125078050Y-90338342D01*
X125135646Y-90225304D01*
X125135646Y-90225302D01*
X125135647Y-90225301D01*
X125150499Y-90131524D01*
X125150500Y-90131519D01*
X125150499Y-89368482D01*
X125140641Y-89306233D01*
X125138687Y-89293896D01*
X125147643Y-89224603D01*
X125192640Y-89171151D01*
X125259392Y-89150513D01*
X125261161Y-89150500D01*
X125788839Y-89150500D01*
X125855878Y-89170185D01*
X125901633Y-89222989D01*
X125911577Y-89292147D01*
X125911312Y-89293898D01*
X125899500Y-89368475D01*
X125899500Y-90131517D01*
X125905533Y-90169608D01*
X125914354Y-90225304D01*
X125971950Y-90338342D01*
X125971952Y-90338344D01*
X125971954Y-90338347D01*
X126061652Y-90428045D01*
X126061654Y-90428046D01*
X126061658Y-90428050D01*
X126174694Y-90485645D01*
X126174698Y-90485647D01*
X126268475Y-90500499D01*
X126268481Y-90500500D01*
X127231518Y-90500499D01*
X127325304Y-90485646D01*
X127438342Y-90428050D01*
X127528050Y-90338342D01*
X127585646Y-90225304D01*
X127585646Y-90225302D01*
X127585647Y-90225301D01*
X127600499Y-90131524D01*
X127600500Y-90131519D01*
X127600499Y-89368482D01*
X127590641Y-89306233D01*
X127588687Y-89293896D01*
X127597643Y-89224603D01*
X127642640Y-89171151D01*
X127709392Y-89150513D01*
X127711161Y-89150500D01*
X127899826Y-89150500D01*
X127899828Y-89150500D01*
X127991897Y-89112364D01*
X127991897Y-89112363D01*
X128003180Y-89107690D01*
X128004670Y-89111287D01*
X128050304Y-89096980D01*
X128117691Y-89115438D01*
G37*
G04 #@! TD.AperFunction*
G04 #@! TA.AperFunction,Conductor*
G36*
X142384075Y-95957007D02*
G01*
X142350000Y-96084174D01*
X142350000Y-96215826D01*
X142384075Y-96342993D01*
X142416988Y-96400000D01*
X141974500Y-96400000D01*
X141907461Y-96380315D01*
X141861706Y-96327511D01*
X141850500Y-96276000D01*
X141850500Y-96024000D01*
X141870185Y-95956961D01*
X141922989Y-95911206D01*
X141974500Y-95900000D01*
X142416988Y-95900000D01*
X142384075Y-95957007D01*
G37*
G04 #@! TD.AperFunction*
G04 #@! TA.AperFunction,Conductor*
G36*
X145292539Y-95919685D02*
G01*
X145338294Y-95972489D01*
X145349500Y-96024000D01*
X145349500Y-96276000D01*
X145329815Y-96343039D01*
X145277011Y-96388794D01*
X145225500Y-96400000D01*
X144783012Y-96400000D01*
X144815925Y-96342993D01*
X144850000Y-96215826D01*
X144850000Y-96084174D01*
X144815925Y-95957007D01*
X144783012Y-95900000D01*
X145225500Y-95900000D01*
X145292539Y-95919685D01*
G37*
G04 #@! TD.AperFunction*
G04 #@! TA.AperFunction,Conductor*
G36*
X141906226Y-90625562D02*
G01*
X145313181Y-94032516D01*
X145346666Y-94093839D01*
X145349500Y-94120197D01*
X145349500Y-94778713D01*
X145329815Y-94845752D01*
X145277011Y-94891507D01*
X145207853Y-94901451D01*
X145152616Y-94879032D01*
X145136174Y-94867086D01*
X144925802Y-94759897D01*
X144701247Y-94686934D01*
X144701248Y-94686934D01*
X144468052Y-94650000D01*
X143850000Y-94650000D01*
X143850000Y-95650000D01*
X143350000Y-95650000D01*
X143350000Y-94650000D01*
X142731948Y-94650000D01*
X142498751Y-94686934D01*
X142403935Y-94717742D01*
X142334094Y-94719737D01*
X142274261Y-94683656D01*
X142243433Y-94620955D01*
X142241617Y-94599811D01*
X142241617Y-91791290D01*
X142241616Y-91791287D01*
X142241155Y-91790173D01*
X142203481Y-91699220D01*
X142133014Y-91628753D01*
X141640775Y-91136514D01*
X141607290Y-91075191D01*
X141612274Y-91005499D01*
X141619099Y-90990378D01*
X141620531Y-90987696D01*
X141632396Y-90965501D01*
X141686747Y-90786331D01*
X141695142Y-90701088D01*
X141721302Y-90636302D01*
X141778336Y-90595943D01*
X141848136Y-90592826D01*
X141906226Y-90625562D01*
G37*
G04 #@! TD.AperFunction*
G04 #@! TA.AperFunction,Conductor*
G36*
X126943039Y-92495185D02*
G01*
X126988794Y-92547989D01*
X127000000Y-92599500D01*
X127000000Y-92800000D01*
X127325500Y-92800000D01*
X127392539Y-92819685D01*
X127438294Y-92872489D01*
X127449500Y-92924000D01*
X127449500Y-93176000D01*
X127429815Y-93243039D01*
X127377011Y-93288794D01*
X127325500Y-93300000D01*
X127000000Y-93300000D01*
X127000000Y-93678589D01*
X126990561Y-93726042D01*
X126949500Y-93825170D01*
X126949500Y-93924829D01*
X126964571Y-93961213D01*
X126987636Y-94016897D01*
X126987637Y-94016898D01*
X126990561Y-94023957D01*
X127000000Y-94071410D01*
X127000000Y-94124999D01*
X127044376Y-94124999D01*
X127111415Y-94144684D01*
X127132057Y-94161318D01*
X127133558Y-94162819D01*
X127167043Y-94224142D01*
X127162059Y-94293834D01*
X127120187Y-94349767D01*
X127054723Y-94374184D01*
X127045877Y-94374500D01*
X126430123Y-94374500D01*
X126363084Y-94354815D01*
X126342442Y-94338181D01*
X126340941Y-94336680D01*
X126307456Y-94275357D01*
X126312440Y-94205665D01*
X126354312Y-94149732D01*
X126419776Y-94125315D01*
X126428622Y-94124999D01*
X126499999Y-94124999D01*
X126500000Y-94124998D01*
X126500000Y-93300000D01*
X126124500Y-93300000D01*
X126057461Y-93280315D01*
X126011706Y-93227511D01*
X126000500Y-93176000D01*
X126000500Y-93025236D01*
X126000501Y-93025227D01*
X126000501Y-92924000D01*
X126020186Y-92856961D01*
X126072990Y-92811206D01*
X126124501Y-92800000D01*
X126500000Y-92800000D01*
X126500000Y-92599500D01*
X126519685Y-92532461D01*
X126572489Y-92486706D01*
X126624000Y-92475500D01*
X126876000Y-92475500D01*
X126943039Y-92495185D01*
G37*
G04 #@! TD.AperFunction*
G04 #@! TA.AperFunction,Conductor*
G36*
X139028016Y-86108587D02*
G01*
X139080410Y-86154811D01*
X139099500Y-86220917D01*
X139099500Y-92379082D01*
X139079815Y-92446121D01*
X139027011Y-92491876D01*
X138957853Y-92501820D01*
X138894297Y-92472795D01*
X138856840Y-92415078D01*
X138837629Y-92351749D01*
X138832396Y-92334499D01*
X138793375Y-92261495D01*
X138744137Y-92169376D01*
X138744135Y-92169373D01*
X138625357Y-92024642D01*
X138480626Y-91905864D01*
X138480623Y-91905862D01*
X138315502Y-91817604D01*
X138136333Y-91763253D01*
X138136331Y-91763252D01*
X137950000Y-91744901D01*
X137763668Y-91763252D01*
X137763666Y-91763253D01*
X137584497Y-91817604D01*
X137419376Y-91905862D01*
X137419374Y-91905864D01*
X137353164Y-91960201D01*
X137288854Y-91987513D01*
X137219987Y-91975722D01*
X137168427Y-91928569D01*
X137150500Y-91864347D01*
X137150500Y-86735652D01*
X137170185Y-86668613D01*
X137222989Y-86622858D01*
X137292147Y-86612914D01*
X137353165Y-86639799D01*
X137419373Y-86694135D01*
X137419376Y-86694137D01*
X137584158Y-86782214D01*
X137584499Y-86782396D01*
X137709072Y-86820185D01*
X137763666Y-86836746D01*
X137763668Y-86836747D01*
X137780374Y-86838392D01*
X137950000Y-86855099D01*
X138136331Y-86836747D01*
X138315501Y-86782396D01*
X138480625Y-86694136D01*
X138625357Y-86575357D01*
X138744136Y-86430625D01*
X138832396Y-86265501D01*
X138856840Y-86184920D01*
X138895137Y-86126483D01*
X138958949Y-86098027D01*
X139028016Y-86108587D01*
G37*
G04 #@! TD.AperFunction*
G04 #@! TA.AperFunction,Conductor*
G36*
X128105878Y-80920185D02*
G01*
X128151633Y-80972989D01*
X128161577Y-81042147D01*
X128161312Y-81043898D01*
X128149500Y-81118475D01*
X128149500Y-81881517D01*
X128160292Y-81949657D01*
X128164354Y-81975304D01*
X128221950Y-82088342D01*
X128221952Y-82088344D01*
X128221954Y-82088347D01*
X128311652Y-82178045D01*
X128311654Y-82178046D01*
X128311658Y-82178050D01*
X128422498Y-82234526D01*
X128424698Y-82235647D01*
X128512116Y-82249491D01*
X128517824Y-82250396D01*
X128518475Y-82250499D01*
X128518481Y-82250500D01*
X129481518Y-82250499D01*
X129575304Y-82235646D01*
X129688342Y-82178050D01*
X129778050Y-82088342D01*
X129835646Y-81975304D01*
X129835646Y-81975302D01*
X129835647Y-81975301D01*
X129850499Y-81881524D01*
X129850500Y-81881519D01*
X129850499Y-81334121D01*
X129870183Y-81267083D01*
X129922987Y-81221328D01*
X129992146Y-81211384D01*
X130055702Y-81240409D01*
X130062180Y-81246441D01*
X130563181Y-81747442D01*
X130596666Y-81808765D01*
X130599500Y-81835123D01*
X130599500Y-87402011D01*
X130637636Y-87494079D01*
X130643181Y-87499624D01*
X130676666Y-87560947D01*
X130679500Y-87587305D01*
X130679500Y-87732695D01*
X130659815Y-87799734D01*
X130643181Y-87820376D01*
X130637637Y-87825919D01*
X130637636Y-87825920D01*
X130599500Y-87917988D01*
X130599500Y-91445877D01*
X130579815Y-91512916D01*
X130527011Y-91558671D01*
X130457853Y-91568615D01*
X130394297Y-91539590D01*
X130387819Y-91533558D01*
X129540045Y-90685784D01*
X129506560Y-90624461D01*
X129511544Y-90554769D01*
X129553416Y-90498836D01*
X129571431Y-90487618D01*
X129575300Y-90485646D01*
X129575304Y-90485646D01*
X129688342Y-90428050D01*
X129778050Y-90338342D01*
X129835646Y-90225304D01*
X129835646Y-90225302D01*
X129835647Y-90225301D01*
X129850499Y-90131524D01*
X129850500Y-90131519D01*
X129850499Y-89368482D01*
X129835646Y-89274696D01*
X129778050Y-89161658D01*
X129778046Y-89161654D01*
X129778045Y-89161652D01*
X129688347Y-89071954D01*
X129688344Y-89071952D01*
X129688342Y-89071950D01*
X129600145Y-89027011D01*
X129575301Y-89014352D01*
X129481524Y-88999500D01*
X128518482Y-88999500D01*
X128424693Y-89014354D01*
X128419984Y-89015885D01*
X128350143Y-89017879D01*
X128290311Y-88981797D01*
X128259484Y-88919096D01*
X128267450Y-88849681D01*
X128293984Y-88810275D01*
X128567441Y-88536817D01*
X128628764Y-88503333D01*
X128655122Y-88500499D01*
X129481517Y-88500499D01*
X129481518Y-88500499D01*
X129575304Y-88485646D01*
X129688342Y-88428050D01*
X129778050Y-88338342D01*
X129835646Y-88225304D01*
X129835646Y-88225302D01*
X129835647Y-88225301D01*
X129850499Y-88131524D01*
X129850500Y-88131519D01*
X129850499Y-87368482D01*
X129835646Y-87274696D01*
X129778050Y-87161658D01*
X129778046Y-87161654D01*
X129778045Y-87161652D01*
X129688347Y-87071954D01*
X129688344Y-87071952D01*
X129688342Y-87071950D01*
X129582882Y-87018215D01*
X129575301Y-87014352D01*
X129481524Y-86999500D01*
X128518482Y-86999500D01*
X128437519Y-87012323D01*
X128424696Y-87014354D01*
X128311658Y-87071950D01*
X128311657Y-87071951D01*
X128311652Y-87071954D01*
X128221954Y-87161652D01*
X128221951Y-87161657D01*
X128221950Y-87161658D01*
X128209965Y-87185180D01*
X128164352Y-87274698D01*
X128149500Y-87368475D01*
X128149500Y-88131519D01*
X128155302Y-88168152D01*
X128146345Y-88237445D01*
X128120509Y-88275228D01*
X127782556Y-88613182D01*
X127721235Y-88646666D01*
X127694877Y-88649500D01*
X127515175Y-88649500D01*
X127448136Y-88629815D01*
X127402381Y-88577011D01*
X127392437Y-88507853D01*
X127421462Y-88444297D01*
X127431539Y-88435048D01*
X127431442Y-88434951D01*
X127528045Y-88338347D01*
X127528050Y-88338342D01*
X127585646Y-88225304D01*
X127585646Y-88225302D01*
X127585647Y-88225301D01*
X127600499Y-88131524D01*
X127600500Y-88131519D01*
X127600499Y-87368482D01*
X127585646Y-87274696D01*
X127528050Y-87161658D01*
X127528046Y-87161654D01*
X127528045Y-87161652D01*
X127438347Y-87071954D01*
X127438344Y-87071952D01*
X127438342Y-87071950D01*
X127332882Y-87018215D01*
X127325301Y-87014352D01*
X127231524Y-86999500D01*
X126268482Y-86999500D01*
X126187519Y-87012323D01*
X126174696Y-87014354D01*
X126061658Y-87071950D01*
X126061657Y-87071951D01*
X126061652Y-87071954D01*
X125971954Y-87161652D01*
X125971951Y-87161657D01*
X125971950Y-87161658D01*
X125959965Y-87185180D01*
X125914352Y-87274698D01*
X125899500Y-87368475D01*
X125899500Y-88131517D01*
X125909379Y-88193889D01*
X125914354Y-88225304D01*
X125971950Y-88338342D01*
X125971952Y-88338344D01*
X125971954Y-88338347D01*
X126068558Y-88434951D01*
X126066685Y-88436823D01*
X126100373Y-88480504D01*
X126106357Y-88550117D01*
X126073755Y-88611915D01*
X126012918Y-88646276D01*
X125984825Y-88649500D01*
X125065175Y-88649500D01*
X124998136Y-88629815D01*
X124952381Y-88577011D01*
X124942437Y-88507853D01*
X124971462Y-88444297D01*
X124981539Y-88435048D01*
X124981442Y-88434951D01*
X125078045Y-88338347D01*
X125078050Y-88338342D01*
X125135646Y-88225304D01*
X125135646Y-88225302D01*
X125135647Y-88225301D01*
X125150499Y-88131524D01*
X125150500Y-88131519D01*
X125150499Y-87368482D01*
X125135646Y-87274696D01*
X125078050Y-87161658D01*
X125078046Y-87161654D01*
X125078045Y-87161652D01*
X124988347Y-87071954D01*
X124988344Y-87071952D01*
X124988342Y-87071950D01*
X124882882Y-87018215D01*
X124875301Y-87014352D01*
X124781524Y-86999500D01*
X123818482Y-86999500D01*
X123737519Y-87012323D01*
X123724696Y-87014354D01*
X123611658Y-87071950D01*
X123611657Y-87071951D01*
X123611652Y-87071954D01*
X123521954Y-87161652D01*
X123521951Y-87161657D01*
X123521950Y-87161658D01*
X123509965Y-87185180D01*
X123464352Y-87274698D01*
X123449500Y-87368475D01*
X123449500Y-88131517D01*
X123459379Y-88193889D01*
X123464354Y-88225304D01*
X123521950Y-88338342D01*
X123521952Y-88338344D01*
X123521954Y-88338347D01*
X123618558Y-88434951D01*
X123616685Y-88436823D01*
X123650373Y-88480504D01*
X123656357Y-88550117D01*
X123623755Y-88611915D01*
X123562918Y-88646276D01*
X123534825Y-88649500D01*
X123015175Y-88649500D01*
X122948136Y-88629815D01*
X122902381Y-88577011D01*
X122892437Y-88507853D01*
X122921462Y-88444297D01*
X122931539Y-88435048D01*
X122931442Y-88434951D01*
X123028045Y-88338347D01*
X123028050Y-88338342D01*
X123085646Y-88225304D01*
X123085646Y-88225302D01*
X123085647Y-88225301D01*
X123100499Y-88131524D01*
X123100500Y-88131519D01*
X123100499Y-87368482D01*
X123085646Y-87274696D01*
X123028050Y-87161658D01*
X123028046Y-87161654D01*
X123028045Y-87161652D01*
X122938347Y-87071954D01*
X122938344Y-87071952D01*
X122938342Y-87071950D01*
X122832882Y-87018215D01*
X122825301Y-87014352D01*
X122731524Y-86999500D01*
X121768482Y-86999500D01*
X121687519Y-87012323D01*
X121674696Y-87014354D01*
X121561658Y-87071950D01*
X121561657Y-87071951D01*
X121561652Y-87071954D01*
X121471954Y-87161652D01*
X121471951Y-87161657D01*
X121471950Y-87161658D01*
X121459965Y-87185180D01*
X121414352Y-87274698D01*
X121399500Y-87368475D01*
X121399500Y-87375500D01*
X121379815Y-87442539D01*
X121327011Y-87488294D01*
X121275500Y-87499500D01*
X120950170Y-87499500D01*
X120858102Y-87537636D01*
X120654257Y-87741481D01*
X120592934Y-87774966D01*
X120523242Y-87769982D01*
X120467309Y-87728110D01*
X120443838Y-87671447D01*
X120436697Y-87621774D01*
X120382882Y-87503937D01*
X120298049Y-87406033D01*
X120189069Y-87335996D01*
X120189068Y-87335995D01*
X120189064Y-87335993D01*
X120089566Y-87306779D01*
X120030787Y-87269005D01*
X120001762Y-87205450D01*
X120000500Y-87187802D01*
X120000500Y-86191796D01*
X120020185Y-86124757D01*
X120043302Y-86098079D01*
X120048038Y-86093973D01*
X120048049Y-86093967D01*
X120116367Y-86015123D01*
X120132879Y-85996067D01*
X120132879Y-85996065D01*
X120132882Y-85996063D01*
X120186697Y-85878226D01*
X120205133Y-85750000D01*
X120186697Y-85621774D01*
X120132882Y-85503937D01*
X120048049Y-85406033D01*
X119939069Y-85335996D01*
X119939065Y-85335994D01*
X119939064Y-85335994D01*
X119814774Y-85299500D01*
X119814772Y-85299500D01*
X119685228Y-85299500D01*
X119685227Y-85299500D01*
X119612752Y-85320779D01*
X119542883Y-85320777D01*
X119484105Y-85283002D01*
X119455082Y-85219446D01*
X119465027Y-85150287D01*
X119490135Y-85114125D01*
X120467442Y-84136819D01*
X120528765Y-84103334D01*
X120555123Y-84100500D01*
X120680843Y-84100500D01*
X120747882Y-84120185D01*
X120768524Y-84136819D01*
X121116531Y-84484825D01*
X121116534Y-84484829D01*
X121116535Y-84484829D01*
X121123601Y-84491895D01*
X121123602Y-84491897D01*
X121159607Y-84527902D01*
X121194069Y-84562364D01*
X121221034Y-84573534D01*
X121286135Y-84600500D01*
X121286136Y-84600500D01*
X121286138Y-84600501D01*
X121286139Y-84600501D01*
X121400228Y-84600501D01*
X121400236Y-84600500D01*
X125949826Y-84600500D01*
X125949828Y-84600500D01*
X126041897Y-84562364D01*
X126317441Y-84286817D01*
X126378764Y-84253333D01*
X126405123Y-84250499D01*
X127231517Y-84250499D01*
X127231518Y-84250499D01*
X127325304Y-84235646D01*
X127438342Y-84178050D01*
X127528050Y-84088342D01*
X127585646Y-83975304D01*
X127585646Y-83975302D01*
X127585647Y-83975301D01*
X127600499Y-83881524D01*
X127600500Y-83881519D01*
X127600499Y-83118482D01*
X127600498Y-83118475D01*
X128149500Y-83118475D01*
X128149500Y-83881517D01*
X128159873Y-83947011D01*
X128164354Y-83975304D01*
X128221950Y-84088342D01*
X128221952Y-84088344D01*
X128221954Y-84088347D01*
X128311652Y-84178045D01*
X128311654Y-84178046D01*
X128311658Y-84178050D01*
X128406248Y-84226246D01*
X128424698Y-84235647D01*
X128518475Y-84250499D01*
X128518481Y-84250500D01*
X129481518Y-84250499D01*
X129575304Y-84235646D01*
X129688342Y-84178050D01*
X129778050Y-84088342D01*
X129835646Y-83975304D01*
X129835646Y-83975302D01*
X129835647Y-83975301D01*
X129850499Y-83881524D01*
X129850500Y-83881519D01*
X129850499Y-83118482D01*
X129835646Y-83024696D01*
X129778050Y-82911658D01*
X129778046Y-82911654D01*
X129778045Y-82911652D01*
X129688347Y-82821954D01*
X129688344Y-82821952D01*
X129688342Y-82821950D01*
X129604311Y-82779134D01*
X129575301Y-82764352D01*
X129481524Y-82749500D01*
X128518482Y-82749500D01*
X128437519Y-82762323D01*
X128424696Y-82764354D01*
X128311658Y-82821950D01*
X128311657Y-82821951D01*
X128311652Y-82821954D01*
X128221954Y-82911652D01*
X128221951Y-82911657D01*
X128221950Y-82911658D01*
X128206632Y-82941721D01*
X128164352Y-83024698D01*
X128149500Y-83118475D01*
X127600498Y-83118475D01*
X127585646Y-83024696D01*
X127528050Y-82911658D01*
X127528046Y-82911654D01*
X127528045Y-82911652D01*
X127438347Y-82821954D01*
X127438344Y-82821952D01*
X127438342Y-82821950D01*
X127354311Y-82779134D01*
X127325301Y-82764352D01*
X127231524Y-82749500D01*
X126268482Y-82749500D01*
X126187519Y-82762323D01*
X126174696Y-82764354D01*
X126061658Y-82821950D01*
X126061657Y-82821951D01*
X126061652Y-82821954D01*
X125971954Y-82911652D01*
X125971951Y-82911657D01*
X125971950Y-82911658D01*
X125956632Y-82941721D01*
X125914352Y-83024698D01*
X125899500Y-83118475D01*
X125899500Y-83881519D01*
X125905302Y-83918151D01*
X125896345Y-83987444D01*
X125870512Y-84025225D01*
X125832560Y-84063179D01*
X125771237Y-84096666D01*
X125744876Y-84099500D01*
X125211161Y-84099500D01*
X125144122Y-84079815D01*
X125098367Y-84027011D01*
X125088423Y-83957853D01*
X125088688Y-83956102D01*
X125100499Y-83881524D01*
X125100500Y-83881519D01*
X125100499Y-83118482D01*
X125085646Y-83024696D01*
X125028050Y-82911658D01*
X125028046Y-82911654D01*
X125028045Y-82911652D01*
X124931442Y-82815049D01*
X124933314Y-82813176D01*
X124899627Y-82769496D01*
X124893643Y-82699883D01*
X124926245Y-82638085D01*
X124987082Y-82603724D01*
X125015175Y-82600500D01*
X125563860Y-82600500D01*
X125563862Y-82600500D01*
X125655931Y-82562364D01*
X125983769Y-82234526D01*
X126045092Y-82201041D01*
X126114784Y-82206025D01*
X126127736Y-82211718D01*
X126172498Y-82234526D01*
X126174696Y-82235646D01*
X126174698Y-82235647D01*
X126262116Y-82249491D01*
X126267824Y-82250396D01*
X126268475Y-82250499D01*
X126268481Y-82250500D01*
X127231518Y-82250499D01*
X127325304Y-82235646D01*
X127438342Y-82178050D01*
X127528050Y-82088342D01*
X127585646Y-81975304D01*
X127585646Y-81975302D01*
X127585647Y-81975301D01*
X127600499Y-81881524D01*
X127600500Y-81881519D01*
X127600499Y-81118482D01*
X127599788Y-81113995D01*
X127594697Y-81081846D01*
X127603653Y-81012553D01*
X127629490Y-80974770D01*
X127667442Y-80936818D01*
X127728766Y-80903333D01*
X127755122Y-80900500D01*
X128038839Y-80900500D01*
X128105878Y-80920185D01*
G37*
G04 #@! TD.AperFunction*
G04 #@! TA.AperFunction,Conductor*
G36*
X119238301Y-85468473D02*
G01*
X119294234Y-85510345D01*
X119318651Y-85575809D01*
X119313944Y-85619589D01*
X119313303Y-85621770D01*
X119294867Y-85750000D01*
X119313302Y-85878225D01*
X119367117Y-85996061D01*
X119367120Y-85996067D01*
X119424030Y-86061744D01*
X119451951Y-86093967D01*
X119451957Y-86093971D01*
X119456698Y-86098079D01*
X119494475Y-86156856D01*
X119499500Y-86191796D01*
X119499500Y-87549829D01*
X119541523Y-87651281D01*
X119549700Y-87716379D01*
X119544867Y-87749997D01*
X119544867Y-87749999D01*
X119563302Y-87878225D01*
X119603320Y-87965851D01*
X119617118Y-87996063D01*
X119701951Y-88093967D01*
X119810931Y-88164004D01*
X119935228Y-88200500D01*
X119935231Y-88200500D01*
X119935694Y-88200636D01*
X119994473Y-88238410D01*
X120023499Y-88301965D01*
X120013556Y-88371124D01*
X119988442Y-88407295D01*
X118713249Y-89682488D01*
X118651926Y-89715973D01*
X118582234Y-89710989D01*
X118526301Y-89669117D01*
X118509955Y-89637596D01*
X118509824Y-89637655D01*
X118508839Y-89635443D01*
X118507636Y-89633123D01*
X118507179Y-89631716D01*
X118493424Y-89607892D01*
X118486256Y-89593355D01*
X118478014Y-89573456D01*
X118478013Y-89573454D01*
X118478013Y-89573453D01*
X118447359Y-89527577D01*
X118443088Y-89520708D01*
X118412534Y-89467785D01*
X118412530Y-89467780D01*
X118398637Y-89452350D01*
X118387684Y-89438268D01*
X118379464Y-89425965D01*
X118335721Y-89382222D01*
X118331255Y-89377516D01*
X118285871Y-89327112D01*
X118285870Y-89327111D01*
X118274527Y-89318870D01*
X118259737Y-89306238D01*
X118254035Y-89300536D01*
X118197008Y-89262431D01*
X118193016Y-89259649D01*
X118132730Y-89215849D01*
X118126092Y-89212893D01*
X118107643Y-89202719D01*
X118106551Y-89201989D01*
X118106546Y-89201986D01*
X118036993Y-89173177D01*
X118034010Y-89171895D01*
X117959806Y-89138856D01*
X117959797Y-89138853D01*
X117959285Y-89138745D01*
X117948626Y-89135438D01*
X117948494Y-89135874D01*
X117942667Y-89134106D01*
X117942666Y-89134106D01*
X117942663Y-89134105D01*
X117942662Y-89134105D01*
X117862268Y-89118113D01*
X117860715Y-89117794D01*
X117774646Y-89099500D01*
X117768691Y-89099500D01*
X116591309Y-89099500D01*
X116591306Y-89099500D01*
X116417341Y-89134103D01*
X116417332Y-89134106D01*
X116253459Y-89201983D01*
X116253446Y-89201990D01*
X116105965Y-89300535D01*
X116105961Y-89300538D01*
X115980538Y-89425961D01*
X115980535Y-89425965D01*
X115881990Y-89573446D01*
X115881983Y-89573459D01*
X115814106Y-89737332D01*
X115814103Y-89737341D01*
X115779500Y-89911304D01*
X115779500Y-90088695D01*
X115814103Y-90262658D01*
X115814106Y-90262667D01*
X115881983Y-90426540D01*
X115881990Y-90426552D01*
X115968892Y-90556609D01*
X115989770Y-90623286D01*
X115971286Y-90690666D01*
X115919307Y-90737357D01*
X115865790Y-90749500D01*
X114700170Y-90749500D01*
X114608102Y-90787636D01*
X114608101Y-90787637D01*
X113932558Y-91463181D01*
X113871235Y-91496666D01*
X113844877Y-91499500D01*
X113065398Y-91499500D01*
X112998359Y-91479815D01*
X112952604Y-91427011D01*
X112942660Y-91357853D01*
X112971685Y-91294297D01*
X112973248Y-91292528D01*
X112982533Y-91282216D01*
X113077179Y-91118284D01*
X113135674Y-90938256D01*
X113155460Y-90750000D01*
X113135674Y-90561744D01*
X113077179Y-90381716D01*
X112982533Y-90217784D01*
X112855871Y-90077112D01*
X112855870Y-90077111D01*
X112702734Y-89965851D01*
X112702729Y-89965848D01*
X112529807Y-89888857D01*
X112529800Y-89888855D01*
X112447161Y-89871290D01*
X112385679Y-89838098D01*
X112351902Y-89776935D01*
X112356554Y-89707221D01*
X112398158Y-89651088D01*
X112447161Y-89628710D01*
X112453201Y-89627426D01*
X112529803Y-89611144D01*
X112702730Y-89534151D01*
X112855871Y-89422888D01*
X112982533Y-89282216D01*
X113077179Y-89118284D01*
X113135674Y-88938256D01*
X113155460Y-88750000D01*
X113135674Y-88561744D01*
X113077179Y-88381716D01*
X113075171Y-88375535D01*
X113077925Y-88374640D01*
X113070324Y-88317910D01*
X113099958Y-88254636D01*
X113105189Y-88249070D01*
X114607442Y-86746819D01*
X114668765Y-86713334D01*
X114695123Y-86710500D01*
X115865790Y-86710500D01*
X115932829Y-86730185D01*
X115978584Y-86782989D01*
X115988528Y-86852147D01*
X115968892Y-86903391D01*
X115881990Y-87033447D01*
X115881983Y-87033459D01*
X115814106Y-87197332D01*
X115814103Y-87197341D01*
X115779500Y-87371304D01*
X115779500Y-87548695D01*
X115814103Y-87722658D01*
X115814106Y-87722667D01*
X115881983Y-87886540D01*
X115881990Y-87886553D01*
X115980535Y-88034034D01*
X115980538Y-88034038D01*
X116105961Y-88159461D01*
X116105965Y-88159464D01*
X116253446Y-88258009D01*
X116253459Y-88258016D01*
X116376363Y-88308923D01*
X116417334Y-88325894D01*
X116417336Y-88325894D01*
X116417341Y-88325896D01*
X116591304Y-88360499D01*
X116591307Y-88360500D01*
X116591309Y-88360500D01*
X117774645Y-88360500D01*
X117774646Y-88360500D01*
X117860746Y-88342198D01*
X117862180Y-88341902D01*
X117942666Y-88325894D01*
X117942669Y-88325892D01*
X117942672Y-88325892D01*
X117948496Y-88324126D01*
X117948631Y-88324573D01*
X117959315Y-88321247D01*
X117959803Y-88321144D01*
X118034057Y-88288082D01*
X118036955Y-88286837D01*
X118106547Y-88258013D01*
X118107633Y-88257287D01*
X118126095Y-88247104D01*
X118132730Y-88244151D01*
X118193054Y-88200322D01*
X118196952Y-88197605D01*
X118254035Y-88159464D01*
X118259739Y-88153758D01*
X118274531Y-88141126D01*
X118285871Y-88132888D01*
X118331274Y-88082461D01*
X118335687Y-88077810D01*
X118379464Y-88034035D01*
X118387687Y-88021727D01*
X118398642Y-88007643D01*
X118412531Y-87992218D01*
X118412530Y-87992218D01*
X118412533Y-87992216D01*
X118443091Y-87939284D01*
X118447368Y-87932408D01*
X118478013Y-87886547D01*
X118486259Y-87866637D01*
X118493433Y-87852091D01*
X118499647Y-87841330D01*
X118507179Y-87828284D01*
X118523995Y-87776528D01*
X118527351Y-87767431D01*
X118545894Y-87722666D01*
X118551411Y-87694927D01*
X118555094Y-87680813D01*
X118565674Y-87648256D01*
X118570656Y-87600837D01*
X118572361Y-87589604D01*
X118580500Y-87548695D01*
X118580500Y-87513692D01*
X118581179Y-87500731D01*
X118581308Y-87499500D01*
X118585460Y-87460000D01*
X118581179Y-87419266D01*
X118580500Y-87406306D01*
X118580500Y-87371309D01*
X118572360Y-87330393D01*
X118570656Y-87319156D01*
X118565674Y-87271744D01*
X118555094Y-87239183D01*
X118551409Y-87225059D01*
X118545895Y-87197339D01*
X118545894Y-87197338D01*
X118545894Y-87197334D01*
X118527352Y-87152569D01*
X118523990Y-87143455D01*
X118507181Y-87091720D01*
X118507178Y-87091715D01*
X118493424Y-87067892D01*
X118486256Y-87053355D01*
X118485757Y-87052151D01*
X118478013Y-87033453D01*
X118447359Y-86987577D01*
X118443088Y-86980708D01*
X118412534Y-86927785D01*
X118412530Y-86927780D01*
X118398637Y-86912350D01*
X118387684Y-86898268D01*
X118379464Y-86885965D01*
X118335721Y-86842222D01*
X118331255Y-86837516D01*
X118285871Y-86787112D01*
X118279380Y-86782396D01*
X118274527Y-86778870D01*
X118259737Y-86766238D01*
X118254035Y-86760536D01*
X118197008Y-86722431D01*
X118193017Y-86719649D01*
X118131848Y-86675208D01*
X118089181Y-86619878D01*
X118083202Y-86550265D01*
X118115807Y-86488470D01*
X118116978Y-86487281D01*
X119107286Y-85496973D01*
X119168609Y-85463489D01*
X119238301Y-85468473D01*
G37*
G04 #@! TD.AperFunction*
G04 #@! TA.AperFunction,Conductor*
G36*
X141267553Y-79899220D02*
G01*
X141282672Y-79906044D01*
X141325266Y-79928811D01*
X141325269Y-79928811D01*
X141325273Y-79928814D01*
X141513868Y-79986024D01*
X141627543Y-79997219D01*
X141692329Y-80023379D01*
X141732688Y-80080413D01*
X141735805Y-80150214D01*
X141703069Y-80208303D01*
X141340662Y-80570711D01*
X141340661Y-80570711D01*
X141340662Y-80570712D01*
X141287636Y-80623738D01*
X141249500Y-80715805D01*
X141249500Y-83549829D01*
X141287636Y-83641897D01*
X144251260Y-86605521D01*
X144284745Y-86666844D01*
X144279761Y-86736536D01*
X144237889Y-86792469D01*
X144182977Y-86815675D01*
X144048752Y-86836934D01*
X143824197Y-86909897D01*
X143613828Y-87017085D01*
X143422813Y-87155866D01*
X143255866Y-87322813D01*
X143117085Y-87513828D01*
X143009897Y-87724197D01*
X142936934Y-87948752D01*
X142900000Y-88181947D01*
X142900000Y-89050000D01*
X143900000Y-89050000D01*
X143900000Y-89550000D01*
X142900000Y-89550000D01*
X142900000Y-90418053D01*
X142899999Y-90418053D01*
X142933032Y-90626614D01*
X142924077Y-90695907D01*
X142879081Y-90749359D01*
X142812329Y-90769998D01*
X142745016Y-90751273D01*
X142722878Y-90733692D01*
X141326822Y-89337636D01*
X141234754Y-89299500D01*
X141234753Y-89299500D01*
X140470198Y-89299500D01*
X140403159Y-89279815D01*
X140382517Y-89263181D01*
X140281517Y-89162181D01*
X140248032Y-89100858D01*
X140253016Y-89031166D01*
X140294888Y-88975233D01*
X140360352Y-88950816D01*
X140369198Y-88950500D01*
X141564822Y-88950500D01*
X141608717Y-88941768D01*
X141608717Y-88941767D01*
X141608722Y-88941767D01*
X141658504Y-88908504D01*
X141691767Y-88858722D01*
X141692754Y-88853761D01*
X141700500Y-88814822D01*
X141700500Y-87185177D01*
X141691768Y-87141282D01*
X141691767Y-87141281D01*
X141691767Y-87141278D01*
X141658504Y-87091496D01*
X141658503Y-87091495D01*
X141608724Y-87058234D01*
X141608718Y-87058231D01*
X141578150Y-87052151D01*
X141516240Y-87019765D01*
X141514662Y-87018215D01*
X140796447Y-86300000D01*
X140802661Y-86300000D01*
X140904394Y-86272741D01*
X140995606Y-86220080D01*
X141070080Y-86145606D01*
X141122741Y-86054394D01*
X141150000Y-85952661D01*
X141150000Y-85946447D01*
X141829024Y-86625471D01*
X141880136Y-86552478D01*
X141976264Y-86346331D01*
X141976269Y-86346317D01*
X142035139Y-86126610D01*
X142035141Y-86126599D01*
X142054966Y-85900002D01*
X142054966Y-85899997D01*
X142035141Y-85673400D01*
X142035139Y-85673389D01*
X141976269Y-85453682D01*
X141976264Y-85453668D01*
X141880136Y-85247521D01*
X141880132Y-85247513D01*
X141829025Y-85174526D01*
X141150000Y-85853551D01*
X141150000Y-85847339D01*
X141122741Y-85745606D01*
X141070080Y-85654394D01*
X140995606Y-85579920D01*
X140904394Y-85527259D01*
X140802661Y-85500000D01*
X140796447Y-85500000D01*
X141475472Y-84820974D01*
X141402478Y-84769863D01*
X141196331Y-84673735D01*
X141196317Y-84673730D01*
X140976610Y-84614860D01*
X140976599Y-84614858D01*
X140750002Y-84595034D01*
X140749998Y-84595034D01*
X140523400Y-84614858D01*
X140523389Y-84614860D01*
X140303682Y-84673730D01*
X140303668Y-84673735D01*
X140126904Y-84756162D01*
X140057827Y-84766654D01*
X139994043Y-84738134D01*
X139955804Y-84679657D01*
X139950500Y-84643780D01*
X139950500Y-81165122D01*
X139970185Y-81098083D01*
X139986814Y-81077446D01*
X141136540Y-79927719D01*
X141197861Y-79894236D01*
X141267553Y-79899220D01*
G37*
G04 #@! TD.AperFunction*
G04 #@! TA.AperFunction,Conductor*
G36*
X115705304Y-84937254D02*
G01*
X115761237Y-84979126D01*
X115783587Y-85029244D01*
X115814104Y-85182659D01*
X115814106Y-85182667D01*
X115881983Y-85346540D01*
X115881990Y-85346553D01*
X115980535Y-85494034D01*
X115980538Y-85494038D01*
X116105961Y-85619461D01*
X116105965Y-85619464D01*
X116253446Y-85718009D01*
X116253459Y-85718016D01*
X116324504Y-85747443D01*
X116417334Y-85785894D01*
X116417336Y-85785894D01*
X116417341Y-85785896D01*
X116591304Y-85820499D01*
X116591307Y-85820500D01*
X117775877Y-85820500D01*
X117842916Y-85840185D01*
X117888671Y-85892989D01*
X117898615Y-85962147D01*
X117869590Y-86025703D01*
X117863558Y-86032181D01*
X117722558Y-86173181D01*
X117661235Y-86206666D01*
X117634877Y-86209500D01*
X114629907Y-86209500D01*
X114562868Y-86189815D01*
X114517113Y-86137011D01*
X114507169Y-86067853D01*
X114536194Y-86004297D01*
X114542226Y-85997819D01*
X115054868Y-85485177D01*
X115574291Y-84965753D01*
X115635612Y-84932270D01*
X115705304Y-84937254D01*
G37*
G04 #@! TD.AperFunction*
G04 #@! TA.AperFunction,Conductor*
G36*
X109287652Y-79070185D02*
G01*
X109308294Y-79086819D01*
X109883794Y-79662319D01*
X109917279Y-79723642D01*
X109912295Y-79793334D01*
X109883794Y-79837681D01*
X109859491Y-79861983D01*
X109859489Y-79861985D01*
X109829508Y-79913917D01*
X109829507Y-79913918D01*
X109787017Y-79987512D01*
X109787016Y-79987513D01*
X109776099Y-80028256D01*
X109749500Y-80127525D01*
X109749500Y-84372475D01*
X109768257Y-84442475D01*
X109787016Y-84512485D01*
X109846120Y-84614858D01*
X109859489Y-84638013D01*
X109859491Y-84638016D01*
X110359294Y-85137819D01*
X110392779Y-85199142D01*
X110387795Y-85268834D01*
X110345923Y-85324767D01*
X110280459Y-85349184D01*
X110271613Y-85349500D01*
X108865178Y-85349500D01*
X108821282Y-85358231D01*
X108821275Y-85358234D01*
X108771496Y-85391495D01*
X108771495Y-85391496D01*
X108738234Y-85441275D01*
X108738231Y-85441282D01*
X108729500Y-85485177D01*
X108729500Y-85575500D01*
X108709815Y-85642539D01*
X108657011Y-85688294D01*
X108605500Y-85699500D01*
X106779386Y-85699500D01*
X106712347Y-85679815D01*
X106691705Y-85663181D01*
X106664285Y-85635761D01*
X106630800Y-85574438D01*
X106635784Y-85504746D01*
X106677656Y-85448813D01*
X106743120Y-85424396D01*
X106760076Y-85424346D01*
X106919992Y-85434827D01*
X107214312Y-85415537D01*
X107214324Y-85415535D01*
X107503584Y-85357998D01*
X107503599Y-85357994D01*
X107782888Y-85263187D01*
X108047406Y-85132741D01*
X108047419Y-85132734D01*
X108292648Y-84968877D01*
X108326039Y-84939593D01*
X107538533Y-84152086D01*
X107669175Y-84057171D01*
X107797171Y-83929175D01*
X107892086Y-83798533D01*
X108679593Y-84586039D01*
X108708877Y-84552648D01*
X108872734Y-84307419D01*
X108872741Y-84307406D01*
X109003187Y-84042888D01*
X109097994Y-83763599D01*
X109097998Y-83763584D01*
X109155535Y-83474324D01*
X109155537Y-83474312D01*
X109174827Y-83180000D01*
X109155537Y-82885687D01*
X109155535Y-82885675D01*
X109097998Y-82596415D01*
X109097994Y-82596400D01*
X109003187Y-82317111D01*
X108872741Y-82052593D01*
X108872734Y-82052580D01*
X108708876Y-81807350D01*
X108679593Y-81773958D01*
X107892086Y-82561465D01*
X107797171Y-82430825D01*
X107669175Y-82302829D01*
X107538533Y-82207912D01*
X108326040Y-81420405D01*
X108292649Y-81391123D01*
X108047419Y-81227265D01*
X108047406Y-81227258D01*
X107817733Y-81113995D01*
X107766313Y-81066690D01*
X107748632Y-80999094D01*
X107750000Y-80994900D01*
X107750000Y-80949999D01*
X108250000Y-80949999D01*
X108399972Y-80949999D01*
X108399986Y-80949998D01*
X108502697Y-80939505D01*
X108669119Y-80884358D01*
X108669124Y-80884356D01*
X108818345Y-80792315D01*
X108942315Y-80668345D01*
X109034357Y-80519123D01*
X109034358Y-80519119D01*
X109089505Y-80352697D01*
X109089506Y-80352690D01*
X109099999Y-80249986D01*
X109100000Y-80249973D01*
X109100000Y-80000000D01*
X108250000Y-80000000D01*
X108250000Y-80949999D01*
X107750000Y-80949999D01*
X107750000Y-79624000D01*
X107769685Y-79556961D01*
X107822489Y-79511206D01*
X107874000Y-79500000D01*
X109099999Y-79500000D01*
X109099999Y-79250028D01*
X109099998Y-79250010D01*
X109093572Y-79187101D01*
X109106342Y-79118408D01*
X109154223Y-79067524D01*
X109216930Y-79050500D01*
X109220613Y-79050500D01*
X109287652Y-79070185D01*
G37*
G04 #@! TD.AperFunction*
G04 #@! TA.AperFunction,Conductor*
G36*
X136630227Y-77763807D02*
G01*
X136651986Y-77752672D01*
X136675091Y-77750500D01*
X139124909Y-77750500D01*
X139170227Y-77763807D01*
X139191986Y-77752672D01*
X139215091Y-77750500D01*
X139765876Y-77750500D01*
X139832915Y-77770185D01*
X139878670Y-77822989D01*
X139888614Y-77892147D01*
X139859589Y-77955703D01*
X139853564Y-77962174D01*
X139779583Y-78036155D01*
X139743459Y-78072279D01*
X139682136Y-78105763D01*
X139612444Y-78100779D01*
X139597329Y-78093957D01*
X139577196Y-78083196D01*
X139554730Y-78071187D01*
X139366129Y-78013975D01*
X139202937Y-77997903D01*
X139172242Y-77985508D01*
X139159844Y-77993477D01*
X139137063Y-77997903D01*
X138973870Y-78013975D01*
X138785266Y-78071188D01*
X138611467Y-78164086D01*
X138611460Y-78164090D01*
X138459116Y-78289116D01*
X138334090Y-78441460D01*
X138334086Y-78441467D01*
X138241188Y-78615266D01*
X138183975Y-78803870D01*
X138164659Y-79000000D01*
X138183975Y-79196129D01*
X138183976Y-79196132D01*
X138234079Y-79361300D01*
X138241188Y-79384733D01*
X138334086Y-79558532D01*
X138334090Y-79558539D01*
X138459116Y-79710883D01*
X138611460Y-79835909D01*
X138611467Y-79835913D01*
X138785266Y-79928811D01*
X138785269Y-79928811D01*
X138785273Y-79928814D01*
X138973868Y-79986024D01*
X139170000Y-80005341D01*
X139366132Y-79986024D01*
X139554727Y-79928814D01*
X139554954Y-79928693D01*
X139720888Y-79839999D01*
X139728538Y-79835910D01*
X139880883Y-79710883D01*
X140005910Y-79558538D01*
X140068998Y-79440508D01*
X140098811Y-79384733D01*
X140098812Y-79384730D01*
X140098814Y-79384727D01*
X140156024Y-79196132D01*
X140175341Y-79000000D01*
X140156024Y-78803868D01*
X140098814Y-78615273D01*
X140098811Y-78615269D01*
X140098811Y-78615266D01*
X140076044Y-78572672D01*
X140061802Y-78504269D01*
X140086802Y-78439025D01*
X140097714Y-78426545D01*
X140337441Y-78186819D01*
X140398764Y-78153334D01*
X140425122Y-78150500D01*
X140850700Y-78150500D01*
X140917739Y-78170185D01*
X140963494Y-78222989D01*
X140973438Y-78292147D01*
X140946553Y-78353165D01*
X140874090Y-78441460D01*
X140874086Y-78441467D01*
X140781188Y-78615266D01*
X140723975Y-78803870D01*
X140704659Y-79000000D01*
X140723975Y-79196129D01*
X140745160Y-79265965D01*
X140774079Y-79361300D01*
X140781187Y-79384730D01*
X140787114Y-79395818D01*
X140800320Y-79420525D01*
X140803955Y-79427324D01*
X140818197Y-79495727D01*
X140793198Y-79560971D01*
X140782278Y-79573459D01*
X139558103Y-80797636D01*
X139487637Y-80868101D01*
X139487636Y-80868102D01*
X139449500Y-80960170D01*
X139449500Y-85260952D01*
X139429815Y-85327991D01*
X139377011Y-85373746D01*
X139307853Y-85383690D01*
X139244297Y-85354665D01*
X139237819Y-85348633D01*
X138526822Y-84637636D01*
X138434754Y-84599500D01*
X138434753Y-84599500D01*
X137564903Y-84599500D01*
X137465247Y-84599500D01*
X137465245Y-84599500D01*
X137373177Y-84637636D01*
X137373176Y-84637637D01*
X137207633Y-84803181D01*
X137146310Y-84836666D01*
X137119952Y-84839500D01*
X136845123Y-84839500D01*
X136778084Y-84819815D01*
X136757442Y-84803181D01*
X135206819Y-83252558D01*
X135173334Y-83191235D01*
X135170500Y-83164877D01*
X135170500Y-81290173D01*
X135170499Y-81290170D01*
X135156073Y-81255343D01*
X135132364Y-81198103D01*
X135061897Y-81127636D01*
X134571561Y-80637300D01*
X134538076Y-80575977D01*
X134543060Y-80506285D01*
X134571562Y-80461937D01*
X134619461Y-80414038D01*
X134619464Y-80414035D01*
X134718013Y-80266547D01*
X134785894Y-80102666D01*
X134790083Y-80081610D01*
X134812362Y-79969604D01*
X134820500Y-79928691D01*
X134820500Y-79751309D01*
X134820500Y-79751306D01*
X134820499Y-79751304D01*
X134785896Y-79577341D01*
X134785893Y-79577332D01*
X134778108Y-79558538D01*
X134757354Y-79508431D01*
X134718016Y-79413459D01*
X134718009Y-79413446D01*
X134619464Y-79265965D01*
X134619461Y-79265961D01*
X134494038Y-79140538D01*
X134494034Y-79140535D01*
X134346553Y-79041990D01*
X134346540Y-79041983D01*
X134245182Y-79000000D01*
X135624659Y-79000000D01*
X135643975Y-79196129D01*
X135643976Y-79196132D01*
X135694079Y-79361300D01*
X135701188Y-79384733D01*
X135794086Y-79558532D01*
X135794090Y-79558539D01*
X135919116Y-79710883D01*
X136071460Y-79835909D01*
X136071467Y-79835913D01*
X136245266Y-79928811D01*
X136245269Y-79928811D01*
X136245273Y-79928814D01*
X136433868Y-79986024D01*
X136630000Y-80005341D01*
X136826132Y-79986024D01*
X137014727Y-79928814D01*
X137014954Y-79928693D01*
X137180888Y-79839999D01*
X137188538Y-79835910D01*
X137340883Y-79710883D01*
X137465910Y-79558538D01*
X137528998Y-79440508D01*
X137558811Y-79384733D01*
X137558812Y-79384730D01*
X137558814Y-79384727D01*
X137616024Y-79196132D01*
X137635341Y-79000000D01*
X137616024Y-78803868D01*
X137558814Y-78615273D01*
X137558811Y-78615269D01*
X137558811Y-78615266D01*
X137465913Y-78441467D01*
X137465909Y-78441460D01*
X137340883Y-78289116D01*
X137188539Y-78164090D01*
X137188532Y-78164086D01*
X137014733Y-78071188D01*
X137014727Y-78071186D01*
X136826132Y-78013976D01*
X136826129Y-78013975D01*
X136662937Y-77997903D01*
X136632242Y-77985508D01*
X136619844Y-77993477D01*
X136597063Y-77997903D01*
X136433870Y-78013975D01*
X136245266Y-78071188D01*
X136071467Y-78164086D01*
X136071460Y-78164090D01*
X135919116Y-78289116D01*
X135794090Y-78441460D01*
X135794086Y-78441467D01*
X135701188Y-78615266D01*
X135643975Y-78803870D01*
X135624659Y-79000000D01*
X134245182Y-79000000D01*
X134182667Y-78974106D01*
X134182658Y-78974103D01*
X134008694Y-78939500D01*
X134008691Y-78939500D01*
X133059908Y-78939500D01*
X132992869Y-78919815D01*
X132947114Y-78867011D01*
X132937170Y-78797853D01*
X132966195Y-78734297D01*
X132972227Y-78727819D01*
X133913227Y-77786819D01*
X133974550Y-77753334D01*
X134000908Y-77750500D01*
X136584909Y-77750500D01*
X136630227Y-77763807D01*
G37*
G04 #@! TD.AperFunction*
G04 #@! TA.AperFunction,Conductor*
G36*
X119912916Y-83770185D02*
G01*
X119958671Y-83822989D01*
X119968615Y-83892147D01*
X119939590Y-83955703D01*
X119933558Y-83962181D01*
X118792061Y-85103677D01*
X118730738Y-85137162D01*
X118661046Y-85132178D01*
X118605113Y-85090306D01*
X118580696Y-85024842D01*
X118580833Y-85014783D01*
X118580500Y-85014783D01*
X118580500Y-84973692D01*
X118581179Y-84960731D01*
X118585460Y-84920000D01*
X118581179Y-84879266D01*
X118580500Y-84866306D01*
X118580500Y-84831309D01*
X118572360Y-84790393D01*
X118570656Y-84779156D01*
X118565674Y-84731744D01*
X118555094Y-84699183D01*
X118551409Y-84685059D01*
X118545895Y-84657339D01*
X118545894Y-84657338D01*
X118545894Y-84657334D01*
X118527352Y-84612569D01*
X118523990Y-84603455D01*
X118507181Y-84551720D01*
X118507178Y-84551715D01*
X118493424Y-84527892D01*
X118486256Y-84513355D01*
X118478014Y-84493456D01*
X118478013Y-84493454D01*
X118478013Y-84493453D01*
X118447359Y-84447577D01*
X118443088Y-84440708D01*
X118412534Y-84387785D01*
X118412530Y-84387780D01*
X118398637Y-84372350D01*
X118387684Y-84358268D01*
X118379464Y-84345965D01*
X118335721Y-84302222D01*
X118331255Y-84297516D01*
X118285871Y-84247112D01*
X118283992Y-84245747D01*
X118274527Y-84238870D01*
X118259737Y-84226238D01*
X118254035Y-84220536D01*
X118197008Y-84182431D01*
X118193016Y-84179649D01*
X118132730Y-84135849D01*
X118126092Y-84132893D01*
X118107643Y-84122719D01*
X118106551Y-84121989D01*
X118106546Y-84121986D01*
X118036993Y-84093177D01*
X118034010Y-84091895D01*
X117959806Y-84058856D01*
X117959797Y-84058853D01*
X117959285Y-84058745D01*
X117948626Y-84055438D01*
X117948494Y-84055874D01*
X117942667Y-84054106D01*
X117942666Y-84054106D01*
X117942663Y-84054105D01*
X117942662Y-84054105D01*
X117862268Y-84038113D01*
X117860715Y-84037794D01*
X117774646Y-84019500D01*
X117768691Y-84019500D01*
X116819908Y-84019500D01*
X116752869Y-83999815D01*
X116707114Y-83947011D01*
X116697170Y-83877853D01*
X116726195Y-83814297D01*
X116732227Y-83807819D01*
X116753227Y-83786819D01*
X116814550Y-83753334D01*
X116840908Y-83750500D01*
X119845877Y-83750500D01*
X119912916Y-83770185D01*
G37*
G04 #@! TD.AperFunction*
G04 #@! TA.AperFunction,Conductor*
G36*
X106883225Y-80347665D02*
G01*
X106926677Y-80402380D01*
X106929486Y-80410010D01*
X106965641Y-80519119D01*
X106965643Y-80519123D01*
X107057684Y-80668345D01*
X107109218Y-80719879D01*
X107142703Y-80781202D01*
X107137719Y-80850894D01*
X107095847Y-80906827D01*
X107030383Y-80931244D01*
X107013428Y-80931295D01*
X106920000Y-80925172D01*
X106625687Y-80944462D01*
X106625675Y-80944464D01*
X106336415Y-81002001D01*
X106336400Y-81002005D01*
X106057111Y-81096812D01*
X105792593Y-81227258D01*
X105792580Y-81227265D01*
X105547346Y-81391126D01*
X105547339Y-81391131D01*
X105513959Y-81420403D01*
X105513959Y-81420405D01*
X106301466Y-82207912D01*
X106170825Y-82302829D01*
X106042829Y-82430825D01*
X105947913Y-82561466D01*
X105206819Y-81820372D01*
X105173334Y-81759049D01*
X105170500Y-81732691D01*
X105170500Y-81409386D01*
X105190185Y-81342347D01*
X105206815Y-81321709D01*
X105891706Y-80636817D01*
X105953029Y-80603333D01*
X105979387Y-80600499D01*
X106381517Y-80600499D01*
X106381518Y-80600499D01*
X106475304Y-80585646D01*
X106588342Y-80528050D01*
X106678050Y-80438342D01*
X106701296Y-80392718D01*
X106749269Y-80341924D01*
X106817090Y-80325128D01*
X106883225Y-80347665D01*
G37*
G04 #@! TD.AperFunction*
G04 #@! TA.AperFunction,Conductor*
G36*
X111633225Y-80347665D02*
G01*
X111676677Y-80402380D01*
X111679486Y-80410010D01*
X111715641Y-80519119D01*
X111715643Y-80519123D01*
X111807684Y-80668345D01*
X111931654Y-80792315D01*
X111956822Y-80807839D01*
X112003546Y-80859787D01*
X112014769Y-80928750D01*
X111986925Y-80992832D01*
X111931584Y-81030797D01*
X111737111Y-81096812D01*
X111472593Y-81227258D01*
X111472580Y-81227265D01*
X111227346Y-81391126D01*
X111227339Y-81391131D01*
X111193959Y-81420403D01*
X111193959Y-81420405D01*
X111981466Y-82207912D01*
X111850825Y-82302829D01*
X111722829Y-82430825D01*
X111627913Y-82561466D01*
X110886819Y-81820372D01*
X110853334Y-81759049D01*
X110850500Y-81732691D01*
X110850500Y-80724499D01*
X110870185Y-80657460D01*
X110922989Y-80611705D01*
X110974500Y-80600499D01*
X111131517Y-80600499D01*
X111131518Y-80600499D01*
X111225304Y-80585646D01*
X111338342Y-80528050D01*
X111428050Y-80438342D01*
X111451296Y-80392718D01*
X111499269Y-80341924D01*
X111567090Y-80325128D01*
X111633225Y-80347665D01*
G37*
G04 #@! TD.AperFunction*
M02*
