G04 #@! TF.GenerationSoftware,KiCad,Pcbnew,8.0.4*
G04 #@! TF.CreationDate,2024-12-08T01:13:34+02:00*
G04 #@! TF.ProjectId,usb2ps2,75736232-7073-4322-9e6b-696361645f70,1.2*
G04 #@! TF.SameCoordinates,Original*
G04 #@! TF.FileFunction,Soldermask,Top*
G04 #@! TF.FilePolarity,Negative*
%FSLAX46Y46*%
G04 Gerber Fmt 4.6, Leading zero omitted, Abs format (unit mm)*
G04 Created by KiCad (PCBNEW 8.0.4) date 2024-12-08 01:13:34*
%MOMM*%
%LPD*%
G01*
G04 APERTURE LIST*
G04 Aperture macros list*
%AMRoundRect*
0 Rectangle with rounded corners*
0 $1 Rounding radius*
0 $2 $3 $4 $5 $6 $7 $8 $9 X,Y pos of 4 corners*
0 Add a 4 corners polygon primitive as box body*
4,1,4,$2,$3,$4,$5,$6,$7,$8,$9,$2,$3,0*
0 Add four circle primitives for the rounded corners*
1,1,$1+$1,$2,$3*
1,1,$1+$1,$4,$5*
1,1,$1+$1,$6,$7*
1,1,$1+$1,$8,$9*
0 Add four rect primitives between the rounded corners*
20,1,$1+$1,$2,$3,$4,$5,0*
20,1,$1+$1,$4,$5,$6,$7,0*
20,1,$1+$1,$6,$7,$8,$9,0*
20,1,$1+$1,$8,$9,$2,$3,0*%
G04 Aperture macros list end*
%ADD10C,1.700000*%
%ADD11O,1.700000X1.700000*%
%ADD12R,1.700000X1.700000*%
%ADD13R,1.500000X1.500000*%
%ADD14C,1.500000*%
%ADD15C,3.500000*%
%ADD16RoundRect,0.250000X0.450000X-0.350000X0.450000X0.350000X-0.450000X0.350000X-0.450000X-0.350000X0*%
%ADD17RoundRect,0.250000X-0.450000X0.350000X-0.450000X-0.350000X0.450000X-0.350000X0.450000X0.350000X0*%
%ADD18RoundRect,0.250000X-0.350000X-0.450000X0.350000X-0.450000X0.350000X0.450000X-0.350000X0.450000X0*%
%ADD19O,1.500000X1.500000*%
%ADD20O,2.500000X1.500000*%
%ADD21O,1.500000X2.500000*%
%ADD22C,2.100000*%
%ADD23R,1.600000X1.600000*%
%ADD24C,1.600000*%
%ADD25O,3.500000X2.000000*%
%ADD26O,2.000000X4.000000*%
%ADD27RoundRect,0.250000X0.450000X-0.325000X0.450000X0.325000X-0.450000X0.325000X-0.450000X-0.325000X0*%
G04 APERTURE END LIST*
D10*
X144250000Y-79000000D03*
D11*
X141710000Y-79000000D03*
X139170000Y-79000000D03*
X136630000Y-79000000D03*
D10*
X107670000Y-100500000D03*
D11*
X110210000Y-100500000D03*
D10*
X138500000Y-100500000D03*
D11*
X141040000Y-100500000D03*
D12*
X143580000Y-100500000D03*
D13*
X109630000Y-86250000D03*
D14*
X109630000Y-88750000D03*
X109630000Y-90750000D03*
X109630000Y-93250000D03*
X112250000Y-86250000D03*
X112250000Y-88750000D03*
X112250000Y-90750000D03*
X112250000Y-93250000D03*
D15*
X106920000Y-83180000D03*
X106920000Y-96320000D03*
X112600000Y-83180000D03*
X112600000Y-96320000D03*
D16*
X122250000Y-89750000D03*
X122250000Y-87750000D03*
D17*
X122000000Y-81500000D03*
X122000000Y-83500000D03*
D16*
X129000000Y-83500000D03*
X129000000Y-81500000D03*
D18*
X110750000Y-79750000D03*
X112750000Y-79750000D03*
X106000000Y-79750000D03*
X108000000Y-79750000D03*
D19*
X132920000Y-79840000D03*
D20*
X133420000Y-79840000D03*
D19*
X132920000Y-82380000D03*
D20*
X133420000Y-82380000D03*
D19*
X132920000Y-84920000D03*
D20*
X133420000Y-84920000D03*
D19*
X132920000Y-87460000D03*
D20*
X133420000Y-87460000D03*
D19*
X132920000Y-90000000D03*
D20*
X133420000Y-90000000D03*
D19*
X132920000Y-92540000D03*
D20*
X133420000Y-92540000D03*
D19*
X132920000Y-95080000D03*
D20*
X133420000Y-95080000D03*
D19*
X132920000Y-97620000D03*
D20*
X133420000Y-97620000D03*
D19*
X132920000Y-100160000D03*
D20*
X133420000Y-100160000D03*
D19*
X130380000Y-100160000D03*
D21*
X130380000Y-100660000D03*
D19*
X127840000Y-100160000D03*
D21*
X127840000Y-100660000D03*
D19*
X125300000Y-100160000D03*
D21*
X125300000Y-100660000D03*
D19*
X122760000Y-100160000D03*
D21*
X122760000Y-100660000D03*
D19*
X120220000Y-100160000D03*
D21*
X120220000Y-100660000D03*
D20*
X117180000Y-100160000D03*
D19*
X117680000Y-100160000D03*
D20*
X117180000Y-97620000D03*
D19*
X117680000Y-97620000D03*
D20*
X117180000Y-95080000D03*
D19*
X117680000Y-95080000D03*
D20*
X117180000Y-92540000D03*
D19*
X117680000Y-92540000D03*
D20*
X117180000Y-90000000D03*
D19*
X117680000Y-90000000D03*
D20*
X117180000Y-87460000D03*
D19*
X117680000Y-87460000D03*
D20*
X117180000Y-84920000D03*
D19*
X117680000Y-84920000D03*
D20*
X117180000Y-82380000D03*
D19*
X117680000Y-82380000D03*
D20*
X117180000Y-79840000D03*
D19*
X117680000Y-79840000D03*
D17*
X124300000Y-87750000D03*
X124300000Y-89750000D03*
D22*
X146900000Y-79400000D03*
X146900000Y-100650000D03*
D17*
X126750000Y-89750000D03*
X126750000Y-87750000D03*
D23*
X140750000Y-88000000D03*
D24*
X140750000Y-90600000D03*
D25*
X143600000Y-96150000D03*
D26*
X144400000Y-89300000D03*
D24*
X140750000Y-85900000D03*
D25*
X143600000Y-82450000D03*
D24*
X140750000Y-92700000D03*
X137950000Y-85900000D03*
X137950000Y-92700000D03*
D16*
X129000000Y-89750000D03*
X129000000Y-87750000D03*
X124250000Y-83500000D03*
X124250000Y-81500000D03*
D22*
X102250000Y-79400000D03*
D17*
X126750000Y-81500000D03*
X126750000Y-83500000D03*
D22*
X102250000Y-100650000D03*
D27*
X121800000Y-95125000D03*
X121800000Y-93075000D03*
X129000000Y-95100000D03*
X129000000Y-93050000D03*
X124350000Y-95100000D03*
X124350000Y-93050000D03*
X126750000Y-95100000D03*
X126750000Y-93050000D03*
M02*
